<?xml version="1.0" encoding="UTF-8"?>
<svg width="104px" height="44px" viewBox="0 0 104 44" version="1.1" xmlns="http://www.w3.org/2000/svg" xmlns:xlink="http://www.w3.org/1999/xlink">
    <title>eikon_full copy</title>
    <defs>
        <polygon id="path-1" points="0 43.3804548 103.960209 43.3804548 103.960209 0 0 0"></polygon>
        <polygon id="path-3" points="0 43.3804548 103.960209 43.3804548 103.960209 0 0 0"></polygon>
    </defs>
    <g id="Page-1" stroke="none" stroke-width="1" fill="none" fill-rule="evenodd">
        <g id="homepage" transform="translate(-430.000000, -2767.000000)">
            <g id="FOOTER" transform="translate(12.000000, 2578.000000)">
                <g id="eikon_full-copy" transform="translate(418.039791, 189.197754)">
                    <polygon id="Path" fill="#FFFFFF" points="0.591146285 24.6943717 0.591146285 28.7712426 2.94808729 28.7712426 2.94808729 28.1979326 1.22815737 28.1979326 1.22815737 27.0513127 2.88438619 27.0513127 2.88438619 26.4780027 1.22815737 26.4780027 1.22815737 25.3313827 2.88438619 25.3313827 2.88438619 24.7580728 0.591146285 24.7580728"></polygon>
                    <g id="Group">
                        <path d="M5.60569753,27.0092699 C5.54199643,26.6907644 5.41459421,26.4996611 4.96868645,26.4996611 C4.45907758,26.4996611 4.26797426,26.8818677 4.26797426,27.3277755 C4.26797426,27.7736832 4.45907758,28.1558899 5.03238756,28.1558899 C5.41459421,28.1558899 5.54199643,27.9647866 5.60569753,27.7099821 L6.24270862,27.7099821 C6.17900751,28.2832921 5.73309975,28.7291999 4.96868645,28.7291999 C4.07687093,28.7291999 3.63096318,28.0284877 3.63096318,27.3277755 C3.63096318,26.6270633 4.07687093,25.9263511 4.96868645,25.9263511 C5.86050197,25.9263511 6.17900751,26.43596 6.24270862,27.0092699 C6.24270862,27.0092699 5.60569753,27.0092699 5.60569753,27.0092699 Z M8.98185628,27.3914766 C8.98185628,26.9455688 8.66335073,26.5633622 8.15374187,26.5633622 C7.70783411,26.5633622 7.38932857,26.9455688 7.38932857,27.3914766 C7.38932857,27.8373843 7.70783411,28.219591 8.15374187,28.219591 C8.66335073,28.219591 8.98185628,27.8373843 8.98185628,27.3914766 M6.75231748,27.3914766 C6.75231748,26.6270633 7.32562746,25.9900522 8.15374187,25.9900522 C9.04555738,25.9900522 9.55516625,26.6270633 9.55516625,27.3914766 C9.55516625,28.1558899 8.98185628,28.792901 8.15374187,28.792901 C7.32562746,28.792901 6.75231748,28.1558899 6.75231748,27.3914766" id="Shape" fill="#FFFFFF"></path>
                        <g id="Clipped">
                            <mask id="mask-2" fill="white">
                                <use xlink:href="#path-1"></use>
                            </mask>
                            <g id="a_00000151503309647305106420000010144425527753412756_"></g>
                            <path d="M10.3195796,28.7291999 L10.9565906,28.7291999 L10.9565906,24.6523289 L10.3195796,24.6523289 L10.3195796,28.7291999 Z M12.2943139,27.072971 L13.6320372,27.072971 C13.6320372,26.6907644 13.3772328,26.43596 12.9950261,26.43596 C12.6128195,26.43596 12.2943139,26.6270633 12.2943139,27.072971 Z M12.2943139,27.5825799 C12.2943139,27.9647866 12.4854172,28.2832921 12.9950261,28.2832921 C13.3772328,28.2832921 13.504635,28.0921888 13.5683361,27.9010855 L14.2053472,27.9010855 C14.1416461,28.3469932 13.6957383,28.792901 12.9950261,28.792901 C12.1032106,28.792901 11.6573028,28.1558899 11.6573028,27.3914766 C11.6573028,26.5633622 12.1669117,25.9900522 12.9950261,25.9900522 C13.6957383,25.9900522 14.2690483,26.4996611 14.2690483,27.2003733 C14.2690483,27.2640744 14.2690483,27.3914766 14.2690483,27.5825799 C14.2053472,27.5825799 12.2943139,27.5825799 12.2943139,27.5825799 Z M16.8807937,27.3914766 C16.8807937,27.8373843 17.1992993,28.219591 17.7089081,28.219591 C18.1548159,28.219591 18.4733214,27.8373843 18.4733214,27.3914766 C18.4733214,26.9455688 18.1548159,26.5633622 17.7089081,26.5633622 C17.1992993,26.4996611 16.8807937,26.8818677 16.8807937,27.3914766 Z M16.8807937,26.3722589 C17.071897,26.1174544 17.3904026,25.9263511 17.7089081,25.9263511 C18.5370225,25.9263511 19.1103325,26.5633622 19.1103325,27.3277755 C19.1103325,28.0921888 18.5370225,28.7291999 17.7089081,28.7291999 C17.3904026,28.7291999 17.071897,28.5380965 16.8807937,28.2832921 L16.8807937,30.003222 L16.2437826,30.003222 L16.2437826,25.9263511 L16.8807937,25.9263511 L16.8807937,26.3722589 L16.8807937,26.3722589 Z M21.5309746,26.6270633 C21.4672735,26.6270633 21.3398713,26.6270633 21.2761702,26.6270633 C20.7665613,26.6270633 20.4480558,26.9455688 20.4480558,27.5825799 L20.4480558,28.7291999 L19.8110447,28.7291999 L19.8110447,26.0537533 L20.4480558,26.0537533 L20.4480558,26.4996611 C20.575458,26.2448566 20.8939635,26.0537533 21.2761702,26.0537533 C21.4035724,26.0537533 21.4672735,26.0537533 21.5309746,26.1174544 L21.5309746,26.6270633 L21.5309746,26.6270633 Z M24.079019,27.3914766 C24.079019,26.9455688 23.7605134,26.5633622 23.2509045,26.5633622 C22.8049968,26.5633622 22.4864912,26.9455688 22.4864912,27.3914766 C22.4864912,27.8373843 22.8049968,28.219591 23.2509045,28.219591 C23.7605134,28.219591 24.079019,27.8373843 24.079019,27.3914766 M21.9131813,27.3914766 C21.9131813,26.6270633 22.4864912,25.9900522 23.3146057,25.9900522 C24.2064212,25.9900522 24.71603,26.6270633 24.71603,27.3914766 C24.71603,28.1558899 24.1427201,28.792901 23.3146057,28.792901 C22.4227901,28.792901 21.9131813,28.1558899 21.9131813,27.3914766 M27.0092699,25.2256389 C26.9455688,25.2256389 26.8181666,25.1619378 26.7544655,25.1619378 C26.5633622,25.1619378 26.3085577,25.1619378 26.3085577,25.6078456 L26.3085577,25.9900522 L27.0092699,25.9900522 L27.0092699,26.4996611 L26.3085577,26.4996611 L26.3085577,28.6654988 L25.6715467,28.6654988 L25.6715467,26.4996611 L25.0982367,26.4996611 L25.0982367,25.9900522 L25.6715467,25.9900522 L25.6715467,25.6715467 C25.6715467,24.6523289 26.3085577,24.5886278 26.6270633,24.5886278 C26.8181666,24.5886278 26.9455688,24.6523289 27.0092699,24.6523289 C27.0092699,24.71603 27.0092699,25.2256389 27.0092699,25.2256389 Z M28.0284877,27.072971 L29.3662109,27.072971 C29.3662109,26.6907644 29.1114065,26.43596 28.7291999,26.43596 C28.3469932,26.43596 28.0284877,26.6270633 28.0284877,27.072971 Z M28.0284877,27.5825799 C28.0284877,27.9647866 28.219591,28.2832921 28.7291999,28.2832921 C29.1114065,28.2832921 29.2388087,28.0921888 29.3025098,27.9010855 L29.9395209,27.9010855 C29.8758198,28.3469932 29.4299121,28.792901 28.7291999,28.792901 C27.8373843,28.792901 27.3914766,28.1558899 27.3914766,27.3914766 C27.3914766,26.5633622 27.9010855,25.9900522 28.7291999,25.9900522 C29.4299121,25.9900522 30.003222,26.4996611 30.003222,27.2003733 C30.003222,27.2640744 30.003222,27.3914766 30.003222,27.5825799 L28.0284877,27.5825799 L28.0284877,27.5825799 Z M32.6786686,27.9647866 C32.6786686,28.5380965 32.1690597,28.792901 31.5957497,28.792901 C31.0224398,28.792901 30.5128309,28.4743954 30.5128309,27.8373843 L31.149842,27.8373843 C31.149842,28.219591 31.3409453,28.3469932 31.6594508,28.3469932 C31.9142553,28.3469932 32.1053586,28.2832921 32.1053586,28.0284877 C32.1053586,27.7736832 31.8505542,27.7736832 31.2772442,27.5188788 C30.8950375,27.3914766 30.6402331,27.2640744 30.6402331,26.7544655 C30.6402331,26.2448566 31.0861409,25.9900522 31.6594508,25.9900522 C32.2327608,25.9900522 32.6786686,26.3722589 32.6786686,26.8818677 L32.0416575,26.8818677 C32.0416575,26.6270633 31.9142553,26.43596 31.5957497,26.43596 C31.4046464,26.43596 31.2135431,26.5633622 31.2135431,26.7544655 C31.2135431,27.0092699 31.4683475,27.0092699 31.9779564,27.2003733 C32.360163,27.3277755 32.6786686,27.4551777 32.6786686,27.9647866 M35.4178162,27.9647866 C35.4178162,28.5380965 34.9082074,28.792901 34.3348974,28.792901 C33.7615874,28.792901 33.2519786,28.4743954 33.2519786,27.8373843 L33.8889896,27.8373843 C33.8889896,28.219591 34.080093,28.3469932 34.3985985,28.3469932 C34.6534029,28.3469932 34.8445063,28.2832921 34.8445063,28.0284877 C34.8445063,27.7736832 34.5897018,27.7736832 34.0163919,27.5188788 C33.6341852,27.3914766 33.3793808,27.2640744 33.3793808,26.7544655 C33.3793808,26.2448566 33.8252885,25.9900522 34.3985985,25.9900522 C34.9719085,25.9900522 35.4178162,26.3722589 35.4178162,26.8818677 L34.7808052,26.8818677 C34.7808052,26.6270633 34.6534029,26.43596 34.3348974,26.43596 C34.1437941,26.43596 33.9526907,26.5633622 33.9526907,26.7544655 C33.9526907,27.0092699 34.2074952,27.0092699 34.717104,27.2003733 C35.0993107,27.3277755 35.4178162,27.4551777 35.4178162,27.9647866 M36.1822295,28.7291999 L36.8192406,28.7291999 L36.8192406,26.0537533 L36.1822295,26.0537533 L36.1822295,28.7291999 L36.1822295,28.7291999 Z M36.5007351,24.5886278 C36.7555395,24.5886278 36.9466428,24.7797311 36.9466428,25.0345356 C36.9466428,25.28934 36.7555395,25.4804433 36.5007351,25.4804433 L36.5007351,25.4804433 C36.2459306,25.4804433 36.0548273,25.28934 36.0548273,25.0345356 C36.0548273,24.7797311 36.2459306,24.5886278 36.5007351,24.5886278 Z M39.6857905,27.3914766 C39.6857905,26.9455688 39.367285,26.5633622 38.8576761,26.5633622 C38.4117683,26.5633622 38.0932628,26.9455688 38.0932628,27.3914766 C38.0932628,27.8373843 38.4117683,28.219591 38.8576761,28.219591 C39.367285,28.219591 39.6857905,27.8373843 39.6857905,27.3914766 M37.4562517,27.3914766 C37.4562517,26.6270633 38.0295617,25.9900522 38.8576761,25.9900522 C39.7494916,25.9900522 40.2591005,26.6270633 40.2591005,27.3914766 C40.2591005,28.1558899 39.6857905,28.792901 38.8576761,28.792901 C38.0295617,28.792901 37.4562517,28.1558899 37.4562517,27.3914766 M41.0235138,25.9900522 L41.6605249,25.9900522 L41.6605249,26.3722589 C41.8516282,26.0537533 42.1701337,25.9263511 42.5523404,25.9263511 C42.934547,25.9263511 43.1893515,26.0537533 43.3804548,26.3085577 C43.507857,26.4996611 43.5715581,26.7544655 43.5715581,27.1366722 L43.5715581,28.7291999 L42.934547,28.7291999 L42.934547,27.3277755 C42.934547,26.8818677 42.8071448,26.4996611 42.361237,26.4996611 C41.9153293,26.4996611 41.724226,26.8818677 41.724226,27.3277755 L41.724226,28.7291999 L41.0872149,28.7291999 L41.0872149,25.9900522 L41.0235138,25.9900522 Z M44.3996725,25.9900522 L45.0366836,25.9900522 L45.0366836,26.3722589 C45.2277869,26.0537533 45.5462925,25.9263511 45.9284991,25.9263511 C46.3107058,25.9263511 46.5655102,26.0537533 46.7566135,26.3085577 C46.8840157,26.4996611 46.9477168,26.7544655 46.9477168,27.1366722 L46.9477168,28.7291999 L46.3107058,28.7291999 L46.3107058,27.3277755 C46.3107058,26.8818677 46.1833035,26.4996611 45.7373958,26.4996611 C45.291488,26.4996611 45.1003847,26.8818677 45.1003847,27.3277755 L45.1003847,28.7291999 L44.4633736,28.7291999 L44.4633736,25.9900522 L44.3996725,25.9900522 Z M48.221739,27.072971 L49.5594623,27.072971 C49.5594623,26.6907644 49.3046579,26.43596 48.9224512,26.43596 C48.5402446,26.43596 48.221739,26.6270633 48.221739,27.072971 Z M48.221739,27.5825799 C48.221739,27.9647866 48.4128423,28.2832921 48.9224512,28.2832921 C49.3046579,28.2832921 49.4320601,28.0921888 49.4957612,27.9010855 L50.1327723,27.9010855 C50.0690712,28.3469932 49.6231634,28.792901 48.9224512,28.792901 C48.0306357,28.792901 47.5847279,28.1558899 47.5847279,27.3914766 C47.5847279,26.5633622 48.0943368,25.9900522 48.9224512,25.9900522 C49.6231634,25.9900522 50.1964734,26.4996611 50.1964734,27.2003733 C50.1964734,27.2640744 50.1964734,27.3914766 50.1964734,27.5825799 L48.221739,27.5825799 L48.221739,27.5825799 Z M50.8971856,28.7291999 L51.5341966,28.7291999 L51.5341966,24.6523289 L50.8971856,24.6523289 L50.8971856,28.7291999 Z M52.4260122,28.7291999 L53.0630232,28.7291999 L53.0630232,24.6523289 L52.4260122,24.6523289 L52.4260122,28.7291999 Z M54.4007465,27.072971 L55.7384698,27.072971 C55.7384698,26.6907644 55.4836654,26.43596 55.1014587,26.43596 C54.7192521,26.43596 54.4007465,26.6270633 54.4007465,27.072971 Z M54.4007465,27.5825799 C54.4007465,27.9647866 54.5918498,28.2832921 55.1014587,28.2832921 C55.4836654,28.2832921 55.6110676,28.0921888 55.6747687,27.9010855 L56.3117798,27.9010855 C56.2480787,28.3469932 55.8021709,28.792901 55.1014587,28.792901 C54.2096432,28.792901 53.7637354,28.1558899 53.7637354,27.3914766 C53.7637354,26.5633622 54.2733443,25.9900522 55.1014587,25.9900522 C55.8021709,25.9900522 56.3754809,26.4996611 56.3754809,27.2003733 C56.3754809,27.2640744 56.3754809,27.3914766 56.3754809,27.5825799 L54.4007465,27.5825799 L54.4007465,27.5825799 Z M58.796123,27.072971 L60.1338463,27.072971 C60.1338463,26.6907644 59.8790418,26.43596 59.4968352,26.43596 C59.1146285,26.43596 58.796123,26.6270633 58.796123,27.072971 Z M58.796123,27.5825799 C58.796123,27.9647866 58.9872263,28.2832921 59.4968352,28.2832921 C59.8790418,28.2832921 60.0064441,28.0921888 60.0701452,27.9010855 L60.7071563,27.9010855 C60.6434551,28.3469932 60.1975474,28.792901 59.4968352,28.792901 C58.6050197,28.792901 58.1591119,28.1558899 58.1591119,27.3914766 C58.1591119,26.5633622 58.6687208,25.9900522 59.4968352,25.9900522 C60.1975474,25.9900522 60.7708574,26.4996611 60.7708574,27.2003733 C60.7708574,27.2640744 60.7708574,27.3914766 60.7708574,27.5825799 L58.796123,27.5825799 L58.796123,27.5825799 Z M61.5352707,25.9900522 L62.1722817,25.9900522 L62.1722817,26.3722589 C62.3633851,26.0537533 62.6818906,25.9263511 63.0640973,25.9263511 C63.4463039,25.9263511 63.7011083,26.0537533 63.8922117,26.3085577 C64.0196139,26.4996611 64.083315,26.7544655 64.083315,27.1366722 L64.083315,28.7291999 L63.4463039,28.7291999 L63.4463039,27.3277755 C63.4463039,26.8818677 63.3189017,26.4996611 62.8729939,26.4996611 C62.4270862,26.4996611 62.2359829,26.8818677 62.2359829,27.3277755 L62.2359829,28.7291999 L61.5989718,28.7291999 L61.5989718,25.9900522 L61.5352707,25.9900522 Z M68.1601859,27.3914766 C68.1601859,26.9455688 67.8416804,26.5633622 67.3320715,26.5633622 C66.8861638,26.5633622 66.5676582,26.9455688 66.5676582,27.3914766 C66.5676582,27.8373843 66.8861638,28.219591 67.3320715,28.219591 C67.8416804,28.219591 68.1601859,27.8373843 68.1601859,27.3914766 Z M68.797197,26.0537533 L68.797197,28.7291999 L68.1601859,28.7291999 L68.1601859,28.3469932 C67.9690826,28.6017976 67.6505771,28.792901 67.3320715,28.792901 C66.5039571,28.792901 65.9306471,28.1558899 65.9306471,27.3914766 C65.9306471,26.6270633 66.5039571,25.9900522 67.3320715,25.9900522 C67.6505771,25.9900522 67.9690826,26.1811555 68.1601859,26.43596 L68.1601859,26.0537533 C68.1601859,26.0537533 68.797197,26.0537533 68.797197,26.0537533 Z M71.4089425,26.6270633 C71.3452413,26.6270633 71.2178391,26.6270633 71.154138,26.6270633 C70.6445292,26.6270633 70.3260236,26.9455688 70.3260236,27.5825799 L70.3260236,28.7291999 L69.6890125,28.7291999 L69.6890125,26.0537533 L70.3260236,26.0537533 L70.3260236,26.4996611 C70.4534258,26.2448566 70.7719314,26.0537533 71.154138,26.0537533 C71.2815402,26.0537533 71.3452413,26.0537533 71.4089425,26.1174544 C71.4089425,26.0537533 71.4089425,26.6270633 71.4089425,26.6270633 Z M73.5747801,28.7291999 C73.4473779,28.7291999 73.2562746,28.792901 73.1288724,28.792901 C72.8103668,28.792901 72.2370569,28.7291999 72.2370569,27.8373843 L72.2370569,26.5633622 L71.7911491,26.5633622 L71.7911491,26.0537533 L72.2370569,26.0537533 L72.2370569,25.2256389 L72.8740679,25.2256389 L72.8740679,26.0537533 L73.511079,26.0537533 L73.511079,26.5633622 L72.8740679,26.5633622 L72.8740679,27.646281 C72.8740679,28.0921888 73.0014702,28.1558899 73.2562746,28.1558899 C73.3836768,28.1558899 73.511079,28.1558899 73.5747801,28.1558899 L73.5747801,28.7291999 L73.5747801,28.7291999 Z M76.1865256,27.9647866 C76.1865256,28.5380965 75.6769167,28.792901 75.1036067,28.792901 C74.5302968,28.792901 74.0206879,28.4743954 74.0206879,27.8373843 L74.657699,27.8373843 C74.657699,28.219591 74.8488023,28.3469932 75.1673078,28.3469932 C75.4221123,28.3469932 75.6132156,28.2832921 75.6132156,28.0284877 C75.6132156,27.7736832 75.3584112,27.7736832 74.7851012,27.5188788 C74.4028945,27.3914766 74.1480901,27.2640744 74.1480901,26.7544655 C74.1480901,26.2448566 74.5939979,25.9900522 75.1673078,25.9900522 C75.7406178,25.9900522 76.1865256,26.3722589 76.1865256,26.8818677 L75.5495145,26.8818677 C75.5495145,26.6270633 75.4221123,26.43596 75.1036067,26.43596 C74.9125034,26.43596 74.7214001,26.5633622 74.7214001,26.7544655 C74.7214001,27.0092699 74.9762045,27.0092699 75.4858134,27.2003733 C75.8043189,27.3277755 76.1865256,27.4551777 76.1865256,27.9647866 M80.1996954,27.3914766 C80.1996954,26.9455688 79.8811899,26.5633622 79.371581,26.5633622 C78.9256732,26.5633622 78.6071677,26.9455688 78.6071677,27.3914766 C78.6071677,27.8373843 78.9256732,28.219591 79.371581,28.219591 C79.8811899,28.219591 80.1996954,27.8373843 80.1996954,27.3914766 Z M80.8367065,26.0537533 L80.8367065,28.7291999 L80.1996954,28.7291999 L80.1996954,28.3469932 C80.0085921,28.6017976 79.6900865,28.792901 79.371581,28.792901 C78.5434666,28.792901 77.9701566,28.1558899 77.9701566,27.3914766 C77.9701566,26.6270633 78.5434666,25.9900522 79.371581,25.9900522 C79.6900865,25.9900522 80.0085921,26.1811555 80.1996954,26.43596 L80.1996954,26.0537533 C80.1996954,26.0537533 80.8367065,26.0537533 80.8367065,26.0537533 Z M82.3655331,27.3914766 C82.3655331,27.8373843 82.6840386,28.219591 83.1936475,28.219591 C83.6395553,28.219591 83.9580608,27.8373843 83.9580608,27.3914766 C83.9580608,26.9455688 83.6395553,26.5633622 83.1936475,26.5633622 C82.6840386,26.4996611 82.3655331,26.8818677 82.3655331,27.3914766 Z M82.3655331,26.3722589 C82.5566364,26.1174544 82.875142,25.9263511 83.1936475,25.9263511 C84.0217619,25.9263511 84.5950719,26.5633622 84.5950719,27.3277755 C84.5950719,28.0921888 84.0217619,28.7291999 83.1936475,28.7291999 C82.875142,28.7291999 82.5566364,28.5380965 82.3655331,28.2832921 L82.3655331,30.003222 L81.728522,30.003222 L81.728522,25.9263511 L82.3655331,25.9263511 L82.3655331,26.3722589 L82.3655331,26.3722589 Z M85.9327952,27.3914766 C85.9327952,27.8373843 86.2513007,28.219591 86.7609096,28.219591 C87.2068173,28.219591 87.5253229,27.8373843 87.5253229,27.3914766 C87.5253229,26.9455688 87.2068173,26.5633622 86.7609096,26.5633622 C86.2513007,26.4996611 85.9327952,26.8818677 85.9327952,27.3914766 Z M85.9327952,26.3722589 C86.1238985,26.1174544 86.442404,25.9263511 86.7609096,25.9263511 C87.589024,25.9263511 88.1623339,26.5633622 88.1623339,27.3277755 C88.1623339,28.0921888 87.589024,28.7291999 86.7609096,28.7291999 C86.442404,28.7291999 86.1238985,28.5380965 85.9327952,28.2832921 L85.9327952,30.003222 L85.2957841,30.003222 L85.2957841,25.9263511 L85.9327952,25.9263511 L85.9327952,26.3722589 L85.9327952,26.3722589 Z M88.8630461,28.7291999 L89.5000572,28.7291999 L89.5000572,24.6523289 L88.8630461,24.6523289 L88.8630461,28.7291999 Z M90.3918727,28.7291999 L91.0288838,28.7291999 L91.0288838,26.0537533 L90.3918727,26.0537533 L90.3918727,28.7291999 L90.3918727,28.7291999 Z M90.7103783,24.5886278 C90.9651827,24.5886278 91.156286,24.7797311 91.156286,25.0345356 C91.156286,25.28934 90.9651827,25.4804433 90.7103783,25.4804433 C90.4555738,25.4804433 90.2644705,25.28934 90.2644705,25.0345356 C90.2007694,24.7797311 90.3918727,24.5886278 90.7103783,24.5886278 L90.7103783,24.5886278 Z M92.302906,27.3914766 C92.302906,27.8373843 92.6214115,28.219591 93.0673193,28.219591 C93.5769282,28.219591 93.8954337,27.8373843 93.8954337,27.3914766 C93.8954337,26.9455688 93.5769282,26.5633622 93.0673193,26.5633622 C92.6214115,26.4996611 92.302906,26.8818677 92.302906,27.3914766 Z M93.8954337,26.0537533 L94.5324448,26.0537533 L94.5324448,30.1306242 L93.8954337,30.1306242 L93.8954337,28.4106943 C93.7043304,28.6654988 93.3858248,28.8566021 93.0673193,28.8566021 C92.2392049,28.8566021 91.6658949,28.219591 91.6658949,27.4551777 C91.6658949,26.6907644 92.2392049,26.0537533 93.0673193,26.0537533 C93.3858248,26.0537533 93.7043304,26.2448566 93.8954337,26.4996611 C93.8954337,26.3722589 93.8954337,26.0537533 93.8954337,26.0537533 Z M97.9086035,25.9900522 L97.9086035,28.6654988 L97.2715924,28.6654988 L97.2715924,28.2832921 C97.0804891,28.6017976 96.7619836,28.7291999 96.3797769,28.7291999 C95.9975703,28.7291999 95.7427658,28.6017976 95.5516625,28.3469932 C95.4242603,28.1558899 95.3605592,27.9010855 95.3605592,27.5188788 L95.3605592,25.9263511 L95.9975703,25.9263511 L95.9975703,27.3914766 C95.9975703,27.8373843 96.1249725,28.219591 96.5708802,28.219591 C97.016788,28.219591 97.2078913,27.8373843 97.2078913,27.3914766 L97.2078913,25.9900522 L97.9086035,25.9900522 L97.9086035,25.9900522 Z M99.2463268,27.072971 L100.58405,27.072971 C100.58405,26.6907644 100.329246,26.43596 99.947039,26.43596 C99.5648323,26.43596 99.2463268,26.6270633 99.2463268,27.072971 L99.2463268,27.072971 Z M99.373729,25.86265 L99.0552235,25.3530411 L100.520349,24.5886278 L100.838855,25.0982367 L99.373729,25.86265 Z M99.2463268,27.5825799 C99.2463268,27.9647866 99.4374301,28.2832921 99.947039,28.2832921 C100.329246,28.2832921 100.456648,28.0921888 100.520349,27.9010855 L101.15736,27.9010855 C101.093659,28.3469932 100.647751,28.792901 99.947039,28.792901 C99.0552235,28.792901 98.6093157,28.1558899 98.6093157,27.3914766 C98.6093157,26.5633622 99.1189246,25.9900522 99.947039,25.9900522 C100.647751,25.9900522 101.221061,26.4996611 101.221061,27.2003733 C101.221061,27.2640744 101.221061,27.3914766 101.221061,27.5825799 L99.2463268,27.5825799 L99.2463268,27.5825799 Z M103.960209,27.9647866 C103.960209,28.5380965 103.4506,28.792901 102.87729,28.792901 C102.30398,28.792901 101.794371,28.4743954 101.794371,27.8373843 L102.431382,27.8373843 C102.431382,28.219591 102.622486,28.3469932 102.940991,28.3469932 C103.195796,28.3469932 103.386899,28.2832921 103.386899,28.0284877 C103.386899,27.7736832 103.132094,27.7736832 102.558784,27.5188788 C102.176578,27.3914766 101.921773,27.2640744 101.921773,26.7544655 C101.921773,26.2448566 102.367681,25.9900522 102.940991,25.9900522 C103.514301,25.9900522 103.960209,26.3722589 103.960209,26.8818677 L103.323198,26.8818677 C103.323198,26.6270633 103.195796,26.43596 102.87729,26.43596 C102.686187,26.43596 102.495083,26.5633622 102.495083,26.7544655 C102.495083,27.0092699 102.749888,27.0092699 103.259497,27.2003733 C103.578002,27.3277755 103.960209,27.4551777 103.960209,27.9647866 M1.27402217,33.6341852 L1.27402217,34.7808052 L2.03843547,34.7808052 C2.61174544,34.7808052 2.67544655,34.4622996 2.67544655,34.2074952 C2.67544655,34.0163919 2.54804433,33.6341852 2.03843547,33.6341852 L1.27402217,33.6341852 L1.27402217,33.6341852 Z M1.97473436,32.9971741 C2.54804433,32.9971741 2.61174544,32.6149675 2.61174544,32.4238641 C2.61174544,32.2327608 2.54804433,31.8505542 1.97473436,31.8505542 L1.27402217,31.8505542 L1.27402217,32.933473 C1.27402217,32.9971741 1.97473436,32.9971741 1.97473436,32.9971741 Z M0.573309975,31.3409453 L1.97473436,31.3409453 C3.0576532,31.3409453 3.24875653,32.0416575 3.24875653,32.4238641 C3.24875653,32.933473 2.86654988,33.2519786 2.54804433,33.3156797 C2.80284877,33.3156797 3.31245763,33.6341852 3.31245763,34.2074952 C3.31245763,34.6534029 3.12135431,35.3541151 1.97473436,35.3541151 L0.573309975,35.3541151 L0.573309975,31.3409453 Z M4.5864798,33.7615874 L5.92420308,33.7615874 C5.92420308,33.3793808 5.66939864,33.1245763 5.28719199,33.1245763 C4.84128423,33.0608752 4.5864798,33.3156797 4.5864798,33.7615874 L4.5864798,33.7615874 Z M4.5864798,34.2074952 C4.5864798,34.5897018 4.77758313,34.9082074 5.28719199,34.9082074 C5.66939864,34.9082074 5.79680086,34.717104 5.86050197,34.5260007 L6.49751305,34.5260007 C6.43381194,34.9719085 5.98790418,35.4178162 5.28719199,35.4178162 C4.39537648,35.4178162 3.94946872,34.7808052 3.94946872,34.0163919 C3.94946872,33.1882774 4.45907758,32.6149675 5.28719199,32.6149675 C5.98790418,32.6149675 6.56121416,33.1245763 6.56121416,33.8252885 C6.56121416,33.8889896 6.56121416,34.0163919 6.56121416,34.2074952 L4.5864798,34.2074952 L4.5864798,34.2074952 Z M8.98185628,33.2519786 C8.91815517,33.2519786 8.79075295,33.2519786 8.72705184,33.2519786 C8.21744298,33.2519786 7.89893743,33.5704841 7.89893743,34.2074952 L7.89893743,35.3541151 L7.26192635,35.3541151 L7.26192635,32.6786686 L7.89893743,32.6786686 L7.89893743,33.1245763 C8.02633965,32.8697719 8.34484519,32.6786686 8.72705184,32.6786686 C8.85445406,32.6786686 8.91815517,32.6786686 8.98185628,32.7423697 C8.98185628,32.6786686 8.98185628,33.2519786 8.98185628,33.2519786 Z M11.9758084,32.6786686 L11.9758084,35.3541151 L11.3387973,35.3541151 L11.3387973,34.9719085 C11.147694,35.290414 10.8291884,35.4178162 10.4469818,35.4178162 C10.0647751,35.4178162 9.80997068,35.290414 9.61886736,35.0356096 C9.49146514,34.8445063 9.42776403,34.5897018 9.42776403,34.2074952 L9.42776403,32.6149675 L10.0647751,32.6149675 L10.0647751,34.0163919 C10.0647751,34.4622996 10.1921773,34.8445063 10.6380851,34.8445063 C11.0839929,34.8445063 11.2750962,34.4622996 11.2750962,34.0163919 L11.2750962,32.6149675 C11.3387973,32.6786686 11.9758084,32.6786686 11.9758084,32.6786686 Z M14.4601516,31.9142553 C14.3964505,31.9142553 14.2690483,31.8505542 14.2053472,31.8505542 C14.0142438,31.8505542 13.7594394,31.8505542 13.7594394,32.2964619 L13.7594394,32.6786686 L14.4601516,32.6786686 L14.4601516,33.1882774 L13.7594394,33.1882774 L13.7594394,35.3541151 L13.1224283,35.3541151 L13.1224283,33.1882774 L12.5491183,33.1882774 L12.5491183,32.6786686 L13.1224283,32.6786686 L13.1224283,32.360163 C13.1224283,31.3409453 13.7594394,31.2772442 14.0779449,31.2772442 C14.2690483,31.2772442 14.3964505,31.3409453 14.4601516,31.3409453 L14.4601516,31.9142553 L14.4601516,31.9142553 Z M17.071897,34.5897018 C17.071897,35.1630118 16.5622882,35.4178162 15.9889782,35.4178162 C15.4156682,35.4178162 14.9060594,35.0993107 14.9060594,34.4622996 L15.5430704,34.4622996 C15.5430704,34.8445063 15.7341738,34.9719085 16.0526793,34.9719085 C16.3074837,34.9719085 16.4985871,34.9082074 16.4985871,34.6534029 C16.4985871,34.3985985 16.2437826,34.3985985 15.6704727,34.1437941 C15.288266,34.0163919 15.0334616,33.8889896 15.0334616,33.3793808 C15.0334616,32.8697719 15.4793693,32.6149675 16.0526793,32.6149675 C16.6259893,32.6149675 17.071897,32.9971741 17.071897,33.506783 L16.434886,33.506783 C16.434886,33.2519786 16.3074837,33.0608752 15.9889782,33.0608752 C15.7978749,33.0608752 15.6067715,33.1882774 15.6067715,33.3793808 C15.6067715,33.6341852 15.861576,33.6341852 16.3711848,33.8252885 C16.6896904,34.0163919 17.071897,34.1437941 17.071897,34.5897018 M19.3651369,31.9142553 C19.3014358,31.8505542 19.1740336,31.8505542 19.1103325,31.8505542 C18.9192292,31.8505542 18.6644247,31.8505542 18.6644247,32.2964619 L18.6644247,32.6786686 L19.3651369,32.6786686 L19.3651369,33.1882774 L18.6644247,33.1882774 L18.6644247,35.3541151 L18.0274137,35.3541151 L18.0274137,33.1882774 L17.4541037,33.1882774 L17.4541037,32.6786686 L18.0274137,32.6786686 L18.0274137,32.360163 C18.0274137,31.3409453 18.6644247,31.2772442 18.9829303,31.2772442 C19.1740336,31.2772442 19.3014358,31.3409453 19.3651369,31.3409453 L19.3651369,31.9142553 L19.3651369,31.9142553 Z M21.9768824,34.0163919 C21.9768824,33.5704841 21.6583768,33.1882774 21.148768,33.1882774 C20.7028602,33.1882774 20.3843547,33.5704841 20.3843547,34.0163919 C20.3843547,34.4622996 20.7028602,34.8445063 21.148768,34.8445063 C21.6583768,34.9082074 21.9768824,34.4622996 21.9768824,34.0163919 L21.9768824,34.0163919 Z M22.6138935,32.6786686 L22.6138935,35.3541151 L21.9768824,35.3541151 L21.9768824,35.0356096 C21.7857791,35.290414 21.4672735,35.4815173 21.148768,35.4815173 C20.3206536,35.4815173 19.7473436,34.8445063 19.7473436,34.080093 C19.7473436,33.3156797 20.3206536,32.6786686 21.148768,32.6786686 C21.4672735,32.6786686 21.7857791,32.8697719 21.9768824,33.1245763 L21.9768824,32.7423697 L22.6138935,32.6786686 L22.6138935,32.6786686 Z M25.28934,33.6341852 C25.2256389,33.3156797 25.0982367,33.1245763 24.6523289,33.1245763 C24.1427201,33.1245763 23.9516167,33.506783 23.9516167,33.9526907 C23.9516167,34.3985985 24.1427201,34.7808052 24.71603,34.7808052 C25.0982367,34.7808052 25.2256389,34.5897018 25.28934,34.3348974 L25.9263511,34.3348974 C25.86265,34.9082074 25.4167422,35.3541151 24.6523289,35.3541151 C23.7605134,35.3541151 23.3146057,34.6534029 23.3146057,33.9526907 C23.3146057,33.2519786 23.7605134,32.5512664 24.6523289,32.5512664 C25.5441444,32.5512664 25.86265,33.0608752 25.9263511,33.6341852 L25.28934,33.6341852 L25.28934,33.6341852 Z M26.6907644,31.3409453 L27.3277755,31.3409453 L27.3277755,33.0608752 C27.5188788,32.7423697 27.8373843,32.6149675 28.219591,32.6149675 C28.6017976,32.6149675 28.8566021,32.7423697 29.0477054,32.9971741 C29.1751076,33.1882774 29.2388087,33.4430819 29.2388087,33.8252885 L29.2388087,35.4178162 L28.6017976,35.4178162 L28.6017976,34.0163919 C28.6017976,33.5704841 28.4743954,33.1882774 28.0284877,33.1882774 C27.5825799,33.1882774 27.3914766,33.5704841 27.3914766,34.0163919 L27.3914766,35.4178162 L26.7544655,35.4178162 L26.7544655,31.3409453 L26.6907644,31.3409453 Z M31.9779564,34.5897018 C31.9779564,35.1630118 31.4683475,35.4178162 30.8950375,35.4178162 C30.3217276,35.4178162 29.8121187,35.0993107 29.8121187,34.4622996 L30.4491298,34.4622996 C30.4491298,34.8445063 30.6402331,34.9719085 30.9587387,34.9719085 C31.2135431,34.9719085 31.4046464,34.9082074 31.4046464,34.6534029 C31.4046464,34.3985985 31.149842,34.3985985 30.576532,34.1437941 C30.1943254,34.0163919 29.9395209,33.8889896 29.9395209,33.3793808 C29.9395209,32.8697719 30.3854287,32.6149675 30.9587387,32.6149675 C31.5320486,32.6149675 31.9779564,32.9971741 31.9779564,33.506783 L31.3409453,33.506783 C31.3409453,33.2519786 31.2135431,33.0608752 30.8950375,33.0608752 C30.7039342,33.0608752 30.5128309,33.1882774 30.5128309,33.3793808 C30.5128309,33.6341852 30.7676353,33.6341852 31.2772442,33.8252885 C31.6594508,34.0163919 31.9779564,34.1437941 31.9779564,34.5897018 M34.5260007,33.6341852 C34.4622996,33.3156797 34.3348974,33.1245763 33.8889896,33.1245763 C33.3793808,33.1245763 33.1882774,33.506783 33.1882774,33.9526907 C33.1882774,34.3985985 33.3793808,34.7808052 33.9526907,34.7808052 C34.3348974,34.7808052 34.4622996,34.5897018 34.5260007,34.3348974 L35.1630118,34.3348974 C35.0993107,34.9082074 34.6534029,35.3541151 33.8889896,35.3541151 C32.9971741,35.3541151 32.5512664,34.6534029 32.5512664,33.9526907 C32.5512664,33.2519786 32.9971741,32.5512664 33.8889896,32.5512664 C34.7808052,32.5512664 35.0993107,33.0608752 35.1630118,33.6341852 C35.1630118,33.6341852 34.5260007,33.6341852 34.5260007,33.6341852 Z M35.9274251,31.3409453 L36.5644362,31.3409453 L36.5644362,33.0608752 C36.7555395,32.7423697 37.0740451,32.6149675 37.4562517,32.6149675 C37.8384584,32.6149675 38.0932628,32.7423697 38.2843661,32.9971741 C38.4117683,33.1882774 38.4754694,33.4430819 38.4754694,33.8252885 L38.4754694,35.4178162 L37.8384584,35.4178162 L37.8384584,34.0163919 C37.8384584,33.5704841 37.7110561,33.1882774 37.2651484,33.1882774 C36.8192406,33.1882774 36.6281373,33.5704841 36.6281373,34.0163919 L36.6281373,35.4178162 L35.9911262,35.4178162 L35.9911262,31.3409453 L35.9274251,31.3409453 Z M41.724226,32.6786686 L41.724226,35.3541151 L41.0872149,35.3541151 L41.0872149,34.9719085 C40.8961116,35.290414 40.577606,35.4178162 40.1953994,35.4178162 C39.8131927,35.4178162 39.5583883,35.290414 39.367285,35.0356096 C39.2398827,34.8445063 39.1761816,34.5897018 39.1761816,34.2074952 L39.1761816,32.6149675 L39.8131927,32.6149675 L39.8131927,34.0163919 C39.8131927,34.4622996 39.9405949,34.8445063 40.3865027,34.8445063 C40.8324104,34.8445063 41.0235138,34.4622996 41.0235138,34.0163919 L41.0235138,32.6149675 L41.724226,32.6149675 L41.724226,32.6786686 Z M42.6160415,35.3541151 L43.2530526,35.3541151 L43.2530526,31.2772442 L42.6160415,31.2772442 L42.6160415,35.3541151 Z M44.5907758,33.7615874 L45.9284991,33.7615874 C45.9284991,33.3793808 45.6736947,33.1245763 45.291488,33.1245763 C44.8455803,33.0608752 44.5907758,33.3156797 44.5907758,33.7615874 L44.5907758,33.7615874 Z M44.5907758,34.2074952 C44.5907758,34.5897018 44.7818792,34.9082074 45.291488,34.9082074 C45.6736947,34.9082074 45.8010969,34.717104 45.864798,34.5260007 L46.5018091,34.5260007 C46.438108,34.9719085 45.9922002,35.4178162 45.291488,35.4178162 C44.3996725,35.4178162 43.9537648,34.7808052 43.9537648,34.0163919 C43.9537648,33.1882774 44.4633736,32.6149675 45.291488,32.6149675 C45.9922002,32.6149675 46.5655102,33.1245763 46.5655102,33.8252885 C46.5655102,33.8889896 46.5655102,34.0163919 46.5655102,34.2074952 L44.5907758,34.2074952 L44.5907758,34.2074952 Z M50.1327723,31.9142553 C50.0690712,31.9142553 49.9416689,31.8505542 49.8779678,31.8505542 C49.6868645,31.8505542 49.4320601,31.8505542 49.4320601,32.2964619 L49.4320601,32.6786686 L50.1327723,32.6786686 L50.1327723,33.1882774 L49.4320601,33.1882774 L49.4320601,35.3541151 L48.795049,35.3541151 L48.795049,33.1882774 L48.221739,33.1882774 L48.221739,32.6786686 L48.795049,32.6786686 L48.795049,32.360163 C48.795049,31.3409453 49.4320601,31.2772442 49.7505656,31.2772442 C49.9416689,31.2772442 50.0690712,31.3409453 50.1327723,31.3409453 L50.1327723,31.9142553 L50.1327723,31.9142553 Z M51.2156911,31.3409453 C51.4704955,31.3409453 51.6615989,31.5320486 51.6615989,31.7868531 C51.6615989,32.0416575 51.4704955,32.2327608 51.2156911,32.2327608 C50.9608867,32.2327608 50.7697833,32.0416575 50.7697833,31.7868531 C50.7697833,31.5320486 50.9608867,31.3409453 51.2156911,31.3409453 Z M53.1267244,35.3541151 L52.4897133,35.3541151 L52.4897133,34.9719085 C52.2986099,35.290414 51.9801044,35.4178162 51.5978978,35.4178162 C51.2156911,35.4178162 50.9608867,35.290414 50.7697833,35.0356096 C50.6423811,34.8445063 50.57868,34.5897018 50.57868,34.2074952 L50.57868,32.6149675 L51.2156911,32.6149675 L51.2156911,34.0163919 C51.2156911,34.4622996 51.3430933,34.8445063 51.7890011,34.8445063 C52.2349088,34.8445063 52.4260122,34.4622996 52.4260122,34.0163919 L52.4260122,32.6149675 L53.0630232,32.6149675 L53.0630232,35.3541151 L53.1267244,35.3541151 Z M55.7384698,33.2519786 C55.6747687,33.2519786 55.5473665,33.2519786 55.4836654,33.2519786 C54.9740565,33.2519786 54.655551,33.5704841 54.655551,34.2074952 L54.655551,35.3541151 L54.0185399,35.3541151 L54.0185399,32.6786686 L54.655551,32.6786686 L54.655551,33.1245763 C54.7829532,32.8697719 55.1014587,32.6786686 55.4836654,32.6786686 C55.6110676,32.6786686 55.6747687,32.6786686 55.7384698,32.7423697 C55.7384698,32.6786686 55.7384698,33.2519786 55.7384698,33.2519786 Z M59.942743,33.3156797 L61.8537762,33.3156797 L61.8537762,33.8889896 L61.4078684,33.8889896 C61.2167651,34.7808052 60.579754,35.4178162 59.4331341,35.4178162 C58.0954108,35.4178162 57.3309975,34.3985985 57.3309975,33.3156797 C57.3309975,32.2327608 58.1591119,31.2135431 59.4331341,31.2135431 C60.3886507,31.2135431 61.0893629,31.7868531 61.153064,32.5512664 L60.5160529,32.5512664 C60.4523518,32.1690597 60.0064441,31.8505542 59.4331341,31.8505542 C58.5413186,31.8505542 58.0317097,32.6149675 58.0317097,33.3793808 C58.0317097,34.1437941 58.5413186,34.9082074 59.4968352,34.9082074 C60.1975474,34.9082074 60.579754,34.4622996 60.7071563,33.9526907 L59.942743,33.9526907 C59.942743,33.9526907 59.942743,33.3156797 59.942743,33.3156797 Z M62.936695,33.7615874 L64.2744183,33.7615874 C64.2744183,33.3793808 64.0196139,33.1245763 63.6374072,33.1245763 C63.2552006,33.0608752 62.936695,33.3156797 62.936695,33.7615874 Z M62.936695,34.2074952 C62.936695,34.5897018 63.1277984,34.9082074 63.6374072,34.9082074 C64.0196139,34.9082074 64.1470161,34.717104 64.2107172,34.5260007 L64.8477283,34.5260007 C64.7840272,34.9719085 64.3381194,35.4178162 63.6374072,35.4178162 C62.7455917,35.4178162 62.299684,34.7808052 62.299684,34.0163919 C62.299684,33.1882774 62.8092928,32.6149675 63.6374072,32.6149675 C64.3381194,32.6149675 64.9114294,33.1245763 64.9114294,33.8252885 C64.9114294,33.8889896 64.9114294,34.0163919 64.9114294,34.2074952 L62.936695,34.2074952 L62.936695,34.2074952 Z M67.6505771,34.5897018 C67.6505771,35.1630118 67.1409682,35.4178162 66.5676582,35.4178162 C65.9943482,35.4178162 65.4847394,35.0993107 65.4847394,34.4622996 L66.1217505,34.4622996 C66.1217505,34.8445063 66.3128538,34.9719085 66.6313593,34.9719085 C66.8861638,34.9719085 67.0772671,34.9082074 67.0772671,34.6534029 C67.0772671,34.3985985 66.8224627,34.3985985 66.2491527,34.1437941 C65.866946,34.0163919 65.6121416,33.8889896 65.6121416,33.3793808 C65.6121416,32.8697719 66.0580494,32.6149675 66.6313593,32.6149675 C67.2046693,32.6149675 67.6505771,32.9971741 67.6505771,33.506783 L67.013566,33.506783 C67.013566,33.2519786 66.8861638,33.0608752 66.5676582,33.0608752 C66.3765549,33.0608752 66.1854516,33.1882774 66.1854516,33.3793808 C66.1854516,33.6341852 66.440256,33.6341852 66.9498649,33.8252885 C67.2683704,34.0163919 67.6505771,34.1437941 67.6505771,34.5897018 M69.8801159,35.3541151 C69.7527136,35.3541151 69.5616103,35.4178162 69.4342081,35.4178162 C69.1157026,35.4178162 68.5423926,35.3541151 68.5423926,34.4622996 L68.5423926,33.1882774 L68.0964848,33.1882774 L68.0964848,32.6786686 L68.5423926,32.6786686 L68.5423926,31.8505542 L69.1794037,31.8505542 L69.1794037,32.6786686 L69.8164147,32.6786686 L69.8164147,33.1882774 L69.1794037,33.1882774 L69.1794037,34.2711963 C69.1794037,34.717104 69.3068059,34.7808052 69.5616103,34.7808052 C69.6890125,34.7808052 69.8164147,34.7808052 69.8801159,34.7808052 C69.8801159,34.8445063 69.8801159,35.3541151 69.8801159,35.3541151 Z M72.4918613,34.0163919 C72.4918613,33.5704841 72.1733558,33.1882774 71.6637469,33.1882774 C71.2178391,33.1882774 70.8993336,33.5704841 70.8993336,34.0163919 C70.8993336,34.4622996 71.2178391,34.8445063 71.6637469,34.8445063 C72.1733558,34.9082074 72.4918613,34.4622996 72.4918613,34.0163919 Z M73.1288724,32.6786686 L73.1288724,35.3541151 L72.4918613,35.3541151 L72.4918613,35.0356096 C72.300758,35.290414 71.9822524,35.4815173 71.6637469,35.4815173 C70.8356325,35.4815173 70.2623225,34.8445063 70.2623225,34.080093 C70.2623225,33.3156797 70.8356325,32.6786686 71.6637469,32.6786686 C71.9822524,32.6786686 72.300758,32.8697719 72.4918613,33.1245763 L72.4918613,32.7423697 C72.4918613,32.6786686 73.1288724,32.6786686 73.1288724,32.6786686 Z M74.0206879,35.3541151 L74.657699,35.3541151 L74.657699,31.2772442 L74.0206879,31.2772442 L74.0206879,35.3541151 Z M77.0783411,35.3541151 C76.9509389,35.3541151 76.7598356,35.4178162 76.6324333,35.4178162 C76.3139278,35.4178162 75.7406178,35.3541151 75.7406178,34.4622996 L75.7406178,33.1882774 L75.2947101,33.1882774 L75.2947101,32.6786686 L75.7406178,32.6786686 L75.7406178,31.8505542 L76.3776289,31.8505542 L76.3776289,32.6786686 L77.01464,32.6786686 L77.01464,33.1882774 L76.3776289,33.1882774 L76.3776289,34.2711963 C76.3776289,34.717104 76.5050311,34.7808052 76.7598356,34.7808052 C76.8872378,34.7808052 77.01464,34.7808052 77.0783411,34.7808052 L77.0783411,35.3541151 L77.0783411,35.3541151 Z M80.0722932,32.6786686 L80.0722932,35.3541151 L79.4352821,35.3541151 L79.4352821,34.9719085 C79.2441788,35.290414 78.9256732,35.4178162 78.5434666,35.4178162 C78.1612599,35.4178162 77.9064555,35.290414 77.7153522,35.0356096 C77.58795,34.8445063 77.5242489,34.5897018 77.5242489,34.2074952 L77.5242489,32.6149675 L78.1612599,32.6149675 L78.1612599,34.0163919 C78.1612599,34.4622996 78.2886622,34.8445063 78.7345699,34.8445063 C79.1804777,34.8445063 79.371581,34.4622996 79.371581,34.0163919 L79.371581,32.6149675 C79.4352821,32.6786686 80.0722932,32.6786686 80.0722932,32.6786686 Z M80.9641087,32.6786686 L81.6011198,32.6786686 L81.6011198,33.0608752 C81.7922231,32.7423697 82.1107287,32.6149675 82.4929353,32.6149675 C82.875142,32.6149675 83.1299464,32.7423697 83.3210497,32.9971741 C83.4484519,33.1882774 83.512153,33.4430819 83.512153,33.8252885 L83.512153,35.4178162 L82.875142,35.4178162 L82.875142,34.0163919 C82.875142,33.5704841 82.7477397,33.1882774 82.301832,33.1882774 C81.8559242,33.1882774 81.6648209,33.5704841 81.6648209,34.0163919 L81.6648209,35.4178162 L81.0278098,35.4178162 C80.9641087,35.3541151 80.9641087,32.6786686 80.9641087,32.6786686 Z M84.7861752,34.0163919 C84.7861752,34.4622996 85.1046807,34.8445063 85.5505885,34.8445063 C86.0601974,34.8445063 86.3787029,34.4622996 86.3787029,34.0163919 C86.3787029,33.5704841 86.0601974,33.1882774 85.5505885,33.1882774 C85.1046807,33.1882774 84.7861752,33.5704841 84.7861752,34.0163919 Z M87.015714,35.4815173 C87.015714,35.9274251 86.8883118,36.2459306 86.6335073,36.437034 C86.3787029,36.6281373 85.9964963,36.7555395 85.5505885,36.7555395 C85.1046807,36.7555395 84.7861752,36.6281373 84.5313708,36.437034 C84.3402674,36.2459306 84.2128652,35.9911262 84.1491641,35.6726207 L84.7861752,35.6726207 C84.8498763,35.9911262 85.0409796,36.2459306 85.4868874,36.2459306 C85.9964963,36.2459306 86.3150018,36.0548273 86.3150018,35.5452185 L86.3150018,35.0356096 C86.1238985,35.290414 85.8053929,35.4815173 85.4868874,35.4815173 C84.658773,35.4815173 84.085463,34.8445063 84.085463,34.080093 C84.085463,33.3156797 84.658773,32.6786686 85.4868874,32.6786686 C85.8053929,32.6786686 86.1238985,32.8697719 86.3150018,33.1245763 L86.3150018,32.7423697 L86.9520129,32.7423697 C87.015714,32.6786686 87.015714,35.4815173 87.015714,35.4815173 Z M2.03843547,42.0427315 L1.59252771,42.0427315 L0.191103325,37.9658606 L0.891815517,37.9658606 L1.84733214,40.8961116 L2.80284877,37.9658606 L3.50356096,37.9658606 L2.03843547,42.0427315 Z M5.73309975,40.7050082 C5.73309975,40.2591005 5.41459421,39.8768938 4.90498534,39.8768938 C4.45907758,39.8768938 4.14057204,40.2591005 4.14057204,40.7050082 C4.14057204,41.150916 4.45907758,41.5331226 4.90498534,41.5331226 C5.41459421,41.5331226 5.73309975,41.150916 5.73309975,40.7050082 M3.50356096,40.7050082 C3.50356096,39.9405949 4.07687093,39.3035838 4.90498534,39.3035838 C5.79680086,39.3035838 6.30640973,39.9405949 6.30640973,40.7050082 C6.30640973,41.4694215 5.73309975,42.1064326 4.90498534,42.1064326 C4.07687093,42.1064326 3.50356096,41.4057204 3.50356096,40.7050082 M8.91815517,40.3228016 C8.85445406,40.004296 8.72705184,39.8131927 8.28114408,39.8131927 C7.77153522,39.8131927 7.58043189,40.1953994 7.58043189,40.6413071 C7.58043189,41.0872149 7.77153522,41.4694215 8.34484519,41.4694215 C8.72705184,41.4694215 8.85445406,41.2783182 8.91815517,41.0235138 L9.55516625,41.0235138 C9.49146514,41.5968237 9.04555738,42.0427315 8.28114408,42.0427315 C7.38932857,42.0427315 6.94342081,41.3420193 6.94342081,40.6413071 C6.94342081,39.9405949 7.38932857,39.2398827 8.28114408,39.2398827 C9.1729596,39.2398827 9.49146514,39.7494916 9.55516625,40.3228016 L8.91815517,40.3228016 L8.91815517,40.3228016 Z M12.2943139,40.7050082 C12.2943139,40.2591005 11.9758084,39.8768938 11.4661995,39.8768938 C11.0202917,39.8768938 10.7017862,40.2591005 10.7017862,40.7050082 C10.7017862,41.150916 11.0202917,41.5331226 11.4661995,41.5331226 C11.9758084,41.5331226 12.2943139,41.150916 12.2943139,40.7050082 Z M12.931325,39.3035838 L12.931325,42.0427315 L12.2943139,42.0427315 L12.2943139,41.6605249 C12.1032106,41.9153293 11.784705,42.1064326 11.4661995,42.1064326 C10.6380851,42.1064326 10.0647751,41.4694215 10.0647751,40.7050082 C10.0647751,39.9405949 10.6380851,39.3035838 11.4661995,39.3035838 C11.784705,39.3035838 12.1032106,39.4946872 12.2943139,39.7494916 L12.2943139,39.367285 L12.931325,39.3035838 L12.931325,39.3035838 Z M15.288266,42.0427315 C15.1608638,42.0427315 14.9697605,42.1064326 14.8423582,42.1064326 C14.5238527,42.1064326 13.9505427,42.0427315 13.9505427,41.150916 L13.9505427,39.8768938 L13.504635,39.8768938 L13.504635,39.367285 L13.9505427,39.367285 L13.9505427,38.5391705 L14.5875538,38.5391705 L14.5875538,39.367285 L15.2245649,39.367285 L15.2245649,39.8768938 L14.5875538,39.8768938 L14.5875538,40.9598127 C14.5875538,41.4057204 14.714956,41.4694215 14.9697605,41.4694215 C15.0971627,41.4694215 15.2245649,41.4694215 15.288266,41.4694215 C15.288266,41.4694215 15.288266,42.0427315 15.288266,42.0427315 Z M15.861576,42.0427315 L16.4985871,42.0427315 L16.4985871,39.367285 L15.861576,39.367285 L15.861576,42.0427315 Z M16.1800815,37.9021595 C16.434886,37.9021595 16.6896904,38.0932628 16.6896904,38.3480672 C16.6896904,38.6028717 16.4985871,38.8576761 16.2437826,38.8576761 C16.2437826,38.8576761 16.1800815,38.8576761 16.1800815,38.8576761 C15.9252771,38.8576761 15.7341738,38.6028717 15.7341738,38.3480672 C15.7978749,38.0932628 15.9889782,37.9021595 16.1800815,37.9021595 L16.1800815,37.9021595 Z M19.428838,40.7050082 C19.428838,40.2591005 19.1103325,39.8768938 18.6007236,39.8768938 C18.1548159,39.8768938 17.8363103,40.2591005 17.8363103,40.7050082 C17.8363103,41.150916 18.1548159,41.5331226 18.6007236,41.5331226 C19.1103325,41.5331226 19.428838,41.150916 19.428838,40.7050082 M17.1992993,40.7050082 C17.1992993,39.9405949 17.7726092,39.3035838 18.6007236,39.3035838 C19.4925392,39.3035838 20.002148,39.9405949 20.002148,40.7050082 C20.002148,41.4694215 19.428838,42.1064326 18.6007236,42.1064326 C17.7726092,42.1064326 17.1992993,41.4057204 17.1992993,40.7050082 M20.7665613,39.3035838 L21.4035724,39.3035838 L21.4035724,39.6857905 C21.5946757,39.367285 21.9131813,39.2398827 22.2953879,39.2398827 C22.6775946,39.2398827 22.932399,39.367285 23.1235023,39.6220894 C23.2509045,39.8131927 23.3146057,40.0679971 23.3146057,40.4502038 L23.3146057,42.0427315 L22.6775946,42.0427315 L22.6775946,40.6413071 C22.6775946,40.1953994 22.5501924,39.8131927 22.1042846,39.8131927 C21.6583768,39.8131927 21.4672735,40.1953994 21.4672735,40.6413071 L21.4672735,42.0427315 L20.8302624,42.0427315 C20.7665613,42.0427315 20.7665613,39.3035838 20.7665613,39.3035838 Z M26.1174544,40.7050082 C26.1174544,40.2591005 25.7989489,39.8768938 25.28934,39.8768938 C24.8434323,39.8768938 24.5249267,40.2591005 24.5249267,40.7050082 C24.5249267,41.150916 24.8434323,41.5331226 25.28934,41.5331226 C25.7989489,41.5331226 26.1174544,41.150916 26.1174544,40.7050082 Z M26.7544655,39.3035838 L26.7544655,42.0427315 L26.1174544,42.0427315 L26.1174544,41.6605249 C25.9263511,41.9153293 25.6078456,42.1064326 25.28934,42.1064326 C24.4612256,42.1064326 23.8879156,41.4694215 23.8879156,40.7050082 C23.8879156,39.9405949 24.4612256,39.3035838 25.28934,39.3035838 C25.6078456,39.3035838 25.9263511,39.4946872 26.1174544,39.7494916 L26.1174544,39.367285 L26.7544655,39.3035838 L26.7544655,39.3035838 Z M27.646281,42.0427315 L28.2832921,42.0427315 L28.2832921,37.9658606 L27.646281,37.9658606 L27.646281,42.0427315 Z M30.9587387,40.7050082 C30.9587387,41.2146171 31.2772442,41.5331226 31.723152,41.5331226 C32.1053586,41.5331226 32.360163,41.2783182 32.360163,40.9598127 C32.360163,40.577606 31.9779564,40.3865027 31.723152,40.3228016 C30.9587387,40.0679971 30.3854287,39.8131927 30.3854287,39.0487794 C30.3854287,38.3480672 30.9587387,37.9658606 31.6594508,37.9658606 C32.360163,37.9658606 32.933473,38.4754694 32.933473,39.2398827 L32.2964619,39.2398827 C32.2964619,38.8576761 32.0416575,38.5391705 31.6594508,38.5391705 C31.3409453,38.5391705 31.0224398,38.7302739 31.0224398,39.0487794 C31.0224398,39.367285 31.3409453,39.5583883 31.5957497,39.6220894 C32.2327608,39.8768938 32.9971741,40.1316983 32.9971741,40.8961116 C32.9971741,41.724226 32.360163,42.1701337 31.5957497,42.1701337 C30.8313364,42.1701337 30.1943254,41.6605249 30.1943254,40.7687093 C30.3217276,40.7050082 30.9587387,40.7050082 30.9587387,40.7050082 Z M35.6726207,40.3228016 C35.6089196,40.004296 35.4815173,39.8131927 35.0356096,39.8131927 C34.5260007,39.8131927 34.3348974,40.1953994 34.3348974,40.6413071 C34.3348974,41.0872149 34.5260007,41.4694215 35.0993107,41.4694215 C35.4815173,41.4694215 35.6089196,41.2783182 35.6726207,41.0235138 L36.3096318,41.0235138 C36.2459306,41.5968237 35.8000229,42.0427315 35.0356096,42.0427315 C34.1437941,42.0427315 33.6978863,41.3420193 33.6978863,40.6413071 C33.6978863,39.9405949 34.1437941,39.2398827 35.0356096,39.2398827 C35.9274251,39.2398827 36.2459306,39.7494916 36.3096318,40.3228016 L35.6726207,40.3228016 L35.6726207,40.3228016 Z M37.0103439,37.9658606 L37.647355,37.9658606 L37.647355,39.6857905 C37.8384584,39.367285 38.1569639,39.2398827 38.5391705,39.2398827 C38.9213772,39.2398827 39.1761816,39.367285 39.367285,39.6220894 C39.4946872,39.8131927 39.5583883,40.0679971 39.5583883,40.4502038 L39.5583883,42.0427315 L38.9213772,42.0427315 L38.9213772,40.6413071 C38.9213772,40.1953994 38.793975,39.8131927 38.3480672,39.8131927 C37.9021595,39.8131927 37.7110561,40.1953994 37.7110561,40.6413071 L37.7110561,42.0427315 L37.0740451,42.0427315 L37.0103439,37.9658606 L37.0103439,37.9658606 Z M42.361237,40.7050082 C42.361237,40.2591005 42.0427315,39.8768938 41.5331226,39.8768938 C41.0872149,39.8768938 40.7687093,40.2591005 40.7687093,40.7050082 C40.7687093,41.150916 41.0872149,41.5331226 41.5331226,41.5331226 C42.1064326,41.5331226 42.361237,41.150916 42.361237,40.7050082 M40.1953994,40.7050082 C40.1953994,39.9405949 40.7687093,39.3035838 41.5968237,39.3035838 C42.4886393,39.3035838 42.9982481,39.9405949 42.9982481,40.7050082 C42.9982481,41.4694215 42.4249382,42.1064326 41.5968237,42.1064326 C40.7050082,42.1064326 40.1953994,41.4057204 40.1953994,40.7050082 M45.7373958,40.7050082 C45.7373958,40.2591005 45.4188902,39.8768938 44.9092814,39.8768938 C44.4633736,39.8768938 44.1448681,40.2591005 44.1448681,40.7050082 C44.1448681,41.150916 44.4633736,41.5331226 44.9092814,41.5331226 C45.4825914,41.5331226 45.7373958,41.150916 45.7373958,40.7050082 M43.5715581,40.7050082 C43.5715581,39.9405949 44.1448681,39.3035838 44.9729825,39.3035838 C45.864798,39.3035838 46.3744069,39.9405949 46.3744069,40.7050082 C46.3744069,41.4694215 45.8010969,42.1064326 44.9729825,42.1064326 C44.081167,42.1064326 43.5715581,41.4057204 43.5715581,40.7050082 M47.1388202,42.0427315 L47.7758313,42.0427315 L47.7758313,37.9658606 L47.1388202,37.9658606 L47.1388202,42.0427315 Z M51.9164033,40.7050082 C51.9164033,40.2591005 51.5978978,39.8768938 51.0882889,39.8768938 C50.6423811,39.8768938 50.3238756,40.2591005 50.3238756,40.7050082 C50.3238756,41.150916 50.6423811,41.5331226 51.0882889,41.5331226 C51.5978978,41.5331226 51.9164033,41.150916 51.9164033,40.7050082 M49.7505656,40.7050082 C49.7505656,39.9405949 50.3238756,39.3035838 51.15199,39.3035838 C52.0438055,39.3035838 52.5534144,39.9405949 52.5534144,40.7050082 C52.5534144,41.4694215 51.9801044,42.1064326 51.15199,42.1064326 C50.2601745,42.1064326 49.7505656,41.4057204 49.7505656,40.7050082 M54.8466543,38.5391705 C54.7829532,38.5391705 54.655551,38.4754694 54.5918498,38.4754694 C54.4007465,38.4754694 54.1459421,38.4754694 54.1459421,38.9213772 L54.1459421,39.3035838 L54.8466543,39.3035838 L54.8466543,39.8131927 L54.1459421,39.8131927 L54.1459421,42.0427315 L53.508931,42.0427315 L53.508931,39.8768938 L52.935621,39.8768938 L52.935621,39.367285 L53.508931,39.367285 L53.508931,39.0487794 C53.508931,38.0295617 54.1459421,37.9658606 54.4644476,37.9658606 C54.655551,37.9658606 54.7829532,38.0295617 54.8466543,38.0295617 C54.8466543,38.0295617 54.8466543,38.5391705 54.8466543,38.5391705 Z M57.9043075,39.0487794 L57.3309975,40.8961116 L58.4776175,40.8961116 L57.9043075,39.0487794 Z M58.8598241,42.0427315 L58.6687208,41.5331226 L57.1398942,41.5331226 L56.9487909,42.0427315 L56.2480787,42.0427315 L57.6495031,37.9658606 L58.0954108,37.9658606 L59.4968352,42.0427315 L58.8598241,42.0427315 Z M60.7071563,40.7050082 C60.7071563,41.150916 61.0256618,41.5331226 61.5352707,41.5331226 C61.9811784,41.5331226 62.299684,41.150916 62.299684,40.7050082 C62.299684,40.2591005 61.9811784,39.8768938 61.5352707,39.8768938 C61.0256618,39.8131927 60.7071563,40.1953994 60.7071563,40.7050082 L60.7071563,40.7050082 Z M60.7071563,39.6857905 C60.8982596,39.4309861 61.2167651,39.2398827 61.5352707,39.2398827 C62.3633851,39.2398827 62.936695,39.8768938 62.936695,40.6413071 C62.936695,41.4057204 62.3633851,42.0427315 61.5352707,42.0427315 C61.2167651,42.0427315 60.8982596,41.8516282 60.7071563,41.5968237 L60.7071563,43.3167537 L60.0701452,43.3167537 L60.0701452,39.2398827 L60.7071563,39.2398827 L60.7071563,39.6857905 L60.7071563,39.6857905 Z M64.2744183,40.7050082 C64.2744183,41.150916 64.5929239,41.5331226 65.1025327,41.5331226 C65.5484405,41.5331226 65.866946,41.150916 65.866946,40.7050082 C65.866946,40.2591005 65.5484405,39.8768938 65.1025327,39.8768938 C64.5929239,39.8131927 64.2744183,40.1953994 64.2744183,40.7050082 Z M64.2744183,39.6857905 C64.4655216,39.4309861 64.7840272,39.2398827 65.1025327,39.2398827 C65.9306471,39.2398827 66.5039571,39.8768938 66.5039571,40.6413071 C66.5039571,41.4057204 65.9306471,42.0427315 65.1025327,42.0427315 C64.7840272,42.0427315 64.4655216,41.8516282 64.2744183,41.5968237 L64.2744183,43.3167537 L63.6374072,43.3167537 L63.6374072,39.2398827 L64.2744183,39.2398827 L64.2744183,39.6857905 Z M67.2046693,42.0427315 L67.8416804,42.0427315 L67.8416804,37.9658606 L67.2046693,37.9658606 L67.2046693,42.0427315 Z M68.7334959,42.0427315 L69.370507,42.0427315 L69.370507,39.367285 L68.7334959,39.367285 L68.7334959,42.0427315 Z M69.0520014,37.9021595 C69.3068059,37.9021595 69.4979092,38.0932628 69.5616103,38.3480672 C69.5616103,38.6028717 69.370507,38.793975 69.1157026,38.8576761 C69.1157026,38.8576761 69.1157026,38.8576761 69.0520014,38.8576761 C68.797197,38.8576761 68.6060937,38.6665728 68.6060937,38.4117683 C68.5423926,38.0932628 68.797197,37.9021595 69.0520014,37.9021595 C69.0520014,37.9021595 69.0520014,37.9021595 69.0520014,37.9021595 L69.0520014,37.9021595 Z M70.7082303,40.3865027 L72.0459535,40.3865027 C72.0459535,40.004296 71.7911491,39.7494916 71.4089425,39.7494916 C70.9630347,39.7494916 70.7082303,39.9405949 70.7082303,40.3865027 L70.7082303,40.3865027 Z M70.7082303,40.8961116 C70.7082303,41.2783182 70.8993336,41.5968237 71.4089425,41.5968237 C71.7911491,41.5968237 71.9185513,41.4057204 71.9822524,41.2146171 L72.6192635,41.2146171 C72.5555624,41.6605249 72.1096546,42.1064326 71.4089425,42.1064326 C70.5171269,42.1064326 70.0712192,41.4694215 70.0712192,40.7050082 C70.0712192,39.8768938 70.580828,39.3035838 71.4089425,39.3035838 C72.1096546,39.3035838 72.6829646,39.8131927 72.6829646,40.5139049 C72.6829646,40.577606 72.6829646,40.7050082 72.6829646,40.8961116 C72.6192635,40.8961116 70.7082303,40.8961116 70.7082303,40.8961116 Z M75.4221123,40.7050082 C75.4221123,40.2591005 75.1036067,39.8768938 74.5939979,39.8768938 C74.1480901,39.8768938 73.8295846,40.2591005 73.8295846,40.7050082 C73.8295846,41.150916 74.1480901,41.5331226 74.5939979,41.5331226 C75.1036067,41.5331226 75.4221123,41.150916 75.4221123,40.7050082 L75.4221123,40.7050082 Z M75.4221123,41.6605249 C75.231009,41.9153293 74.9125034,42.1064326 74.5939979,42.1064326 C73.7658835,42.1064326 73.1925735,41.4694215 73.1925735,40.7050082 C73.1925735,39.9405949 73.7658835,39.3035838 74.5939979,39.3035838 C74.9125034,39.3035838 75.231009,39.4946872 75.4221123,39.7494916 L75.4221123,38.0295617 L76.0591234,38.0295617 L76.0591234,42.0427315 L75.4221123,42.0427315 L75.4221123,41.6605249 L75.4221123,41.6605249 Z M79.4352821,39.0487794 L78.8619721,40.8961116 L80.0085921,40.8961116 L79.4352821,39.0487794 Z M80.3907987,42.0427315 L80.1996954,41.5331226 L78.6708688,41.5331226 L78.4797655,42.0427315 L77.7790533,42.0427315 L79.1804777,37.9658606 L79.6263854,37.9658606 L81.0278098,42.0427315 C81.0915109,42.0427315 80.3907987,42.0427315 80.3907987,42.0427315 Z M83.3210497,39.9405949 C83.2573486,39.9405949 83.1299464,39.9405949 83.0662453,39.9405949 C82.5566364,39.9405949 82.2381309,40.2591005 82.2381309,40.8961116 L82.2381309,42.0427315 L81.6011198,42.0427315 L81.6011198,39.367285 L82.2381309,39.367285 L82.2381309,39.8131927 C82.3655331,39.5583883 82.6840386,39.367285 83.0662453,39.367285 C83.1936475,39.367285 83.2573486,39.367285 83.3210497,39.4309861 C83.3210497,39.3035838 83.3210497,39.9405949 83.3210497,39.9405949 Z M85.5505885,42.0427315 C85.4231863,42.0427315 85.232083,42.1064326 85.1046807,42.1064326 C84.7861752,42.1064326 84.2128652,42.0427315 84.2128652,41.150916 L84.2128652,39.8768938 L83.7669575,39.8768938 L83.7669575,39.367285 L84.2128652,39.367285 L84.2128652,38.5391705 L84.8498763,38.5391705 L84.8498763,39.367285 L85.4868874,39.367285 L85.4868874,39.8768938 L84.8498763,39.8768938 L84.8498763,40.9598127 C84.8498763,41.4057204 84.9772785,41.4694215 85.232083,41.4694215 C85.3594852,41.4694215 85.4868874,41.4694215 85.5505885,41.4694215 L85.5505885,42.0427315 L85.5505885,42.0427315 Z M88.1623339,41.2783182 C88.1623339,41.8516282 87.6527251,42.1064326 87.0794151,42.1064326 C86.5061051,42.1064326 85.9964963,41.7879271 85.9964963,41.150916 L86.6335073,41.150916 C86.6335073,41.5331226 86.8246107,41.6605249 87.1431162,41.6605249 C87.3979206,41.6605249 87.589024,41.5968237 87.589024,41.3420193 C87.589024,41.0872149 87.3342195,41.0872149 86.7609096,40.8324104 C86.3787029,40.7050082 86.1238985,40.577606 86.1238985,40.0679971 C86.1238985,39.5583883 86.5698062,39.3035838 87.1431162,39.3035838 C87.7164262,39.3035838 88.1623339,39.6857905 88.1623339,40.1953994 L87.5253229,40.1953994 C87.5253229,39.9405949 87.3979206,39.7494916 87.0794151,39.7494916 C86.8883118,39.7494916 86.6972085,39.8768938 86.6972085,40.0679971 C86.6972085,40.3228016 86.9520129,40.3228016 87.4616218,40.5139049 C87.7801273,40.6413071 88.1623339,40.7687093 88.1623339,41.2783182 M7.19822524,8.85445406 C7.19822524,7.45302968 6.24270862,6.62491527 4.84128423,6.62491527 C3.50356096,6.62491527 2.42064212,7.38932857 2.42064212,8.85445406 L7.19822524,8.85445406 L7.19822524,8.85445406 Z M4.84128423,4.71388202 C7.38932857,4.71388202 9.42776403,6.62491527 9.42776403,9.10925849 C9.42776403,9.42776403 9.42776403,9.87367179 9.30036182,10.574384 L2.35694101,10.574384 C2.35694101,11.9758084 3.12135431,13.1224283 4.90498534,13.1224283 C6.24270862,13.1224283 6.68861638,12.5491183 7.00712192,11.8484062 L9.30036182,11.8484062 C8.98185628,13.504635 7.45302968,15.0334616 4.90498534,15.0334616 C1.59252771,15.0334616 -5.65779497e-16,12.5491183 -5.65779497e-16,9.87367179 C-5.65779497e-16,6.94342081 1.71992993,4.71388202 4.84128423,4.71388202 L4.84128423,4.71388202 Z M11.4024984,14.7786571 L13.6957383,14.7786571 L13.6957383,4.96868645 L11.4024984,4.96868645 L11.4024984,14.7786571 L11.4024984,14.7786571 Z M12.5491183,0 C13.3772328,0 14.0779449,0.700712192 14.0779449,1.5288266 C14.0779449,1.5288266 14.0779449,1.5288266 14.0779449,1.5288266 C14.0779449,2.35694101 13.3772328,3.0576532 12.5491183,3.0576532 C11.7210039,3.0576532 11.0202917,2.35694101 11.0202917,1.5288266 C11.0202917,0.700712192 11.7210039,0 12.5491183,0 Z M16.1800815,14.7786571 L16.1800815,0.0637011083 L18.4733214,0.0637011083 L18.4733214,9.36406293 L22.1042846,5.03238756 L24.9708345,5.03238756 L20.8939635,9.9373729 L24.9708345,14.8423582 L22.1042846,14.8423582 L18.4733214,10.4469818 L18.4733214,14.7786571 L16.1800815,14.7786571 Z" id="Shape" fill="#FFFFFF" mask="url(#mask-2)"></path>
                        </g>
                        <g id="Clipped">
                            <mask id="mask-4" fill="white">
                                <use xlink:href="#path-3"></use>
                            </mask>
                            <g id="a_00000004535504557588586520000013004947313631421624_"></g>
                            <path d="M30.003222,12.9950261 C31.723152,12.9950261 32.933473,11.5299006 32.933473,9.87367179 C32.933473,8.21744298 31.7868531,6.75231748 30.003222,6.75231748 C28.2832921,6.75231748 27.1366722,8.21744298 27.1366722,9.87367179 C27.1366722,11.5936017 28.2832921,12.9950261 30.003222,12.9950261 M30.003222,4.71388202 C33.1245763,4.71388202 35.2267129,7.07082303 35.2267129,9.87367179 C35.2267129,12.6765206 33.1882774,15.0334616 30.003222,15.0334616 C26.8818677,15.0334616 24.8434323,12.6765206 24.8434323,9.87367179 C24.8434323,7.13452413 26.8818677,4.71388202 30.003222,4.71388202 M36.8829417,14.7786571 L36.8829417,4.96868645 L39.1761816,4.96868645 L39.1761816,6.37011083 C39.8131927,5.28719199 40.8961116,4.71388202 42.361237,4.71388202 C43.7626614,4.71388202 44.7181781,5.22349088 45.291488,6.05160529 C45.8010969,6.81601859 45.9284991,7.58043189 45.9284991,8.98185628 L45.9284991,14.8423582 L43.6352592,14.8423582 L43.6352592,9.74626958 C43.6352592,8.09004076 43.1256503,6.75231748 41.5331226,6.75231748 C39.9405949,6.75231748 39.1761816,8.02633965 39.1761816,9.74626958 L39.1761816,14.8423582 C39.2398827,14.7786571 36.8829417,14.7786571 36.8829417,14.7786571 Z M20.1932513,16.3711848 L0.318505542,16.3711848 L0.318505542,17.4541037 L20.6391591,17.4541037 L20.1932513,16.3711848 Z M21.6583768,16.3711848 L22.1679857,17.4541037 L46.2470047,17.4541037 L46.2470047,16.3711848 L21.6583768,16.3711848 Z" id="Shape" fill="#FFFFFF" mask="url(#mask-4)"></path>
                        </g>
                    </g>
                </g>
            </g>
        </g>
    </g>
</svg>