<?xml version="1.0" encoding="UTF-8"?>
<svg width="53px" height="53px" viewBox="0 0 53 53" version="1.1" xmlns="http://www.w3.org/2000/svg" xmlns:xlink="http://www.w3.org/1999/xlink">
    <title>etat_de_fribourg</title>
    <g id="Page-1" stroke="none" stroke-width="1" fill="none" fill-rule="evenodd">
        <g id="homepage" transform="translate(-132.000000, -2762.000000)" fill="#FFFFFF" fill-rule="nonzero">
            <g id="FOOTER" transform="translate(12.000000, 2578.000000)">
                <g id="etat_de_fribourg" transform="translate(120.000000, 184.377704)">
                    <path d="M0.28588117,24.8751912 L0.28588117,25.9472456 C3.43057404,25.1610723 6.78967778,23.2313744 8.64790538,21.5160874 C9.86290036,20.3725627 10.9349547,19.0146272 11.7925983,17.4422808 C11.7925983,17.4422808 11.8640685,17.3708105 11.8640685,17.2993402 C12.6502418,15.8699343 13.2220041,14.1546473 13.6508259,12.1534791 C14.7943505,6.65026659 13.0790635,1.14705408 12.7217121,0.432351152 C12.2928903,-0.0679408953 11.721128,0.00352939716 11.2923062,0.00352939716 C11.2208359,0.00352939716 11.0778953,0.00352939716 11.006425,0.00352939716 L0.28588117,0.00352939716 L0.28588117,12.5823009 L8.5049648,12.5823009 C8.57643509,12.5823009 8.71937568,12.5823009 8.71937568,12.5823009 C9.00525685,12.6537712 9.21966772,12.7967117 9.21966772,13.0825929 C9.21966772,13.1540632 9.21966772,13.2255335 9.21966772,13.2970038 C9.21966772,15.798464 8.00467275,20.7299142 0.929113802,23.8746071 L0.28588117,24.1604882 L0.28588117,24.8751912 Z" id="Path"></path>
                    <g id="Group" transform="translate(0.000000, 31.879280)">
                        <polygon id="Path" points="0.28588117 0.0714702924 3.07322257 0.0714702924 3.07322257 0.500292047 0.857643509 0.500292047 0.857643509 1.78675731 2.93028199 1.78675731 2.93028199 2.21557907 0.857643509 2.21557907 0.857643509 3.57351462 3.07322257 3.57351462 3.07322257 4.00233638 0.28588117 4.00233638"></polygon>
                        <polygon id="Path" points="4.7170393 0.500292047 3.43057404 0.500292047 3.43057404 0.0714702924 6.6467372 0.0714702924 6.6467372 0.500292047 5.28880164 0.500292047 5.28880164 4.07380667 4.7170393 4.07380667"></polygon>
                        <path d="M7.71879158,0.0714702924 L8.29055392,0.0714702924 L9.86290036,4.07380667 L9.29113802,4.07380667 L8.86231626,2.8588117 L7.14702924,2.8588117 L6.71820749,4.07380667 L6.14644515,4.07380667 L7.71879158,0.0714702924 Z M7.28996983,2.42998994 L8.64790538,2.42998994 L8.00467275,0.571762339 L8.00467275,0.571762339 L7.28996983,2.42998994 Z" id="Shape"></path>
                        <polygon id="Path" points="10.7920142 0.500292047 9.4340786 0.500292047 9.4340786 0.0714702924 12.6502418 0.0714702924 12.6502418 0.500292047 11.2923062 0.500292047 11.2923062 4.07380667 10.7920142 4.07380667"></polygon>
                        <path d="M14.8658208,0.0714702924 L16.2237564,0.0714702924 C17.4387514,0.0714702924 18.1534543,0.714702924 18.1534543,2.00116819 C18.1534543,3.35910374 17.5816919,4.07380667 16.2237564,4.07380667 L14.8658208,4.07380667 L14.8658208,0.0714702924 Z M15.3661129,3.64498491 L16.2237564,3.64498491 C16.5811078,3.64498491 17.5816919,3.57351462 17.5816919,2.07263848 C17.5816919,1.14352468 17.2243405,0.571762339 16.2237564,0.571762339 L15.2946426,0.571762339 L15.2946426,3.64498491 L15.3661129,3.64498491 Z" id="Shape"></path>
                        <polygon id="Path" points="18.8681572 0.0714702924 21.6554986 0.0714702924 21.6554986 0.500292047 19.4399195 0.500292047 19.4399195 1.78675731 21.512558 1.78675731 21.512558 2.21557907 19.4399195 2.21557907 19.4399195 3.57351462 21.6554986 3.57351462 21.6554986 4.00233638 18.8681572 4.00233638 18.8681572 0.0714702924"></polygon>
                        <polygon id="Path" points="24.0854885 0.0714702924 26.7298894 0.0714702924 26.7298894 0.500292047 24.6572509 0.500292047 24.6572509 1.78675731 26.5154785 1.78675731 26.5154785 2.21557907 24.6572509 2.21557907 24.6572509 4.07380667 24.1569588 4.07380667 24.1569588 0.0714702924"></polygon>
                        <path d="M27.373122,0.0714702924 L29.2313496,0.0714702924 C29.9460525,0.0714702924 30.4463446,0.500292047 30.4463446,1.14352468 C30.4463446,1.64381673 30.2319337,2.00116819 29.7316417,2.14410877 L29.7316417,2.14410877 C30.2319337,2.21557907 30.303404,2.57293053 30.303404,3.00175228 C30.303404,3.35910374 30.303404,3.85939579 30.5178149,4.07380667 L29.9460525,4.07380667 C29.8031119,3.93086608 29.8745822,3.50204433 29.8031119,3.07322257 C29.7316417,2.71587111 29.6601714,2.35851965 29.1598793,2.35851965 L27.9448843,2.35851965 L27.9448843,4.07380667 L27.4445923,4.07380667 L27.4445923,0.0714702924 L27.373122,0.0714702924 Z M29.0169387,1.9296979 C29.5172308,1.9296979 29.9460525,1.78675731 29.9460525,1.21499497 C29.9460525,0.857643509 29.7316417,0.500292047 29.2313496,0.500292047 L27.9448843,0.500292047 L27.9448843,1.8582276 L29.0169387,1.8582276 L29.0169387,1.9296979 Z" id="Shape"></path>
                        <polygon id="Path" points="31.3754584 0.0714702924 31.8757504 0.0714702924 31.8757504 4.07380667 31.3754584 4.07380667"></polygon>
                        <path d="M32.8763345,0.0714702924 L34.3057404,0.0714702924 C34.6630918,0.0714702924 35.0919136,0.0714702924 35.3777948,0.214410877 C35.6636759,0.357351462 35.8780868,0.643232632 35.8780868,1.07205439 C35.8780868,1.50087614 35.6636759,1.78675731 35.3063245,2.00116819 L35.3063245,2.00116819 C35.8066165,2.07263848 36.0924977,2.50146024 36.0924977,2.93028199 C36.0924977,3.50204433 35.6636759,4.07380667 34.8775027,4.07380667 L32.9478048,4.07380667 L32.9478048,0.0714702924 L32.8763345,0.0714702924 Z M33.4480969,1.78675731 L34.5201512,1.78675731 C35.0919136,1.78675731 35.3777948,1.57234643 35.3777948,1.14352468 C35.3777948,0.571762339 35.0204433,0.500292047 34.5201512,0.500292047 L33.4480969,0.500292047 L33.4480969,1.78675731 Z M33.4480969,3.64498491 L34.8060324,3.64498491 C35.2348542,3.64498491 35.5207353,3.35910374 35.5207353,2.93028199 C35.5207353,2.42998994 35.0919136,2.28704936 34.6630918,2.28704936 L33.4480969,2.28704936 L33.4480969,3.64498491 L33.4480969,3.64498491 Z" id="Shape"></path>
                        <path d="M38.5224876,-5.07826971e-15 C39.8089529,-5.07826971e-15 40.4521855,1.00058409 40.4521855,2.07263848 C40.4521855,3.14469287 39.8089529,4.14527696 38.5224876,4.14527696 C37.2360224,4.14527696 36.5927897,3.14469287 36.5927897,2.07263848 C36.5927897,1.00058409 37.2360224,-5.07826971e-15 38.5224876,-5.07826971e-15 Z M38.5224876,3.71645521 C39.5230717,3.71645521 39.8804232,2.8588117 39.8804232,2.07263848 C39.8804232,1.28646526 39.4516014,0.428821755 38.5224876,0.428821755 C37.5219035,0.428821755 37.1645521,1.28646526 37.1645521,2.07263848 C37.1645521,2.8588117 37.5219035,3.71645521 38.5224876,3.71645521 Z" id="Shape"></path>
                        <path d="M44.3830516,2.64440082 C44.3830516,3.64498491 43.8112893,4.21674725 42.8107052,4.21674725 C41.8101211,4.21674725 41.1668884,3.71645521 41.1668884,2.64440082 L41.1668884,0.0714702924 L41.6671805,0.0714702924 L41.6671805,2.64440082 C41.6671805,3.35910374 42.0960022,3.71645521 42.7392349,3.71645521 C43.3824675,3.71645521 43.8112893,3.35910374 43.8112893,2.64440082 L43.8112893,0.0714702924 L44.3830516,0.0714702924 L44.3830516,2.64440082 Z" id="Path"></path>
                        <path d="M45.3121654,0.0714702924 L47.2418633,0.0714702924 C47.9565662,0.0714702924 48.4568583,0.500292047 48.4568583,1.14352468 C48.4568583,1.64381673 48.2424474,2.00116819 47.7421553,2.14410877 L47.7421553,2.14410877 C48.2424474,2.21557907 48.3139177,2.57293053 48.3139177,3.00175228 C48.3139177,3.35910374 48.3139177,3.85939579 48.5283286,4.07380667 L47.9565662,4.07380667 C47.8136256,3.93086608 47.8850959,3.50204433 47.8136256,3.07322257 C47.7421553,2.71587111 47.6706851,2.35851965 47.170393,2.35851965 L45.8839277,2.35851965 L45.8839277,4.07380667 L45.3836357,4.07380667 L45.3836357,0.0714702924 L45.3121654,0.0714702924 Z M46.9559821,1.9296979 C47.4562742,1.9296979 47.8850959,1.78675731 47.8850959,1.21499497 C47.8850959,0.857643509 47.6706851,0.500292047 47.170393,0.500292047 L45.8839277,0.500292047 L45.8839277,1.8582276 L46.9559821,1.8582276 L46.9559821,1.9296979 Z" id="Shape"></path>
                        <path d="M52.2447838,3.57351462 C51.9589026,4.00233638 51.4586106,4.14527696 50.9583185,4.14527696 C49.7433235,4.14527696 49.0286206,3.14469287 49.0286206,2.14410877 C49.0286206,1.00058409 49.6718532,-5.07826971e-15 50.9583185,-5.07826971e-15 C51.815962,-5.07826971e-15 52.5306649,0.357351462 52.6736055,1.35793556 L52.1733135,1.35793556 C52.1018432,0.786173217 51.6015511,0.500292047 50.9583185,0.500292047 C49.9577344,0.500292047 49.6003829,1.35793556 49.6003829,2.21557907 C49.6003829,3.07322257 50.100675,3.7879255 50.9583185,3.7879255 C51.815962,3.7879255 52.2447838,3.21616316 52.2447838,2.50146024 L50.9583185,2.50146024 L50.9583185,2.07263848 L52.6736055,2.07263848 L52.6736055,4.14527696 L52.3162541,4.14527696 L52.2447838,3.57351462 Z" id="Path"></path>
                        <path d="M2.57293053,9.21966772 C2.50146024,8.64790538 2.14410877,8.43349451 1.57234643,8.43349451 C1.14352468,8.43349451 0.643232632,8.57643509 0.643232632,9.14819743 C0.643232632,9.64848948 1.28646526,9.71995977 1.9296979,9.86290036 C2.57293053,10.0058409 3.21616316,10.2202518 3.21616316,11.006425 C3.21616316,11.8640685 2.35851965,12.22142 1.64381673,12.22142 C0.714702924,12.22142 1.26956743e-15,11.7925983 1.26956743e-15,10.7920142 L0.500292047,10.7920142 C0.500292047,11.4352468 1.07205439,11.721128 1.64381673,11.721128 C2.14410877,11.721128 2.64440082,11.5781874 2.64440082,11.006425 C2.64440082,10.4346627 2.00116819,10.3631924 1.35793556,10.2202518 C0.714702924,10.0773112 0.0714702924,9.86290036 0.0714702924,9.14819743 C0.0714702924,8.36202421 0.786173217,8.00467275 1.50087614,8.00467275 C2.28704936,8.00467275 2.93028199,8.36202421 3.00175228,9.29113802 L2.57293053,9.29113802 L2.57293053,9.21966772 Z" id="Path"></path>
                        <polygon id="Path" points="4.7170393 8.5049648 3.35910374 8.5049648 3.35910374 8.07614304 6.5752669 8.07614304 6.5752669 8.5049648 5.21733135 8.5049648 5.21733135 12.0784794 4.7170393 12.0784794"></polygon>
                        <path d="M7.71879158,8.07614304 L8.29055392,8.07614304 L9.86290036,12.0784794 L9.29113802,12.0784794 L8.86231626,10.8634844 L7.14702924,10.8634844 L6.71820749,12.0784794 L6.14644515,12.0784794 L7.71879158,8.07614304 Z M7.28996983,10.4346627 L8.64790538,10.4346627 L8.00467275,8.57643509 L8.00467275,8.57643509 L7.28996983,10.4346627 Z" id="Shape"></path>
                        <path d="M11.4352468,8.07614304 L12.0070091,8.07614304 L13.5793556,12.0784794 L13.0075932,12.0784794 L12.5787715,10.8634844 L10.8634844,10.8634844 L10.4346627,12.0784794 L9.86290036,12.0784794 L11.4352468,8.07614304 Z M11.006425,10.4346627 L12.3643606,10.4346627 L11.721128,8.57643509 L11.721128,8.57643509 L11.006425,10.4346627 Z" id="Shape"></path>
                        <polygon id="Path" points="14.5084694 8.5049648 13.1505338 8.5049648 13.1505338 8.07614304 16.366697 8.07614304 16.366697 8.5049648 15.0087614 8.5049648 15.0087614 12.0784794 14.5084694 12.0784794 14.5084694 8.5049648"></polygon>
                        <polygon id="Path" points="18.582276 8.07614304 21.2266769 8.07614304 21.2266769 8.5049648 19.1540384 8.5049648 19.1540384 9.79143006 21.012266 9.79143006 21.012266 10.2202518 19.1540384 10.2202518 19.1540384 12.0784794 18.6537463 12.0784794 18.6537463 8.07614304"></polygon>
                        <path d="M21.8699095,8.07614304 L23.7281371,8.07614304 C24.44284,8.07614304 24.9431321,8.5049648 24.9431321,9.14819743 C24.9431321,9.64848948 24.7287212,10.0058409 24.2284291,10.1487815 L24.2284291,10.1487815 C24.6572509,10.2202518 24.8001915,10.5776033 24.8001915,11.006425 C24.8001915,11.3637765 24.8001915,11.8640685 25.0146024,12.0784794 L24.44284,12.0784794 C24.2998994,11.9355388 24.3713697,11.5067171 24.2998994,11.0778953 C24.2284291,10.7205439 24.1569588,10.3631924 23.6566668,10.3631924 L22.3702015,10.3631924 L22.3702015,12.0784794 L21.8699095,12.0784794 L21.8699095,8.07614304 Z M23.5137262,9.93437065 C24.0140183,9.93437065 24.44284,9.79143006 24.44284,9.21966772 C24.44284,8.86231626 24.2284291,8.5049648 23.7281371,8.5049648 L22.4416718,8.5049648 L22.4416718,9.86290036 L23.5137262,9.86290036 L23.5137262,9.93437065 Z" id="Shape"></path>
                        <polygon id="Path" points="25.8007756 8.07614304 28.588117 8.07614304 28.588117 8.5049648 26.3725379 8.5049648 26.3725379 9.79143006 28.4451764 9.79143006 28.4451764 10.2202518 26.3725379 10.2202518 26.3725379 11.5781874 28.588117 11.5781874 28.588117 12.0070091 25.8007756 12.0070091"></polygon>
                        <polygon id="Path" points="29.3742902 8.07614304 29.8745822 8.07614304 29.8745822 12.0784794 29.3742902 12.0784794"></polygon>
                        <path d="M30.8751663,8.07614304 L32.3045722,8.07614304 C32.6619236,8.07614304 33.0907454,8.07614304 33.3766266,8.21908363 C33.6625077,8.36202421 33.8769186,8.64790538 33.8769186,9.07672714 C33.8769186,9.50554889 33.6625077,9.79143006 33.3051563,10.0058409 L33.3051563,10.0058409 C33.8054483,10.0773112 34.0913295,10.506133 34.0913295,10.9349547 C34.0913295,11.5067171 33.6625077,12.0784794 32.8763345,12.0784794 L30.9466366,12.0784794 L30.9466366,8.07614304 L30.8751663,8.07614304 Z M31.4469287,9.79143006 L32.5189831,9.79143006 C33.0907454,9.79143006 33.3766266,9.57701919 33.3766266,9.14819743 C33.3766266,8.57643509 33.0192751,8.5049648 32.5189831,8.5049648 L31.4469287,8.5049648 L31.4469287,9.79143006 Z M31.4469287,11.6496577 L32.8048642,11.6496577 C33.233686,11.6496577 33.5195672,11.3637765 33.5195672,10.9349547 C33.5195672,10.4346627 33.0907454,10.2917221 32.6619236,10.2917221 L31.4469287,10.2917221 L31.4469287,11.6496577 L31.4469287,11.6496577 Z" id="Shape"></path>
                        <path d="M38.0221956,10.6490736 C38.0221956,11.6496577 37.4504332,12.22142 36.4498491,12.22142 C35.449265,12.22142 34.8060324,11.721128 34.8060324,10.6490736 L34.8060324,8.07614304 L35.3063245,8.07614304 L35.3063245,10.6490736 C35.3063245,11.3637765 35.7351462,11.721128 36.3783788,11.721128 C37.0216115,11.721128 37.4504332,11.3637765 37.4504332,10.6490736 L37.4504332,8.07614304 L37.9507253,8.07614304 L37.9507253,10.6490736 L38.0221956,10.6490736 Z" id="Path"></path>
                        <path d="M38.9513094,8.07614304 L40.809537,8.07614304 C41.5242399,8.07614304 42.024532,8.5049648 42.024532,9.14819743 C42.024532,9.64848948 41.8101211,10.0058409 41.309829,10.1487815 L41.309829,10.1487815 C41.7386508,10.2202518 41.8815914,10.5776033 41.8815914,11.006425 C41.8815914,11.3637765 41.8815914,11.8640685 42.0960022,12.0784794 L41.5242399,12.0784794 C41.3812993,11.9355388 41.4527696,11.5067171 41.3812993,11.0778953 C41.309829,10.7205439 41.2383587,10.3631924 40.7380667,10.3631924 L39.4516014,10.3631924 L39.4516014,12.0784794 L38.9513094,12.0784794 L38.9513094,8.07614304 Z M40.5951261,9.93437065 C41.0954181,9.93437065 41.5242399,9.79143006 41.5242399,9.21966772 C41.5242399,8.86231626 41.309829,8.5049648 40.809537,8.5049648 L39.5230717,8.5049648 L39.5230717,9.86290036 L40.5951261,9.86290036 L40.5951261,9.93437065 Z" id="Shape"></path>
                        <path d="M45.8839277,11.5781874 C45.5980466,12.0070091 45.0977545,12.1499497 44.5974625,12.1499497 C43.3824675,12.1499497 42.6677646,11.1493656 42.6677646,10.1487815 C42.6677646,9.00525685 43.3109972,8.00467275 44.5974625,8.00467275 C45.455106,8.00467275 46.1698089,8.36202421 46.3127495,9.36260831 L45.8124574,9.36260831 C45.7409872,8.79084597 45.2406951,8.5049648 44.5974625,8.5049648 C43.5968784,8.5049648 43.2395269,9.36260831 43.2395269,10.2202518 C43.2395269,11.0778953 43.739819,11.7925983 44.5974625,11.7925983 C45.455106,11.7925983 45.8839277,11.2208359 45.8839277,10.506133 L44.5974625,10.506133 L44.5974625,10.0773112 L46.3127495,10.0773112 L46.3127495,12.1499497 L45.955398,12.1499497 L45.8839277,11.5781874 Z" id="Path"></path>
                        <polygon id="Path" points="2.7873414 20.0831522 2.42998994 20.0831522 1.78675731 17.7961028 1.78675731 17.7961028 1.14352468 20.0831522 0.786173217 20.0831522 0.0714702924 17.3672811 0.428821755 17.3672811 1.00058409 19.5828601 1.00058409 19.5828601 1.64381673 17.2958108 2.07263848 17.2958108 2.57293053 19.5828601 2.57293053 19.5828601 3.14469287 17.2958108 3.50204433 17.2958108"></polygon>
                        <polygon id="Path" points="6.43232632 20.0831522 6.07497486 20.0831522 5.43174222 17.7961028 5.43174222 17.7961028 4.78850959 20.0831522 4.43115813 20.0831522 3.71645521 17.3672811 4.07380667 17.3672811 4.64556901 19.5828601 4.64556901 19.5828601 5.28880164 17.2958108 5.71762339 17.2958108 6.21791544 19.5828601 6.21791544 19.5828601 6.78967778 17.2958108 7.14702924 17.2958108"></polygon>
                        <polygon id="Path" points="10.0773112 20.0831522 9.71995977 20.0831522 9.07672714 17.7961028 9.07672714 17.7961028 8.43349451 20.0831522 8.07614304 20.0831522 7.36144012 17.3672811 7.71879158 17.3672811 8.29055392 19.6543304 8.29055392 19.6543304 8.93378655 17.3672811 9.36260831 17.3672811 9.93437065 19.6543304 9.93437065 19.6543304 10.506133 17.3672811 10.7920142 17.3672811"></polygon>
                        <polygon id="Path" points="10.9349547 19.6543304 11.3637765 19.6543304 11.3637765 20.0831522 10.9349547 20.0831522"></polygon>
                        <polygon id="Path" points="12.0784794 17.2958108 13.8652367 17.2958108 13.8652367 17.5816919 12.4358309 17.5816919 12.4358309 18.4393354 13.7222961 18.4393354 13.7222961 18.7252166 12.4358309 18.7252166 12.4358309 20.0116819 12.0784794 20.0116819"></polygon>
                        <path d="M14.3655288,17.2958108 L15.651994,17.2958108 C16.1522861,17.2958108 16.5096376,17.5816919 16.5096376,18.0105137 C16.5096376,18.3678652 16.366697,18.582276 16.0093455,18.7252166 L16.0093455,18.7252166 C16.2952267,18.7966869 16.366697,19.0110978 16.4381673,19.296979 C16.4381673,19.5828601 16.4381673,19.8687413 16.5811078,20.0831522 L16.1522861,20.0831522 C16.0808158,19.9402116 16.0808158,19.6543304 16.0808158,19.4399195 C16.0093455,19.1540384 16.0093455,18.9396275 15.651994,18.9396275 L14.7943505,18.9396275 L14.7943505,20.0831522 L14.3655288,20.0831522 L14.3655288,17.2958108 Z M15.5090535,18.582276 C15.8664049,18.582276 16.1522861,18.5108057 16.1522861,18.081984 C16.1522861,17.7961028 16.0093455,17.5816919 15.651994,17.5816919 L14.7228802,17.5816919 L14.7228802,18.5108057 L15.5090535,18.5108057 L15.5090535,18.582276 Z" id="Shape"></path>
                        <polygon id="Path" points="17.0813999 19.6543304 17.5102216 19.6543304 17.5102216 20.0831522 17.0813999 20.0831522"></polygon>
                        <path d="M20.1546225,18.1534543 C20.0831522,17.7961028 19.797271,17.5816919 19.3684492,17.5816919 C18.7252166,17.5816919 18.4393354,18.1534543 18.4393354,18.7252166 C18.4393354,19.3684492 18.7252166,19.8687413 19.3684492,19.8687413 C19.8687413,19.8687413 20.1546225,19.5113898 20.1546225,19.0825681 L20.5119739,19.0825681 C20.4405036,19.797271 20.0116819,20.1546225 19.296979,20.1546225 C18.4393354,20.1546225 18.0105137,19.5113898 18.0105137,18.7252166 C18.0105137,17.9390434 18.4393354,17.2958108 19.296979,17.2958108 C19.8687413,17.2958108 20.3690333,17.5816919 20.4405036,18.1534543 L20.1546225,18.1534543 Z" id="Path"></path>
                        <polygon id="Path" points="21.0837363 17.2958108 21.4410877 17.2958108 21.4410877 18.4393354 22.8704936 18.4393354 22.8704936 17.2958108 23.227845 17.2958108 23.227845 20.0116819 22.8704936 20.0116819 22.8704936 18.7252166 21.4410877 18.7252166 21.4410877 20.0116819 21.0837363 20.0116819"></polygon>
                    </g>
                </g>
            </g>
        </g>
    </g>
</svg>