<?xml version="1.0" encoding="UTF-8"?>
<svg width="93px" height="34px" viewBox="0 0 93 34" version="1.1" xmlns="http://www.w3.org/2000/svg" xmlns:xlink="http://www.w3.org/1999/xlink">
    <title>fri-son</title>
    <g id="Page-1" stroke="none" stroke-width="1" fill="none" fill-rule="evenodd">
        <g id="homepage" transform="translate(-204.000000, -2772.000000)" fill="#FFFFFF" fill-rule="nonzero">
            <g id="FOOTER" transform="translate(12.000000, 2578.000000)">
                <g id="fri-son" transform="translate(192.300758, 194.821146)">
                    <g id="Group">
                        <path d="M62.8937875,12.6139761 C58.5945348,12.6139761 54.9709978,15.3778474 53.6209529,19.2098303 C52.9078002,17.2030193 51.5762428,15.4850745 49.845819,14.3101981 C48.4241353,13.3419188 47.4826627,11.7261171 47.4826627,9.89077707 C47.4826627,6.97854407 49.8804829,4.60244664 52.8139765,4.60244664 L52.8139765,0.0434454694 C47.3786709,0.0434454694 42.9310565,4.42958913 42.9310565,9.89123926 C42.9310565,13.290154 44.6503879,16.2934376 47.2598892,18.0742396 L47.2598892,18.0811724 C48.6898922,19.0392837 49.6304404,20.6661779 49.6304404,22.5066019 C49.6304404,25.414213 47.2326202,27.7935458 44.3005132,27.7935458 C41.3831961,27.7935458 39.0131071,25.414213 39.0131071,22.5066019 L34.4527194,22.5066019 C34.4522572,27.9229578 38.880922,32.3530091 44.2995888,32.3530091 C48.5937575,32.3530091 52.2616644,29.6085496 53.6200286,25.7677852 C54.9746953,29.5932974 58.6255013,32.3530091 62.8937875,32.3530091 C68.3355637,32.3530091 72.7841024,27.9659411 72.7841024,22.5052153 C72.7845646,17.0454139 68.3522024,12.6139761 62.8937875,12.6139761 M62.8937875,27.7930836 C59.9847898,27.7930836 57.6073059,25.4132887 57.6073059,22.5056775 C57.6073059,19.5717218 59.9857142,17.1752882 62.8937875,17.1752882 C65.8272811,17.1752882 68.2237147,19.5731083 68.2237147,22.5056775 C68.2237147,25.4128265 65.8272811,27.7930836 62.8937875,27.7930836" id="Shape"></path>
                        <path d="M87.9632099,31.9120838 L92.584144,31.9120838 L92.584144,22.5052153 C92.584144,17.0454139 88.0940085,12.6130517 82.6767282,12.6130517 C77.2146159,12.6130517 72.7841024,17.0454139 72.7841024,22.5052153 L72.7841024,31.9222519 L77.3463389,31.9222519 L77.3463389,22.5052153 C77.3463389,19.5976042 79.7432347,17.174826 82.6767282,17.174826 C85.5838772,17.174826 87.9632099,19.5976042 87.9632099,22.5052153 L87.9632099,31.9120838 L87.9632099,31.9120838 Z" id="Path"></path>
                        <path d="M26.6713585,12.1952357 L26.6713585,12.1952357 C23.6398816,12.1952357 20.9185313,13.5891882 19.1076872,15.7628482 C17.2982296,13.588726 14.5680978,12.1952357 11.5361587,12.1952357 L10.310904,12.1952357 L10.310904,9.84779379 C10.310904,6.94018264 12.7077998,4.56177429 15.6417555,4.56177429 L15.6417555,0 C10.20645,0 5.75005409,4.38891678 5.75005409,9.84779379 L5.75005409,12.1952357 L0,12.1952357 L0,16.7556234 L5.75005409,16.7556234 L5.75005409,31.9481343 L10.310904,31.9481343 L10.310904,16.7556234 L11.5361587,16.7556234 C14.4520892,16.7556234 16.8226404,19.1275612 16.8226404,22.0430295 L16.8226404,31.9268738 L21.3848768,31.9268738 L21.3848768,22.0430295 C21.3848768,19.127099 23.7637474,16.7556234 26.6713585,16.7556234 L27.8984619,16.7556234 L27.8984619,31.9268738 L32.4579253,31.9268738 L32.4579253,12.1952357 L26.6713585,12.1952357 Z" id="Path"></path>
                        <polygon id="Path" points="41.6896254 12.1952357 34.4314589 16.7556234 34.4314589 21.4306332 41.6896254 16.9844054"></polygon>
                    </g>
                    <rect id="Rectangle" x="27.8970754" y="0.0452942128" width="4.55946336" height="10.9223759"></rect>
                </g>
            </g>
        </g>
    </g>
</svg>