<?xml version="1.0" encoding="UTF-8"?>
<svg width="209px" height="78px" viewBox="0 0 209 78" version="1.1" xmlns="http://www.w3.org/2000/svg" xmlns:xlink="http://www.w3.org/1999/xlink">
    <title>logo-eikon1</title>
    <defs>
        <polygon id="path-1" points="0 0 39.9132675 0 39.9132675 65.6971991 0 65.6971991"></polygon>
        <polygon id="path-3" points="0 0 92.7178133 0 92.7178133 4.23862401 0 4.23862401"></polygon>
        <polygon id="path-5" points="0 0 112.674447 0 112.674447 4.23862401 0 4.23862401"></polygon>
    </defs>
    <g id="Page-1" stroke="none" stroke-width="1" fill="none" fill-rule="evenodd">
        <g id="homepage" transform="translate(-814.000000, -1612.000000)">
            <g id="EXPO" transform="translate(-1.000000, 1157.000000)">
                <g id="logo-eikon1" transform="translate(815.000000, 455.201000)">
                    <path d="M21.3689192,19.9829545 C32.6711308,19.9829545 41.5023341,28.8141578 41.5023341,40.1163695 C41.5023341,41.7054361 41.5023341,43.6480651 40.9719905,46.6513813 L10.2434887,46.6513813 C10.2434887,53.0076478 13.4216219,58.3071554 21.5457004,58.3071554 C27.3735874,58.3071554 29.4929976,55.6574016 30.7285018,52.4792684 L40.9719905,52.4792684 C39.5597051,60.2497844 32.6711308,67.1363945 21.5457004,67.1363945 C7.06339124,67.1363945 0,55.6574016 0,43.4712839 C0,30.049662 7.77051606,19.9829545 21.3689192,19.9829545 L21.3689192,19.9829545 Z M31.6124078,38.878901 C31.6124078,32.6994158 27.3735874,28.6373766 21.192138,28.6373766 C15.1874697,28.6373766 10.5950869,32.1690722 10.5950869,38.878901 L31.6124078,38.878901 Z" id="Fill-1" fill="#FFFFFF"></path>
                    <path d="M57.0431698,0 C61.1052091,0 64.2833423,3.00135201 64.2833423,6.88857427 C64.2833423,10.5970511 61.1052091,13.5984031 57.0431698,13.5984031 C53.1579118,13.5984031 49.9797786,10.5970511 49.9797786,6.88857427 C49.9797786,3.00135201 53.1579118,0 57.0431698,0 L57.0431698,0 Z M51.7456264,65.6977883 L62.5174945,65.6977883 L62.5174945,22.076044 L51.7456264,22.076044 L51.7456264,65.6977883 Z" id="Fill-3" fill="#FFFFFF"></path>
                    <g id="Group-7" transform="translate(72.761180, 0.000000)">
                        <mask id="mask-2" fill="white">
                            <use xlink:href="#path-1"></use>
                        </mask>
                        <g id="Clip-6"></g>
                        <polygon id="Fill-5" fill="#FFFFFF" mask="url(#mask-2)" points="0 65.6971991 0 -0.000589270682 10.4202699 -0.000589270682 10.4202699 41.3249636 27.020025 21.8986735 39.9132675 21.8986735 21.3689192 43.7979363 39.9132675 65.6971991 27.020025 65.6971991 10.4202699 46.4476901 10.4202699 65.6971991"></polygon>
                    </g>
                    <path d="M134.043366,19.9564373 C148.702457,19.9564373 158.415602,30.7302696 158.415602,43.4447667 C158.415602,56.161228 148.702457,67.1098773 134.043366,67.1098773 C119.384276,67.1098773 109.847912,56.3380092 109.847912,43.6215479 C109.847912,30.9050866 119.561057,19.9564373 134.043366,19.9564373 M134.043366,57.7502946 C142.167445,57.7502946 147.641769,51.2152828 147.641769,43.4447667 C147.641769,35.6742507 142.167445,29.1392388 134.043366,29.1392388 C125.919288,29.1392388 120.621744,35.6742507 120.621744,43.4447667 C120.621744,51.2152828 125.919288,57.7502946 134.043366,57.7502946" id="Fill-8" fill="#FFFFFF"></path>
                    <path d="M164.066315,65.6971991 L164.066315,21.1935129 L174.486585,21.1935129 L174.486585,27.3729981 C177.311155,22.4290171 182.433882,19.9560445 189.143711,19.9560445 C195.678722,19.9560445 199.917543,22.2522359 202.567297,25.9607127 C204.861524,29.3156272 205.391868,33.0260682 205.391868,39.2055534 L205.391868,65.6971991 L194.971598,65.6971991 L194.971598,42.7392133 C194.971598,35.1435142 192.67737,29.3156272 185.258453,29.3156272 C178.01828,29.3156272 174.486585,35.1435142 174.486585,42.7392133 L174.486585,65.6971991 L164.066315,65.6971991 Z" id="Fill-10" fill="#FFFFFF"></path>
                    <g id="Group-14" transform="translate(1.412875, 72.761376)">
                        <mask id="mask-4" fill="white">
                            <use xlink:href="#path-3"></use>
                        </mask>
                        <g id="Clip-13"></g>
                        <polygon id="Fill-12" fill="#FFFFFF" mask="url(#mask-4)" points="90.5984031 0 0 0 0 4.23882044 92.7178133 4.23882044"></polygon>
                    </g>
                    <g id="Group-17" transform="translate(95.719951, 72.761376)">
                        <mask id="mask-6" fill="white">
                            <use xlink:href="#path-5"></use>
                        </mask>
                        <g id="Clip-16"></g>
                        <polygon id="Fill-15" fill="#FFFFFF" mask="url(#mask-6)" points="0 0 2.11941022 4.23882044 112.674447 4.23882044 112.674447 0"></polygon>
                    </g>
                </g>
            </g>
        </g>
    </g>
</svg>