<?xml version="1.0" encoding="UTF-8"?>
<svg width="94px" height="34px" viewBox="0 0 94 34" version="1.1" xmlns="http://www.w3.org/2000/svg" xmlns:xlink="http://www.w3.org/1999/xlink">
    <title>lotterie_romande_black</title>
    <g id="Page-1" stroke="none" stroke-width="1" fill="none" fill-rule="evenodd">
        <g id="homepage" transform="translate(-316.000000, -2772.000000)" fill="#FFFFFF" fill-rule="nonzero">
            <g id="FOOTER" transform="translate(12.000000, 2578.000000)">
                <g id="lotterie_romande_black" transform="translate(304.768604, 194.821146)">
                    <path d="M6.79478683,14.7193093 C6.79478683,11.1336266 9.67643137,8.20286314 13.2293681,8.20286314 C16.7823048,8.20286314 19.6803223,11.1336266 19.6803223,14.7193093 C19.6803223,18.304992 16.7823048,21.2194508 13.2293681,21.2194508 C9.69280435,21.2357555 6.79478683,18.304992 6.79478683,14.7193093 Z M92.8184255,0 L92.8184255,32.3530091 L0,32.3530091 L0,0 L92.8184255,0 Z M3.06174732,12.6399408 C3.06174732,18.272246 7.61343585,22.8403076 13.2457411,22.8403076 C18.8780463,22.8403076 23.4297348,18.272246 23.4297348,12.6399408 C23.4297348,6.9912626 18.8780463,2.42320109 13.2457411,2.42320109 C7.61343585,2.42320109 3.06174732,6.9912626 3.06174732,12.6399408 Z M0.704038154,5.2393537 C1.75190889,3.43832587 3.19273116,1.89926572 4.87914814,0.704038154 L0.704038154,0.704038154 L0.704038154,5.2393537 Z M92.1143873,0.704038154 L21.612334,0.704038154 C25.3617465,3.34008799 27.8013206,7.69530075 27.8013206,12.6399408 C27.8013206,20.6954471 21.2848744,27.2282663 13.2457411,27.2282663 C7.9081495,27.2282663 3.2418501,24.3466217 0.704038154,20.0405279 L0.704038154,31.648971 L92.1143873,31.648971 L92.1143873,0.704038154 Z M41.2926564,6.53281915 L43.8632143,6.53281915 L43.8632143,11.9195297 L46.3846533,11.9195297 L46.3846533,14.113509 L41.2926564,14.113509 L41.2926564,6.53281915 L41.2926564,6.53281915 Z M47.3179131,10.2822316 C47.3179131,9.67643137 47.432524,9.11975004 47.6453727,8.62856063 C47.8582215,8.13737122 48.1529351,7.72804671 48.5295137,7.38421413 C48.9060922,7.04038154 49.3481627,6.77841385 49.8720981,6.59831107 C50.3796605,6.41820829 50.9363418,6.3199704 51.5421421,6.3199704 C52.1479423,6.3199704 52.7046237,6.41820829 53.2121861,6.59831107 C53.7197484,6.77841385 54.1781919,7.05675452 54.5547704,7.38421413 C54.931349,7.72804671 55.2260626,8.13737122 55.4389114,8.62856063 C55.6517601,9.11975004 55.766371,9.67643137 55.766371,10.2822316 C55.766371,10.8880319 55.6517601,11.4447132 55.4389114,11.9522756 C55.2260626,12.459838 54.931349,12.8855355 54.5547704,13.2293681 C54.1781919,13.5895737 53.7361214,13.8515414 53.2121861,14.0480171 C52.7046237,14.2444929 52.1315693,14.3427308 51.5421421,14.3427308 C50.9363418,14.3427308 50.3796605,14.2444929 49.8720981,14.0480171 C49.3645357,13.8515414 48.9060922,13.5895737 48.5295137,13.2293681 C48.1529351,12.8691625 47.8582215,12.443465 47.6453727,11.9522756 C47.432524,11.4447132 47.3179131,10.8880319 47.3179131,10.2822316 Z M50.0358279,10.2822316 C50.0358279,10.5278263 50.0685738,10.7570481 50.1504387,10.9698968 C50.2323036,11.1827456 50.3305415,11.3628483 50.4615254,11.5102052 C50.5925092,11.657562 50.756239,11.7721729 50.9363418,11.8540378 C51.1164446,11.9359027 51.3292933,11.9850216 51.5421421,11.9850216 C51.7549908,11.9850216 51.9514666,11.9522756 52.1315693,11.8540378 C52.3116721,11.7721729 52.4754019,11.657562 52.6063858,11.5102052 C52.7373696,11.3628483 52.8519805,11.1827456 52.9174724,10.9698968 C52.9993373,10.7570481 53.0320833,10.5278263 53.0320833,10.2822316 C53.0320833,10.0366369 52.9993373,9.82378819 52.9174724,9.61093945 C52.8356075,9.41446369 52.7373696,9.2343609 52.6063858,9.10337706 C52.4754019,8.97239322 52.3116721,8.85778235 52.1315693,8.77591745 C51.9514666,8.69405255 51.7549908,8.66130659 51.5421421,8.66130659 C51.3292933,8.66130659 51.1328175,8.69405255 50.9363418,8.77591745 C50.756239,8.85778235 50.5925092,8.97239322 50.4615254,9.10337706 C50.3305415,9.2343609 50.2323036,9.41446369 50.1504387,9.61093945 C50.0849468,9.82378819 50.0358279,10.0366369 50.0358279,10.2822316 Z M61.0220977,14.129882 L58.4679127,14.129882 L58.4679127,8.67767957 L56.601393,8.67767957 L56.601393,6.53281915 L62.8886174,6.53281915 L62.8886174,8.67767957 L61.0220977,8.67767957 L61.0220977,14.129882 Z M64.2966937,6.53281915 L69.5196745,6.53281915 L69.5196745,8.66130659 L66.7035218,8.66130659 L66.7035218,9.3162258 L69.3559446,9.3162258 L69.3559446,11.2973564 L66.7035218,11.2973564 L66.7035218,12.0013946 L69.7161502,12.0013946 L69.7161502,14.129882 L64.3130667,14.129882 L64.3130667,6.53281915 L64.2966937,6.53281915 Z M71.4025672,6.53281915 L74.6771633,6.53281915 C75.0537418,6.53281915 75.4139474,6.56556511 75.7905259,6.64743001 C76.1671045,6.72929491 76.4945641,6.86027876 76.7729047,7.04038154 C77.0676184,7.2368573 77.2968401,7.48245201 77.4769429,7.80991161 C77.6570457,8.12099824 77.7389106,8.53032275 77.7389106,9.00513918 C77.7389106,9.46358263 77.6242997,9.87290713 77.395078,10.2331127 C77.1658563,10.5933183 76.8383967,10.855286 76.4126992,11.0517617 L78.3447108,14.129882 L75.4139474,14.129882 L73.9567521,11.4119673 L73.8748872,11.4119673 L73.8748872,14.129882 L71.4025672,14.129882 L71.4025672,6.53281915 L71.4025672,6.53281915 Z M73.8585142,9.74192329 L74.3660766,9.74192329 C74.4479415,9.74192329 74.5461794,9.74192329 74.6444173,9.72555031 C74.7426552,9.70917733 74.8408931,9.67643137 74.9391309,9.62731243 C75.0209958,9.57819349 75.1028607,9.51270157 75.1683527,9.43083667 C75.2338446,9.34897176 75.2665905,9.2343609 75.2665905,9.10337706 C75.2665905,8.97239322 75.2338446,8.85778235 75.1847256,8.77591745 C75.1356067,8.69405255 75.0701148,8.64493361 74.9882499,8.59581467 C74.906385,8.56306871 74.8245201,8.53032275 74.7426552,8.51394977 C74.6444173,8.49757679 74.5625524,8.49757679 74.4806875,8.49757679 L73.8748872,8.49757679 L73.8748872,9.74192329 L73.8585142,9.74192329 Z M79.2943437,6.53281915 L81.8649016,6.53281915 L81.8649016,14.129882 L79.2943437,14.129882 L79.2943437,6.53281915 Z M83.4858267,6.53281915 L88.7088074,6.53281915 L88.7088074,8.66130659 L85.8926548,8.66130659 L85.8926548,9.3162258 L88.5450776,9.3162258 L88.5450776,11.2973564 L85.8926548,11.2973564 L85.8926548,12.0013946 L88.9052832,12.0013946 L88.9052832,14.129882 L83.5021996,14.129882 L83.5021996,6.53281915 L83.4858267,6.53281915 Z M29.929808,17.6173268 L33.1880311,17.6173268 C33.5646097,17.6173268 33.9248152,17.6500728 34.3013938,17.7319377 C34.6615993,17.8138026 34.989059,17.9447864 35.2837726,18.1248892 C35.5784862,18.321365 35.807708,18.5669597 35.9878108,18.8944193 C36.1679135,19.2055059 36.2497784,19.6148304 36.2497784,20.0896469 C36.2497784,20.5480903 36.1351676,20.9574148 35.9059458,21.3176204 C35.6767241,21.6778259 35.3492645,21.9397936 34.923567,22.1362694 L36.8392057,25.2143897 L33.9084422,25.2143897 L32.451247,22.5128479 L32.3693821,22.5128479 L32.3693821,25.2143897 L29.8970621,25.2143897 L29.8970621,17.6173268 L29.929808,17.6173268 Z M32.3857551,20.810058 L32.8769445,20.810058 C32.9588094,20.810058 33.0570473,20.810058 33.1552852,20.793685 C33.253523,20.777312 33.3517609,20.7445661 33.4336258,20.6954471 C33.5154907,20.6463282 33.5973556,20.5808363 33.6628475,20.4989714 C33.7283395,20.4171065 33.7447124,20.3024956 33.7447124,20.1715118 C33.7447124,20.0405279 33.7119665,19.9259171 33.6628475,19.8440522 C33.6137286,19.7621873 33.5482367,19.7130683 33.4663718,19.6639494 C33.3845069,19.6312034 33.302642,19.5984574 33.2044041,19.5820845 C33.1061662,19.5657115 33.0243013,19.5657115 32.9424364,19.5657115 L32.3366361,19.5657115 L32.3366361,20.810058 L32.3857551,20.810058 Z M37.2649032,21.3667393 C37.2649032,20.760939 37.3795141,20.2206307 37.5923628,19.7294413 C37.8052116,19.2382519 38.0999252,18.8289274 38.4765038,18.4850948 C38.8530823,18.1412622 39.2951528,17.8792945 39.8027152,17.6991917 C40.3102776,17.5190889 40.8833319,17.4208511 41.4727592,17.4208511 C42.0785594,17.4208511 42.6352408,17.5190889 43.1428032,17.6991917 C43.6503655,17.8792945 44.108809,18.1412622 44.4853875,18.4850948 C44.8619661,18.8289274 45.1566797,19.2382519 45.3695285,19.7294413 C45.5823772,20.2206307 45.6969881,20.760939 45.6969881,21.3667393 C45.6969881,21.9725396 45.5823772,22.5292209 45.3695285,23.0204103 C45.1566797,23.5279727 44.8619661,23.9536702 44.4853875,24.2975028 C44.108809,24.6577084 43.6667385,24.9196761 43.1428032,25.1161518 C42.6352408,25.3126276 42.0785594,25.4108655 41.4727592,25.4108655 C40.8669589,25.4108655 40.3102776,25.3126276 39.8027152,25.1161518 C39.2951528,24.9196761 38.8530823,24.6577084 38.4765038,24.2975028 C38.0999252,23.9372972 37.8052116,23.5115997 37.5923628,23.0204103 C37.3631411,22.5292209 37.2649032,21.9725396 37.2649032,21.3667393 Z M39.966445,21.3667393 C39.966445,21.612334 39.9991909,21.8415558 40.0810558,22.0544045 C40.1629207,22.2672532 40.2611586,22.447356 40.3921425,22.5947128 C40.5231263,22.7420697 40.6868561,22.8566805 40.8669589,22.9385454 C41.0470617,23.0204103 41.2599104,23.0695293 41.4727592,23.0695293 C41.6856079,23.0695293 41.8820837,23.0204103 42.0621865,22.9385454 C42.2422892,22.8566805 42.406019,22.7420697 42.5370029,22.5947128 C42.6679867,22.447356 42.7825976,22.2672532 42.8480895,22.0544045 C42.9135814,21.8415558 42.9627004,21.612334 42.9627004,21.3667393 C42.9627004,21.1211446 42.9299544,20.9082959 42.8480895,20.6954471 C42.7662246,20.4989714 42.6679867,20.3188686 42.5370029,20.1878847 C42.406019,20.0569009 42.2422892,19.94229 42.0621865,19.8604251 C41.8820837,19.7785602 41.6856079,19.7458143 41.4727592,19.7458143 C41.2599104,19.7458143 41.0634347,19.7785602 40.8669589,19.8604251 C40.6868561,19.94229 40.5231263,20.0569009 40.3921425,20.1878847 C40.2611586,20.3352416 40.1629207,20.4989714 40.0810558,20.6954471 C39.9991909,20.8919229 39.966445,21.1211446 39.966445,21.3667393 Z M49.0207031,20.9082959 L49.1353139,25.1980167 L46.7612318,25.1980167 L46.7612318,17.6173268 L50.1013198,17.6173268 L51.4766501,21.6941989 L51.5257691,21.6941989 L52.7209966,17.6173268 L56.1593225,17.6173268 L56.1593225,25.1980167 L53.6706295,25.1980167 L53.7524944,20.9410418 L53.6870025,20.9246689 L52.2789262,25.1980167 L50.4778983,25.1980167 L49.086195,20.9082959 L49.0207031,20.9082959 L49.0207031,20.9082959 Z M60.0397188,17.6173268 L62.7412606,17.6173268 L65.6883971,25.1980167 L62.9213634,25.1980167 L62.5284119,24.0846541 L60.1215837,24.0846541 L59.7450052,25.1980167 L57.0434634,25.1980167 L60.0397188,17.6173268 Z M61.3495573,20.2533767 L60.727384,22.1362694 L61.9553575,22.1362694 L61.3495573,20.2533767 Z M66.605284,17.6173268 L69.1430959,17.6173268 L71.3043293,21.4649772 L71.3534482,21.4649772 L71.2552104,17.6173268 L73.6784115,17.6173268 L73.6784115,25.1980167 L71.0587346,25.1980167 L68.9629931,21.5795881 L68.9138742,21.5795881 L69.028485,25.1980167 L66.605284,25.1980167 L66.605284,17.6173268 L66.605284,17.6173268 Z M75.0701148,25.1980167 L75.0701148,17.6173268 L77.9026404,17.6173268 C78.5084406,17.6173268 79.081495,17.6828187 79.6218033,17.7974296 C80.1621117,17.9120405 80.6533011,18.1248892 81.0626256,18.4032299 C81.4883231,18.6979435 81.8157827,19.0745221 82.0613774,19.5493385 C82.3069721,20.0241549 82.4379559,20.6299552 82.4379559,21.3503663 C82.4379559,22.0216585 82.3233451,22.5947128 82.0777504,23.0695293 C81.8321557,23.5607187 81.521069,23.9536702 81.1117445,24.2647568 C80.718793,24.5758435 80.2439766,24.8050652 79.7364142,24.952422 C79.2124788,25.0997788 78.6721705,25.1816437 78.1154891,25.1816437 L75.0701148,25.1816437 L75.0701148,25.1980167 Z M77.5260618,19.7785602 L77.5260618,23.0040374 L78.0008783,23.0040374 C78.6066785,23.0040374 79.065122,22.8730535 79.3762086,22.6110858 C79.7036682,22.3491181 79.851025,21.9234207 79.851025,21.3339934 C79.851025,20.842804 79.6872952,20.4662254 79.3762086,20.1878847 C79.048749,19.9095441 78.6230515,19.7785602 78.0827432,19.7785602 L77.5260618,19.7785602 L77.5260618,19.7785602 Z M83.5021996,17.6173268 L88.7088074,17.6173268 L88.7088074,19.7294413 L85.8926548,19.7294413 L85.8926548,20.3843605 L88.5287046,20.3843605 L88.5287046,22.3654911 L85.8926548,22.3654911 L85.8926548,23.0695293 L88.9052832,23.0695293 L88.9052832,25.1816437 L83.5021996,25.1816437 L83.5021996,17.6173268 Z" id="Shape"></path>
                </g>
            </g>
        </g>
    </g>
</svg>