<?xml version="1.0" encoding="UTF-8"?>
<svg id="Calque_2" data-name="Calque 2" xmlns="http://www.w3.org/2000/svg" viewBox="0 0 95.93 97">
  <g id="Calque_1-2" data-name="Calque 1">
    <path d="m79.99,33.77h.53c8.51,0,15.41-6.9,15.41-15.41v-2.96c0-8.51-6.9-15.41-15.41-15.41h-2.96c-8.51,0-15.41,6.9-15.41,15.41v.8c0,8.1-6.25,14.74-14.19,15.36-7.94-.62-14.19-7.26-14.19-15.36v-.8c0-8.51-6.9-15.41-15.41-15.41h-2.96C6.9,0,0,6.9,0,15.41v2.96c0,8.51,6.9,15.41,15.41,15.41h.53c7.23,0,13.29,4.98,14.95,11.69-.05.51-.08,1.03-.08,1.55v.8c0,8.51-6.9,15.41-15.41,15.41h0c-8.51,0-15.41,6.9-15.41,15.41v2.96c0,8.51,6.9,15.41,15.41,15.41h2.96c8.51,0,15.41-6.9,15.41-15.41v-.8c0-8.1,6.25-14.74,14.19-15.36,7.94.62,14.19,7.26,14.19,15.36v.8c0,8.51,6.9,15.41,15.41,15.41h2.96c8.51,0,15.41-6.9,15.41-15.41v-2.96c0-8.51-6.9-15.41-15.41-15.41h0c-8.51,0-15.41-6.9-15.41-15.41v-.8c0-.52-.03-1.04-.08-1.55,1.66-6.71,7.73-11.69,14.95-11.69Z"/>
  </g>
</svg>