<?xml version="1.0" encoding="UTF-8"?>
<svg id="Calque_2" data-name="Calque 2" xmlns="http://www.w3.org/2000/svg" viewBox="0 0 123.98 116.04">
  <g id="Calque_1-2" data-name="Calque 1">
    <path d="m119.46,6.62l-2.1-2.1c-6.03-6.03-15.81-6.03-21.84,0l-.57.57c-6.03,6.03-15.81,6.03-21.84,0l-.38-.38c-6.03-6.03-15.81-6.03-21.84,0l-.57.57c-6.03,6.03-15.81,6.03-21.84,0h0c-6.03-6.03-15.81-6.03-21.84,0l-2.1,2.1c-6.03,6.03-6.03,15.81,0,21.84l2.1,2.1c6.03,6.03,15.81,6.03,21.84,0l.57-.57c6.03-6.03,15.81-6.03,21.84,0h0c6.03,6.03,15.81,6.03,21.84,0l.57-.57c6.03-6.03,15.81-6.03,21.84,0l.38.38c6.03,6.03,15.81,6.03,21.84,0l2.1-2.1c6.03-6.03,6.03-15.81,0-21.84Z"/>
    <path d="m119.46,47.28l-2.1-2.1c-6.03-6.03-15.81-6.03-21.84,0l-.57.57c-6.03,6.03-15.81,6.03-21.84,0l-.38-.38c-6.03-6.03-15.81-6.03-21.84,0l-.57.57c-6.03,6.03-15.81,6.03-21.84,0h0c-6.03-6.03-15.81-6.03-21.84,0l-2.1,2.1c-6.03,6.03-6.03,15.81,0,21.84l2.1,2.1c6.03,6.03,15.81,6.03,21.84,0l.57-.57c6.03-6.03,15.81-6.03,21.84,0h0c6.03,6.03,15.81,6.03,21.84,0l.57-.57c6.03-6.03,15.81-6.03,21.84,0l.38.38c6.03,6.03,15.81,6.03,21.84,0l2.1-2.1c6.03-6.03,6.03-15.81,0-21.84Z"/>
    <path d="m119.46,86.81l-2.1-2.1c-6.03-6.03-15.81-6.03-21.84,0l-.57.57c-6.03,6.03-15.81,6.03-21.84,0l-.38-.38c-6.03-6.03-15.81-6.03-21.84,0l-.57.57c-6.03,6.03-15.81,6.03-21.84,0h0c-6.03-6.03-15.81-6.03-21.84,0l-2.1,2.1c-6.03,6.03-6.03,15.81,0,21.84l2.1,2.1c6.03,6.03,15.81,6.03,21.84,0l.57-.57c6.03-6.03,15.81-6.03,21.84,0h0c6.03,6.03,15.81,6.03,21.84,0l.57-.57c6.03-6.03,15.81-6.03,21.84,0l.38.38c6.03,6.03,15.81,6.03,21.84,0l2.1-2.1c6.03-6.03,6.03-15.81,0-21.84Z"/>
  </g>
</svg>