<?xml version="1.0" encoding="UTF-8"?>
<svg id="Calque_2" data-name="Calque 2" xmlns="http://www.w3.org/2000/svg" viewBox="0 0 96.18 97.25">
  <g id="Calque_1-2" data-name="Calque 1">
    <path d="m80.73,0h-2.97c-8.53,0-15.45,6.92-15.45,15.45v.8c0,8.53-6.92,15.45-15.45,15.45h-.53c-8.53,0-15.45,6.92-15.45,15.45v.8c0,8.53-6.92,15.45-15.45,15.45h0c-8.53,0-15.45,6.92-15.45,15.45v2.97c0,8.53,6.92,15.45,15.45,15.45h2.97c8.53,0,15.45-6.92,15.45-15.45v-.8c0-8.53,6.92-15.45,15.45-15.45h0c8.53,0,15.45-6.92,15.45-15.45v-.8c0-8.53,6.92-15.45,15.45-15.45h.53c8.53,0,15.45-6.92,15.45-15.45v-2.97c0-8.53-6.92-15.45-15.45-15.45Z"/>
  </g>
</svg>