<?xml version="1.0" encoding="UTF-8"?>
<svg id="Calque_2" data-name="Calque 2" xmlns="http://www.w3.org/2000/svg" viewBox="0 0 544.56 126.45">
  <defs>
    <style>
      .cls-1 {
        fill: #fff;
      }
    </style>
  </defs>
  <g id="Calque_1-2" data-name="Calque 1">
    <g>
      <path class="cls-1" d="m244.25,52.16h-9.67c-3.18,0-6.12,1.22-8.32,3.43s-3.43,5.26-3.43,8.32v18.12c0,3.18,1.22,6.12,3.43,8.32s5.26,3.43,8.32,3.43h9.67c3.18,0,6.12-1.22,8.32-3.43,2.33-2.2,3.55-5.26,3.55-8.32v-18.12c0-3.18-1.22-6.12-3.43-8.32-2.33-2.2-5.26-3.43-8.45-3.43Z"/>
      <path class="cls-1" d="m467.28,76.77l-24.36,1.71c-.86,0-1.71.37-2.2.98l-1.59,1.59c-.61.61-1.1,1.59-1.1,2.57v4.16c0,.98.37,1.84,1.1,2.57l2.45,2.45c.61.61,1.59,1.1,2.57,1.1h13.95c.98,0,1.84-.37,2.57-1.1l9.55-9.55c.49-.49.86-1.47.86-2.45v-.49c0-2.08-1.71-3.67-3.79-3.55Z"/>
      <path class="cls-1" d="m481.33,0H63.23C28.31,0,0,28.31,0,63.23h0c0,34.92,28.31,63.23,63.23,63.23h418.11c34.92,0,63.23-28.31,63.23-63.23h0c0-34.92-28.31-63.23-63.23-63.23ZM117.19,71.87c0,2.69-2.2,4.77-4.77,4.77h-34.15c-2.69,0-4.77,2.2-4.77,4.77v3.43c0,1.22.49,2.45,1.35,3.43l4.16,4.16c.86.86,2.08,1.35,3.43,1.35h17.38c1.22,0,2.45-.49,3.43-1.35l3.67-3.67c1.84-1.84,4.9-1.84,6.73,0,1.84,1.84,1.84,4.9,0,6.73l-6.12,6.12c-.86.86-2.08,1.35-3.43,1.35h-26.32c-1.22,0-2.45-.49-3.43-1.35l-9.77-9.77c-.95-.95-1.49-2.25-1.49-3.6v-30.7c0-1.22.49-2.45,1.35-3.43l9.92-9.92c.86-.86,2.08-1.35,3.43-1.35h24.6c1.22,0,2.45.49,3.43,1.35l9.92,9.92c.86.98,1.47,2.2,1.47,3.43v14.32Zm22.77,25.95c0,2.82-2.33,5.14-5.14,5.14s-5.14-2.33-5.14-5.14v-49.82c-.12-2.82,2.2-5.14,5.14-5.14s5.14,2.33,5.14,5.14v49.82Zm0-74.42c0,2.82-2.33,5.14-5.14,5.14s-5.14-2.33-5.14-5.14v-3.06c-.12-2.82,2.2-5.14,5.14-5.14s5.14,2.33,5.14,5.14v3.06Zm57.16,79.57h-.86c-1.35.12-2.45-.37-3.43-1.35l-18.85-19.22c-2.94-3.06-8.08-.86-8.08,3.31v12.24c0,2.84-2.3,5.14-5.14,5.14h0c-2.84,0-5.14-2.3-5.14-5.14V19.36c0-2.84,2.3-5.14,5.14-5.14h0c2.84,0,5.14,2.3,5.14,5.14v39.91c0,4.16,5.14,6.37,8.08,3.31l17.99-18.36c.86-.86,2.08-1.47,3.31-1.47,4.16,0,6.24,5.02,3.31,7.96l-17.63,18.12c-1.84,1.84-1.84,4.77,0,6.61l19.46,19.59c2.94,2.94.86,7.96-3.31,7.96Zm69.28-17.5c0,3.18-1.22,6.12-3.43,8.32l-5.75,5.75c-2.2,2.2-5.26,3.43-8.32,3.43h-18.85c-3.18,0-6.12-1.22-8.32-3.43l-5.75-5.75c-2.2-2.2-3.43-5.26-3.43-8.32v-24.97c0-3.18,1.22-6.12,3.43-8.32l5.75-5.75c2.2-2.2,5.26-3.43,8.32-3.43h18.85c3.18,0,6.12,1.22,8.32,3.43l5.75,5.75c2.2,2.2,3.43,5.14,3.43,8.32v24.97Zm65.37,13.59c0,2.23-1.81,4.04-4.04,4.04h-2.33c-2.23,0-4.04-1.81-4.04-4.04v-40.15c0-.98-.37-1.84-1.1-2.57l-3.18-3.18c-.61-.61-1.59-1.1-2.57-1.1h-11.51c-.98,0-1.84.37-2.57,1.1l-9.43,9.43c-.61.61-1.1,1.59-1.1,2.57v34.03c0,2.23-1.81,4.04-4.04,4.04h-2.33c-2.23,0-4.04-1.81-4.04-4.04v-52.27c0-2.23,1.81-4.04,4.04-4.04h1.96c1.96,0,3.43,1.47,3.55,3.43.12,3.06,3.92,4.53,6.12,2.33l4.77-4.77c.61-.61,1.59-1.1,2.57-1.1h17.01c.98,0,1.84.37,2.57,1.1l8.57,8.57c.73.73,1.1,1.59,1.1,2.57v44.07Zm24.97-1.22c0,2.82-2.33,5.14-5.14,5.14s-5.14-2.33-5.14-5.14v-49.82c0-2.82,2.33-5.14,5.14-5.14s5.14,2.33,5.14,5.14v49.82Zm0-74.42c0,2.82-2.33,5.14-5.14,5.14s-5.14-2.33-5.14-5.14v-3.06c0-2.82,2.33-5.14,5.14-5.14s5.14,2.33,5.14,5.14v3.06Zm62.06,72.22l-6.12,6.12c-.86.86-2.08,1.35-3.43,1.35h-24.48c-1.22,0-2.45-.49-3.43-1.35l-9.92-9.92c-.86-.86-1.35-2.08-1.35-3.43v-30.85c0-1.22.49-2.45,1.35-3.43l9.92-9.92c.86-.86,2.08-1.35,3.43-1.35h23.87c1.22,0,2.45.49,3.43,1.35l6.12,6.12c1.84,1.84,1.84,4.9,0,6.73-1.84,1.84-4.9,1.84-6.73,0l-3.55-3.55c-.86-.86-2.08-1.35-3.43-1.35h-15.06c-1.22,0-2.45.49-3.43,1.35l-4.04,4.04c-.86.86-1.35,2.08-1.35,3.43v23.87c0,1.22.49,2.45,1.35,3.43l4.04,4.04c.86.86,2.08,1.35,3.43,1.35h15.67c1.22,0,2.45-.49,3.43-1.35l3.55-3.55c1.84-1.84,4.9-1.84,6.73,0,1.84,1.96,1.84,5.02,0,6.85Zm62.67,3.43c0,2.23-1.81,4.04-4.04,4.04h-1.96c-1.96,0-3.43-1.47-3.55-3.43-.12-3.06-3.92-4.53-6.12-2.33l-4.77,4.77c-.61.61-1.59,1.1-2.57,1.1h-19.22c-.98,0-1.84-.37-2.57-1.1l-8.2-8.2c-.61-.61-1.1-1.59-1.1-2.57v-11.14c0-.98.37-1.84,1.1-2.57l6.98-6.98c.61-.61,1.47-.98,2.33-.98l29.75-2.08c1.84-.12,3.31-1.71,3.31-3.55v-5.26c0-.98-.37-1.84-1.1-2.57l-3.31-3.31c-.61-.61-1.59-1.1-2.57-1.1h-18.61c-.98,0-1.84.37-2.57,1.1l-4.18,4.18c-1.58,1.58-4.14,1.58-5.71,0l-1.02-1.02c-1.58-1.58-1.58-4.14,0-5.71l6.51-6.51c.61-.61,1.59-1.1,2.57-1.1h28.28c.98,0,1.84.37,2.57,1.1l8.57,8.57c.86.73,1.22,1.59,1.22,2.57v44.07Z"/>
      <path class="cls-1" d="m101.15,53.39c-.86-.86-2.08-1.35-3.43-1.35h-15.3c-1.22,0-2.45.49-3.43,1.35l-4.16,4.16c-.86.86-1.35,2.08-1.35,3.43v1.84c0,2.69,2.2,4.77,4.77,4.77h23.75c2.57.12,4.77-2.08,4.77-4.77v-1.84c0-1.22-.49-2.45-1.35-3.43l-4.28-4.16Z"/>
    </g>
  </g>
</svg>