<?xml version="1.0" encoding="UTF-8"?>
<svg id="Calque_2" data-name="Calque 2" xmlns="http://www.w3.org/2000/svg" viewBox="0 0 426.22 98.97">
  <g id="Calque_1-2" data-name="Calque 1">
    <g>
      <path d="m191.17,40.83h-7.57c-2.49,0-4.79.96-6.51,2.68s-2.68,4.12-2.68,6.51v14.18c0,2.49.96,4.79,2.68,6.51s4.12,2.68,6.51,2.68h7.57c2.49,0,4.79-.96,6.51-2.68,1.82-1.72,2.78-4.12,2.78-6.51v-14.18c0-2.49-.96-4.79-2.68-6.51-1.82-1.72-4.12-2.68-6.61-2.68Z"/>
      <path d="m365.73,60.08l-19.07,1.34c-.67,0-1.34.29-1.72.77l-1.25,1.25c-.48.48-.86,1.25-.86,2.01v3.26c0,.77.29,1.44.86,2.01l1.92,1.92c.48.48,1.25.86,2.01.86h10.92c.77,0,1.44-.29,2.01-.86l7.47-7.47c.38-.38.67-1.15.67-1.92v-.38c0-1.63-1.34-2.87-2.97-2.78Z"/>
      <path d="m376.73,0H49.49C22.16,0,0,22.16,0,49.49h0c0,27.33,22.16,49.49,49.49,49.49h327.25c27.33,0,49.49-22.16,49.49-49.49h0c0-27.33-22.16-49.49-49.49-49.49ZM91.72,56.25c0,2.11-1.72,3.74-3.74,3.74h-26.73c-2.11,0-3.74,1.72-3.74,3.74v2.68c0,.96.38,1.92,1.05,2.68l3.26,3.26c.67.67,1.63,1.05,2.68,1.05h13.6c.96,0,1.92-.38,2.68-1.05l2.87-2.87c1.44-1.44,3.83-1.44,5.27,0,1.44,1.44,1.44,3.83,0,5.27l-4.79,4.79c-.67.67-1.63,1.05-2.68,1.05h-20.6c-.96,0-1.92-.38-2.68-1.05l-7.65-7.65c-.75-.75-1.17-1.76-1.17-2.82v-24.03c0-.96.38-1.92,1.05-2.68l7.76-7.76c.67-.67,1.63-1.05,2.68-1.05h19.26c.96,0,1.92.38,2.68,1.05l7.76,7.76c.67.77,1.15,1.72,1.15,2.68v11.21Zm17.82,20.31c0,2.2-1.82,4.02-4.02,4.02s-4.02-1.82-4.02-4.02v-38.99c-.1-2.2,1.72-4.02,4.02-4.02s4.02,1.82,4.02,4.02v38.99Zm0-58.25c0,2.2-1.82,4.02-4.02,4.02s-4.02-1.82-4.02-4.02v-2.4c-.1-2.2,1.72-4.02,4.02-4.02s4.02,1.82,4.02,4.02v2.4Zm44.74,62.28h-.67c-1.05.1-1.92-.29-2.68-1.05l-14.75-15.04c-2.3-2.4-6.32-.67-6.32,2.59v9.58c0,2.22-1.8,4.02-4.02,4.02h0c-2.22,0-4.02-1.8-4.02-4.02V15.15c0-2.22,1.8-4.02,4.02-4.02h0c2.22,0,4.02,1.8,4.02,4.02v31.23c0,3.26,4.02,4.98,6.32,2.59l14.08-14.37c.67-.67,1.63-1.15,2.59-1.15,3.26,0,4.89,3.93,2.59,6.23l-13.8,14.18c-1.44,1.44-1.44,3.74,0,5.17l15.23,15.33c2.3,2.3.67,6.23-2.59,6.23Zm54.23-13.7c0,2.49-.96,4.79-2.68,6.51l-4.5,4.5c-1.72,1.72-4.12,2.68-6.51,2.68h-14.75c-2.49,0-4.79-.96-6.51-2.68l-4.5-4.5c-1.72-1.72-2.68-4.12-2.68-6.51v-19.54c0-2.49.96-4.79,2.68-6.51l4.5-4.5c1.72-1.72,4.12-2.68,6.51-2.68h14.75c2.49,0,4.79.96,6.51,2.68l4.5,4.5c1.72,1.72,2.68,4.02,2.68,6.51v19.54Zm51.16,10.63c0,1.75-1.42,3.16-3.16,3.16h-1.82c-1.75,0-3.16-1.42-3.16-3.16v-31.42c0-.77-.29-1.44-.86-2.01l-2.49-2.49c-.48-.48-1.25-.86-2.01-.86h-9.01c-.77,0-1.44.29-2.01.86l-7.38,7.38c-.48.48-.86,1.25-.86,2.01v26.63c0,1.75-1.42,3.16-3.16,3.16h-1.82c-1.75,0-3.16-1.42-3.16-3.16v-40.91c0-1.75,1.42-3.16,3.16-3.16h1.53c1.53,0,2.68,1.15,2.78,2.68.1,2.4,3.07,3.54,4.79,1.82l3.74-3.74c.48-.48,1.25-.86,2.01-.86h13.32c.77,0,1.44.29,2.01.86l6.71,6.71c.57.57.86,1.25.86,2.01v34.49Zm19.54-.96c0,2.2-1.82,4.02-4.02,4.02s-4.02-1.82-4.02-4.02v-38.99c0-2.2,1.82-4.02,4.02-4.02s4.02,1.82,4.02,4.02v38.99Zm0-58.25c0,2.2-1.82,4.02-4.02,4.02s-4.02-1.82-4.02-4.02v-2.4c0-2.2,1.82-4.02,4.02-4.02s4.02,1.82,4.02,4.02v2.4Zm48.57,56.53l-4.79,4.79c-.67.67-1.63,1.05-2.68,1.05h-19.16c-.96,0-1.92-.38-2.68-1.05l-7.76-7.76c-.67-.67-1.05-1.63-1.05-2.68v-24.14c0-.96.38-1.92,1.05-2.68l7.76-7.76c.67-.67,1.63-1.05,2.68-1.05h18.68c.96,0,1.92.38,2.68,1.05l4.79,4.79c1.44,1.44,1.44,3.83,0,5.27-1.44,1.44-3.83,1.44-5.27,0l-2.78-2.78c-.67-.67-1.63-1.05-2.68-1.05h-11.78c-.96,0-1.92.38-2.68,1.05l-3.16,3.16c-.67.67-1.05,1.63-1.05,2.68v18.68c0,.96.38,1.92,1.05,2.68l3.16,3.16c.67.67,1.63,1.05,2.68,1.05h12.26c.96,0,1.92-.38,2.68-1.05l2.78-2.78c1.44-1.44,3.83-1.44,5.27,0,1.44,1.53,1.44,3.93,0,5.37Zm49.05,2.68c0,1.75-1.42,3.16-3.16,3.16h-1.53c-1.53,0-2.68-1.15-2.78-2.68-.1-2.4-3.07-3.54-4.79-1.82l-3.74,3.74c-.48.48-1.25.86-2.01.86h-15.04c-.77,0-1.44-.29-2.01-.86l-6.42-6.42c-.48-.48-.86-1.25-.86-2.01v-8.72c0-.77.29-1.44.86-2.01l5.46-5.46c.48-.48,1.15-.77,1.82-.77l23.28-1.63c1.44-.1,2.59-1.34,2.59-2.78v-4.12c0-.77-.29-1.44-.86-2.01l-2.59-2.59c-.48-.48-1.25-.86-2.01-.86h-14.56c-.77,0-1.44.29-2.01.86l-3.27,3.27c-1.23,1.23-3.24,1.23-4.47,0l-.8-.8c-1.23-1.23-1.23-3.24,0-4.47l5.09-5.09c.48-.48,1.25-.86,2.01-.86h22.13c.77,0,1.44.29,2.01.86l6.71,6.71c.67.57.96,1.25.96,2.01v34.49Z"/>
      <path d="m79.17,41.78c-.67-.67-1.63-1.05-2.68-1.05h-11.98c-.96,0-1.92.38-2.68,1.05l-3.26,3.26c-.67.67-1.05,1.63-1.05,2.68v1.44c0,2.11,1.72,3.74,3.74,3.74h18.59c2.01.1,3.74-1.63,3.74-3.74v-1.44c0-.96-.38-1.92-1.05-2.68l-3.35-3.26Z"/>
    </g>
  </g>
</svg>