<?xml version="1.0" encoding="UTF-8"?>
<svg width="168px" height="169px" viewBox="0 0 168 169" version="1.1" xmlns="http://www.w3.org/2000/svg" xmlns:xlink="http://www.w3.org/1999/xlink">
    <title>monster01</title>
    <g id="Page-1" stroke="none" stroke-width="1" fill="none" fill-rule="evenodd">
        <g id="homepage" transform="translate(-142.000000, -819.000000)" fill="#FFFFFF" fill-rule="nonzero">
            <g id="TITLE-FESTIVAL" transform="translate(142.000000, 819.000000)">
                <g id="monster01" transform="translate(0.000000, 0.083205)">
                    <g id="Group" transform="translate(58.580001, 68.551649)">
                        <path d="M15.9971997,2.46957698 C6.11436189,-5.05800511 -5.05800511,6.11436189 2.46957698,15.9971997 C12.3524148,23.5247818 23.5247818,12.3524148 15.9971997,2.46957698 L15.9971997,2.46957698 L15.9971997,2.46957698 Z" id="Path"></path>
                        <path d="M48.3739733,2.46957698 C38.4911355,-5.05800511 27.3187685,6.11436189 34.8463506,15.9971997 C34.8463506,15.9971997 34.8463506,15.9971997 34.8463506,15.9971997 C44.7291884,23.5247818 55.9015554,12.3524148 48.3739733,2.46957698 L48.3739733,2.46957698 Z" id="Path"></path>
                    </g>
                    <path d="M162.080458,129.625531 L156.151466,129.710789 C152.925867,129.756971 150.27576,127.181465 150.229578,123.955866 L150.009328,108.666242 C149.988014,107.117386 149.35213,105.643131 148.240222,104.563194 L136.250798,92.9112504 C135.13889,91.8313142 134.503007,90.3570591 134.481692,88.8082031 L134.417748,84.2433409 C134.414196,83.9129657 134.378672,83.5932477 134.321833,83.2806346 C134.368014,82.964469 134.392881,82.644751 134.389329,82.3143758 L134.325385,77.7495136 C134.304071,76.2006576 134.897325,74.7086404 135.977262,73.5967323 L147.629206,61.6073083 C148.709142,60.4954002 149.302396,59.003383 149.281082,57.454527 L149.060832,42.164903 C149.01465,38.9393039 151.590156,36.2891971 154.815755,36.2430156 L160.744747,36.1577575 C163.970347,36.111576 166.545852,33.4614692 166.499671,30.2358701 C166.453489,27.010271 163.803383,24.4347651 160.577784,24.4809466 L142.968428,24.7331685 C142.407145,24.7402734 141.867177,24.8290839 141.355628,24.9853905 C141.494173,24.4702893 141.568774,23.9267688 141.561669,23.3690385 L141.309447,5.75968295 C141.256161,2.5305314 138.606054,-0.0449745038 135.380455,0.000595508806 C132.154856,0.0473884666 129.57935,2.69749523 129.625531,5.92309436 L129.710789,11.8520866 C129.756971,15.0776857 127.181465,17.7277925 123.955866,17.773974 L108.666242,17.9942241 C107.117386,18.0155386 105.643131,18.6514222 104.563194,19.7633302 L92.9112504,31.7527543 C91.8313142,32.8646624 90.3570591,33.5005459 88.8082031,33.5218604 L84.2433409,33.585804 C83.9165181,33.5893564 83.5932477,33.6248807 83.2806346,33.6817194 C82.964469,33.6355379 82.644751,33.610671 82.3143758,33.6142234 L77.7495136,33.678167 C76.2006576,33.6994815 74.7086404,33.1062271 73.5967323,32.0262908 L61.6073083,20.3743468 C60.4954002,19.2944105 59.003383,18.7011561 57.454527,18.7224706 L42.164903,18.9427208 C38.9393039,18.9889023 36.2891971,16.4133964 36.2430156,13.1877972 L36.1577575,7.25880501 C36.111576,4.03320588 33.4614692,1.45769998 30.2358701,1.50388146 C27.010271,1.55006295 24.4347651,4.20016972 24.4809466,7.42576884 L24.7331685,25.0351244 C24.7402734,25.5964071 24.8290839,26.1363752 24.9853905,26.647924 C24.4702893,26.5093795 23.9267688,26.4347786 23.3690385,26.4418835 L5.75968295,26.6941054 C2.5305314,26.7473918 -0.0449745038,29.3974985 0.000595508806,32.6230977 C0.0473884666,35.8486968 2.69749523,38.4242027 5.92309436,38.3780212 L11.8520866,38.2927631 C15.0776857,38.2465816 17.7277925,40.8220875 17.773974,44.0476866 L17.9942241,59.3373107 C18.0155386,60.8861666 18.6514222,62.3604217 19.7633302,63.440358 L31.7527543,75.092302 C32.8646624,76.1722382 33.5005459,77.6464934 33.5218604,79.1953493 L33.585804,83.7602115 C33.5893564,84.0905868 33.6248807,84.4103047 33.6817194,84.7229179 C33.6355379,85.0390834 33.610671,85.3588014 33.6142234,85.6891766 L33.678167,90.2540388 C33.6994815,91.8028948 33.1062271,93.294912 32.0262908,94.4068201 L20.3743468,106.396244 C19.2944105,107.508152 18.7011561,109.000169 18.7224706,110.549025 L18.9427208,125.838649 C18.9889023,129.064249 16.4133964,131.714355 13.1877972,131.760537 L7.25880501,131.845795 C4.03320588,131.891976 1.45769998,134.542083 1.50388146,137.767682 C1.55006295,140.993281 4.20016972,143.568787 7.42576884,143.522606 L25.0351244,143.270384 C25.5964071,143.263279 26.1363752,143.174468 26.647924,143.018162 C26.5093795,143.533263 26.4347786,144.076784 26.4418835,144.634514 L26.6941054,162.243869 C26.7402869,165.469469 29.3903937,168.044974 32.6159928,167.999404 C35.8415919,167.952612 38.4170979,165.302505 38.3709164,162.076906 L38.2856582,156.147913 C38.2394768,152.922314 40.8149827,150.272208 44.0405818,150.226026 L59.3302058,150.005776 C60.8790618,149.984461 62.3533169,149.348578 63.4332532,148.23667 L75.0851971,136.247246 C76.1651334,135.135338 77.6393885,134.499454 79.1882445,134.47814 L83.7531067,134.414196 C84.0799295,134.410644 84.4031999,134.375119 84.715813,134.318281 C85.0319786,134.364462 85.3516965,134.389329 85.6820718,134.385777 L90.246934,134.321833 C91.7957899,134.300518 93.2878072,134.893773 94.3997152,135.973709 L106.389139,147.625653 C107.501047,148.705589 108.993065,149.298844 110.541921,149.277529 L125.831545,149.057279 C129.057144,149.011098 131.70725,151.586604 131.753432,154.812203 L131.83869,160.741195 C131.884872,163.966794 134.534978,166.5423 137.760577,166.496119 C140.986177,166.449937 143.561682,163.79983 143.515501,160.574231 L143.263279,142.964876 C143.256174,142.403593 143.167364,141.863625 143.011057,141.352076 C143.526158,141.49062 144.069679,141.565221 144.627409,141.558117 L162.236765,141.305895 C165.462364,141.259713 168.03787,138.609606 167.9923,135.384007 C167.945507,132.158408 165.2954,129.582902 162.069801,129.629084 L162.080458,129.625531 Z M137.352049,137.2064 L115.22046,137.522565 C113.671604,137.54388 112.179587,136.950625 111.067679,135.870689 L99.0782549,124.218745 C97.9663469,123.138809 96.4743296,122.545554 94.9254737,122.566869 L85.5257652,122.701861 C85.19539,122.705413 84.875672,122.740937 84.5630589,122.797776 C84.2468933,122.751595 83.9271753,122.726728 83.5968001,122.73028 L74.1970917,122.865272 C72.6482357,122.886587 71.1739806,123.52247 70.0940443,124.634378 L58.4421003,136.623802 C57.3621641,137.73571 55.887909,138.371594 54.339053,138.392909 L32.2074643,138.709074 C31.6461816,138.716179 31.1062135,138.804989 30.5946647,138.961296 C30.7332092,138.446195 30.8078101,137.902674 30.8007052,137.344944 L30.4845397,115.213355 C30.4632251,113.664499 31.0564796,112.172482 32.1364159,111.060574 L43.7883598,99.0711501 C44.8682961,97.959242 45.4615506,96.4672248 45.440236,94.9183688 L45.305244,85.5186604 C45.3016916,85.1882851 45.2661674,84.8685672 45.2093286,84.555954 C45.2555101,84.2397885 45.280377,83.9200705 45.2768246,83.5896953 L45.1418326,74.1899868 C45.1205181,72.6411308 44.4846345,71.1668757 43.3727265,70.0869395 L31.3833024,58.4349955 C30.2713943,57.3550592 29.6355108,55.8808041 29.6141963,54.3319482 L29.2980307,32.2003595 C29.2909259,31.6390768 29.2021153,31.0991087 29.0458088,30.5875599 C29.56091,30.7261044 30.1044305,30.8007052 30.6621608,30.7936004 L52.7937495,30.4774348 C54.3426054,30.4561203 55.8346226,31.0493747 56.9465307,32.129311 L68.9359548,43.781255 C70.0478628,44.8611913 71.53988,45.4544457 73.088736,45.4331312 L82.4884445,45.2981392 C82.8152673,45.2945867 83.1385377,45.2590625 83.4511508,45.2022238 C83.7673164,45.2484052 84.0870343,45.2732722 84.4174096,45.2697198 L93.817118,45.1347277 C95.365974,45.1134132 96.8402291,44.4775297 97.9201654,43.3656216 L109.572109,31.3761976 C110.652046,30.2642895 112.126301,29.628406 113.675157,29.6070914 L135.806745,29.2909259 C136.368028,29.283821 136.907996,29.1950105 137.419545,29.0387039 C137.281,29.5538051 137.2064,30.0973257 137.213504,30.6550559 L137.52967,52.7866446 C137.550985,54.3355006 136.95773,55.8275178 135.877794,56.9394259 L124.22585,68.9288499 C123.145914,70.040758 122.552659,71.5327752 122.573974,73.0816312 L122.708966,82.4813396 C122.712518,82.8117149 122.748042,83.1314328 122.804881,83.444046 C122.7587,83.7602115 122.733833,84.0799295 122.737385,84.4103047 L122.872377,93.8100132 C122.893692,95.3588692 123.529575,96.8331243 124.641483,97.9130605 L136.630907,109.565004 C137.742815,110.644941 138.378699,112.119196 138.400013,113.668052 L138.716179,135.799641 C138.723284,136.360923 138.812094,136.900891 138.968401,137.41244 C138.4533,137.273896 137.909779,137.199295 137.352049,137.2064 Z" id="Shape"></path>
                </g>
            </g>
        </g>
    </g>
</svg>