<?xml version="1.0" encoding="UTF-8"?>
<svg width="56px" height="55px" viewBox="0 0 56 55" version="1.1" xmlns="http://www.w3.org/2000/svg" xmlns:xlink="http://www.w3.org/1999/xlink">
    <title>monster06</title>
    <g id="Page-1" stroke="none" stroke-width="1" fill="none" fill-rule="evenodd">
        <g id="homepage" transform="translate(-338.000000, -2073.000000)" fill="#0D0D0D" fill-rule="nonzero">
            <g id="SECTION-RESERVATION" transform="translate(12.000000, 1411.000000)">
                <g id="ARTICLES" transform="translate(130.000000, 0.000000)">
                    <g id="BUTTON-white" transform="translate(168.000000, 643.000000)">
                        <g id="monster06" transform="translate(28.065694, 19.000000)">
                            <path d="M54.9973434,33.6520859 L54.6941819,27.2558263 C54.6926885,27.2199845 54.6926885,27.1841428 54.6941819,27.148301 L54.8569632,20.7460678 C54.8898182,19.4109625 53.8085919,18.3133088 52.4719932,18.3267495 L52.4719932,18.3267495 C51.1488352,18.3416836 50.4678418,16.7482189 51.3937538,15.8013993 L51.3937538,15.8013993 C52.3271328,14.8456192 52.2823306,13.3059172 51.2936956,12.4053932 L46.5566105,8.09691572 C46.5297292,8.07302122 46.5043413,8.04763331 46.4789534,8.02075199 L42.0674309,3.37924494 C41.1474926,2.4115176 39.6062972,2.39957034 38.6714248,3.35535043 L38.6699314,3.35535043 C37.7440194,4.30366349 36.1371141,3.65851193 36.1221801,2.33535387 L36.1221801,2.33535387 C36.107246,0.997261745 34.9871912,-0.0600699791 33.6520859,0.00265308922 L27.2558263,0.305814586 C27.2199846,0.307307993 27.1841428,0.307307993 27.1483011,0.305814586 L20.7460679,0.14303329 C19.4109626,0.110178349 18.3133089,1.19140458 18.3267495,2.52650989 L18.3267495,2.52650989 C18.3416836,3.85265476 16.748219,4.53215467 15.8013993,3.60773611 L15.8013993,3.60773611 C14.8456192,2.67137031 13.3059172,2.7161725 12.4068866,3.70480753 L8.09840916,8.443386 C8.07451466,8.47026732 8.04912675,8.49565523 8.02224544,8.52104314 L3.38073838,12.9325656 C2.41151763,13.8525039 2.40106378,15.3936993 3.35684387,16.3285717 L3.35684387,16.3285717 C4.30366353,17.2544837 3.65701856,18.8628824 2.3338605,18.8778164 L2.3338605,18.8778164 C0.997261779,18.8942439 -0.0600699453,20.0142987 0.00265312307,21.349404 L0.30581462,27.7456636 C0.307308027,27.7815053 0.307308027,27.8173471 0.30581462,27.8531888 L0.143033324,34.255422 C0.110178383,35.5905274 1.19140461,36.688181 2.52650992,36.6747404 L2.52800333,36.6747404 C3.85116139,36.6598063 4.5321547,38.2532709 3.60624274,39.1985972 L3.60624274,39.1985972 C2.67137034,40.1543773 2.71617253,41.6940793 3.70480756,42.5946033 L8.44338604,46.9030808 C8.47026735,46.9269753 8.49565526,46.9523632 8.52104317,46.9792445 L12.9325656,51.6207515 C13.852504,52.5899723 15.3936994,52.6004261 16.3285718,51.644646 L16.3285718,51.644646 C17.2544837,50.6978264 18.861389,51.342978 18.8763231,52.666136 L18.8763231,52.666136 C18.8927505,54.0042281 20.0128053,55.0600665 21.3479106,54.9973434 L27.7456636,54.6941819 C27.7815054,54.6926885 27.8173471,54.6926885 27.8531889,54.6941819 L34.2539287,54.8569632 C35.589034,54.8898181 36.6866877,53.8085919 36.6717536,52.4719932 L36.6717536,52.4690064 C36.6568195,51.1458483 38.2502842,50.464855 39.1971038,51.390767 L39.1985972,51.390767 C40.1543773,52.3271328 41.6940793,52.2823306 42.5931099,51.2922021 L46.9015874,46.5551171 C46.9254819,46.5282358 46.9508698,46.5028478 46.9777511,46.4774599 L51.6192582,42.0659375 C52.5884789,41.1459991 52.5989328,39.6048037 51.6431527,38.6699313 L51.6416593,38.6699313 C50.6948396,37.742526 51.3399912,36.1356207 52.6646426,36.1206866 L52.6676295,36.1206866 C54.0042282,36.1057526 55.0615599,34.9856978 54.9988368,33.6505925 L54.9973434,33.6520859 Z M49.9108013,29.6198886 C49.9048276,29.8737677 49.8361309,30.1261534 49.7032178,30.3426973 C49.292531,31.0042763 48.5637487,31.4508048 47.7244543,31.4597653 L45.8636699,31.480673 C45.2379327,31.4866466 44.6360899,31.2462082 44.188068,30.8071467 L43.6459615,30.2769874 C42.8305616,29.4795084 41.4491607,29.8573402 41.1698937,30.962461 C40.8592651,32.1945212 40.3858553,33.362365 39.7750521,34.4406044 C39.2105445,35.4367065 39.9378334,36.6702602 41.0832761,36.6583129 L41.8434199,36.6493525 C42.4676638,36.6433789 43.071,36.8838173 43.5190219,37.3228788 L44.849647,38.6236357 C45.4499964,39.2105444 45.6680337,40.0378916 45.5082392,40.7995288 C45.45597,41.0489277 45.3305239,41.2774189 45.1587821,41.4655881 L43.6026527,43.1770318 C43.5787582,43.2039131 43.5533703,43.229301 43.5264889,43.2546889 L41.850887,44.8481536 C41.6657046,45.0243755 41.4402002,45.1543019 41.1922948,45.2110513 C40.4336443,45.3887667 39.6033104,45.1886502 39.002961,44.6017415 L37.6723359,43.3009845 C37.2258074,42.8634165 36.9704349,42.2660539 36.9629679,41.6403166 L36.9540074,40.8816662 C36.9420602,39.7362235 35.692079,39.0358159 34.7094176,39.6212312 C33.6431255,40.2574223 32.4857355,40.7562201 31.2626357,41.0937299 C30.1634886,41.3968914 29.8185117,42.7872527 30.6324182,43.5832384 L31.1730313,44.1133976 C31.6195598,44.5509657 31.8749323,45.1483282 31.8823993,45.7740655 L31.903307,47.6348499 C31.9122674,48.4741443 31.4821664,49.2133804 30.8310412,49.6390013 C30.6174841,49.7778881 30.3680852,49.851065 30.1127127,49.8630122 L27.8039065,49.9720309 C27.7680647,49.9731509 27.732223,49.9731509 27.6963812,49.9720309 L25.3830947,49.913788 C25.1292156,49.9078144 24.8768299,49.8406111 24.6617794,49.7062045 C24.0002004,49.2955178 23.5536719,48.5667355 23.5447114,47.7259477 L23.5238038,45.8651633 C23.5163367,45.2409194 23.7582686,44.6375833 24.1958366,44.1895613 L24.7259959,43.6474548 C25.5234749,42.8320549 25.1471365,41.450654 24.0405224,41.171387 C22.8084621,40.8607585 21.6421117,40.3873487 20.5623789,39.7765455 C19.5662768,39.2120378 18.3327231,39.9393268 18.3446704,41.0847695 L18.3536308,41.8434199 C18.3596045,42.4676638 18.1176726,43.071 17.6801046,43.5190219 L16.3793476,44.849647 C15.7924389,45.4499963 14.9650917,45.6680337 14.2034545,45.5082392 C13.9540556,45.45597 13.7255644,45.3305238 13.5373952,45.1587821 L11.8259515,43.6026526 C11.7990702,43.5787581 11.7736823,43.5533702 11.7482944,43.5264889 L10.1548298,41.8508869 C9.97860781,41.6657045 9.84868145,41.4402002 9.79193201,41.1922947 C9.61421665,40.4336443 9.8143331,39.6033103 10.4027352,39.002961 L11.7034922,37.6723359 C12.1410603,37.2258073 12.7384228,36.9704349 13.3641601,36.9629678 L14.1228105,36.9540074 C15.2682532,36.9420601 15.9686608,35.692079 15.3832455,34.7094176 C14.7470544,33.6431254 14.2482567,32.4857355 13.9107468,31.2611422 C13.6075853,30.1619951 12.217224,29.8155248 11.4212384,30.6309247 L10.8910791,31.1730313 C10.453511,31.6210532 9.85764189,31.8749323 9.23190461,31.8823993 L7.37112025,31.9018136 C6.53182586,31.910774 5.7925897,31.480673 5.36696887,30.8295478 C5.22808208,30.6159907 5.15490517,30.3665918 5.14295792,30.1112193 L5.03393925,27.8009196 C5.03281919,27.7650779 5.03281919,27.7292361 5.03393925,27.6933944 L5.0921821,25.3816013 C5.09815572,25.1262288 5.16685242,24.8753365 5.30125899,24.6587926 C5.71194575,23.9972136 6.44072807,23.550685 7.28151587,23.5417246 L9.14230023,23.5208169 C9.7665441,23.5133499 10.3698803,23.7552817 10.8179022,24.1928498 L11.3600087,24.7230091 C12.1754086,25.5204881 13.5568095,25.1441497 13.8360765,24.0390289 C14.146705,22.8069687 14.6201149,21.6406183 15.2309181,20.5608854 C15.7954257,19.5647834 15.0681368,18.3312297 13.9226941,18.343177 L13.1625502,18.3521374 C12.536813,18.358111 11.9349702,18.1176726 11.4869483,17.6786111 L10.1563232,16.3778542 C9.5559738,15.7909454 9.33793646,14.9635983 9.49773095,14.201961 C9.55000017,13.9525622 9.67544631,13.724071 9.84718804,13.5359018 L11.4033175,11.8244581 C11.427212,11.7975768 11.4525999,11.7721888 11.4794812,11.7468009 L13.1550832,10.1533363 C13.3402656,9.97860777 13.56577,9.84718801 13.8136754,9.79043857 C14.5708325,9.61272321 15.4026598,9.81283966 16.0030092,10.4012418 L17.3336343,11.7019987 C17.7816562,12.1395668 18.0355353,12.7369294 18.0430023,13.3626667 L18.0519627,14.1213171 C18.06391,15.2667598 19.3138911,15.9671674 20.2965526,15.3817521 C21.3628447,14.745561 22.5202347,14.2467632 23.7448279,13.9092534 C24.843975,13.6060919 25.1904453,12.2157305 24.3750454,11.4197449 L23.8329389,10.8895857 C23.384917,10.4520176 23.1310379,9.85614845 23.1235708,9.23041117 L23.1041566,7.36962681 C23.0951961,6.53033242 23.5238038,5.79109626 24.1764224,5.36547543 C24.3899795,5.22658864 24.6393783,5.15341173 24.8947508,5.14146448 L27.2050505,5.03244581 C27.2408923,5.03132575 27.276734,5.03132575 27.3125758,5.03244581 L29.6243689,5.09068866 C29.8797414,5.09666228 30.1306336,5.16535898 30.3471776,5.29976555 C31.0087566,5.71045231 31.4552851,6.43923463 31.4642455,7.28002243 L31.4851532,9.14080679 C31.4911268,9.76505066 31.2506884,10.3683868 30.8116269,10.8164088 L30.2814677,11.3585153 C29.4839887,12.1739152 29.8618205,13.5553161 30.9669412,13.8345831 C32.1990015,14.1452116 33.3668453,14.6186214 34.4450847,15.2294246 C35.4411867,15.7939323 36.6747404,15.0666433 36.6627932,13.9212006 L36.6538327,13.1610568 C36.6478591,12.5353195 36.8882975,11.9334767 37.3258656,11.4854548 L38.628116,10.1548297 C39.2150247,9.55448036 40.0423718,9.33644302 40.8040091,9.49623751 C41.053408,9.54850673 41.2818991,9.67395287 41.4700683,9.8456946 L43.1815121,11.4018241 C43.2083934,11.4257186 43.2337813,11.4511065 43.2591692,11.4779878 L44.8526338,13.1535898 C45.0273624,13.3387721 45.1587821,13.5642765 45.2155316,13.812182 C45.3932469,14.569339 45.1931305,15.4011664 44.6062218,16.0030091 L43.3054648,17.3321408 C42.8678967,17.7801628 42.2705342,18.0340418 41.6447969,18.0415089 L40.8861464,18.0504693 C39.7407037,18.0624166 39.0402961,19.3123977 39.6257115,20.2950591 C40.2619026,21.3613513 40.7607003,22.5187412 41.0982102,23.7418411 C41.4013716,24.8409882 42.791733,25.185965 43.5877186,24.3720586 L44.1178779,23.8314454 C44.5554459,23.3834235 45.1528085,23.1295444 45.7785458,23.1220774 L47.6393301,23.1026631 C48.4786245,23.0937027 49.2178607,23.5223103 49.6434815,24.1749289 C49.7823683,24.388486 49.8555452,24.6378849 49.8674925,24.8932574 L49.9765111,27.2035571 C49.9776312,27.2393988 49.9776312,27.2752406 49.9765111,27.3110823 L49.9182683,29.6228754 L49.9108013,29.6198886 Z" id="Shape"></path>
                            <circle id="Oval" transform="translate(23.301893, 25.127086) rotate(-22.500000) translate(-23.301893, -25.127086) " cx="23.3018928" cy="25.1270864" r="2.37600957"></circle>
                            <circle id="Oval" transform="translate(31.632711, 25.126178) rotate(-22.500000) translate(-31.632711, -25.126178) " cx="31.632711" cy="25.1261782" r="2.37600957"></circle>
                        </g>
                    </g>
                </g>
            </g>
        </g>
    </g>
</svg>