<?xml version="1.0" encoding="UTF-8"?>
<svg width="169px" height="162px" viewBox="0 0 169 162" version="1.1" xmlns="http://www.w3.org/2000/svg" xmlns:xlink="http://www.w3.org/1999/xlink">
    <title>monster02</title>
    <g id="Page-1" stroke="none" stroke-width="1" fill="none" fill-rule="evenodd">
        <g id="homepage" transform="translate(-142.000000, -1200.000000)" fill="#FFFFFF" fill-rule="nonzero">
            <g id="TITLE-EVENT" transform="translate(142.000000, 1194.000000)">
                <g id="monster02" transform="translate(0.000000, 6.790275)">
                    <g id="Group" transform="translate(65.147970, 73.592512)">
                        <path d="M11.9686617,1.84832888 C4.57332684,-3.78507594 -3.7830607,4.57471959 1.84693613,11.9700544 C9.24227094,17.6000512 17.5986585,9.24366369 11.9686617,1.84832888 L11.9686617,1.84832888 Z" id="Path"></path>
                        <path d="M36.1926432,1.84832888 C28.7973083,-3.78507594 20.4409208,4.57471959 26.0709176,11.9700544 C26.0709176,11.9700544 26.0709176,11.9700544 26.0709176,11.9700544 C33.4662524,17.6034592 41.82264,9.24366369 36.1926432,1.84832888 Z" id="Path"></path>
                    </g>
                    <path d="M165.591418,87.7743512 L158.080211,83.6029734 C156.843112,82.9145598 155.384493,82.7475683 154.024705,83.136079 L139.339683,87.3347207 C137.979896,87.7232314 136.521277,87.55624 135.284177,86.8678263 L122.660988,79.8575942 L135.04221,72.4315875 C136.255454,71.702278 137.707257,71.4875747 139.080676,71.8317815 L153.89861,75.5396729 C155.272029,75.8838797 156.723832,75.6657685 157.937076,74.9398669 L165.305147,70.519706 C167.830466,69.0031512 168.651791,65.7280743 167.135237,63.1993469 C165.618682,60.6740275 162.343605,59.8527023 159.814878,61.3692572 L156.23649,63.5162898 C155.023246,64.2455994 153.571443,64.4603026 152.198024,64.1160958 L137.38009,60.4082044 C136.006671,60.0639976 134.554868,60.2821089 133.341624,61.0080104 L121.359137,68.1954579 C118.833817,69.7120127 115.555332,68.8906875 114.038777,66.3653681 L113.490091,65.4486193 L111.251043,61.716872 L110.702357,60.8035311 C109.185802,58.2782117 110.007127,54.9997268 112.532447,53.483172 L124.514934,46.2957245 C125.728178,45.566415 126.604031,44.387251 126.94483,43.0138317 L130.652721,28.1958981 C130.996928,26.8224788 131.869373,25.6433148 133.082617,24.9140053 L136.661004,22.7669726 C139.186324,21.2504178 140.007649,17.9753409 138.491094,15.4466135 C136.974539,12.9212941 133.699463,12.0999689 131.170735,13.6165238 L123.802664,18.0366847 C122.58942,18.7659942 121.713567,19.9451582 121.372769,21.3185775 L117.664877,36.1365111 C117.32067,37.5099304 116.448225,38.6890944 115.234981,39.4184039 L102.85376,46.8444106 L102.611792,32.4081718 C102.587936,30.9938566 103.126399,29.6272532 104.111307,28.6116727 L114.730599,17.6311341 C115.715508,16.6155536 116.25397,15.2489502 116.230114,13.834635 L116.086979,5.24650428 C116.039267,2.3020023 113.609371,-0.0495096872 110.664869,0.000792204855 C107.720367,0.0493219762 105.368855,2.4792177 105.419975,5.42371967 L105.488135,9.59509747 C105.511991,11.0094127 104.973528,12.376016 103.98862,13.3915965 L93.3693279,24.3721351 C92.3844192,25.3877157 91.8459571,26.754319 91.869813,28.1686342 L92.1015562,42.1379786 C92.149268,45.0824806 89.801164,47.5123763 86.8566621,47.5600882 L85.7899617,47.5771281 L81.4379605,47.6486959 L80.3712601,47.6657358 C77.4267582,47.7134477 74.9968624,45.3653437 74.9491506,42.4208417 L74.7174074,28.4514973 C74.6935515,27.0371821 74.1107855,25.6876187 73.0917969,24.706118 L62.1112583,14.0868262 C61.0956778,13.1019175 60.5095038,11.7557621 60.4856479,10.3414469 L60.4174881,6.17006913 C60.3697763,3.22556716 57.9398805,0.874055168 54.9953786,0.925174993 C52.0508766,0.972886831 49.6993646,3.40278256 49.7504844,6.34728453 L49.8936199,14.9354153 C49.9174758,16.3497305 50.5002419,17.6992939 51.5192304,18.6807945 L62.499769,29.3000864 C63.5153495,30.284995 64.1015235,31.6311504 64.1253795,33.0454656 L64.3673466,47.4817044 L51.7441576,40.4714723 C50.5070578,39.7830587 49.593717,38.6345666 49.2052063,37.2747792 L45.0065646,22.5897572 C44.6180539,21.2299698 43.704713,20.0780698 42.4676132,19.3930641 L34.9564068,15.2216863 C32.3799676,13.7903312 29.1321546,14.720712 27.7007995,17.2971512 C26.2694444,19.8735905 27.1998252,23.1214034 29.7762644,24.5527585 L33.422812,26.5771036 C34.6599118,27.2655173 35.5732527,28.4140094 35.9617634,29.7737967 L40.1604051,44.4588187 C40.5489158,45.8186061 41.4622566,46.9705062 42.6993564,47.6555119 L54.9135868,54.4374088 C57.4900261,55.8687639 58.4169989,59.1165768 56.9890518,61.693016 L56.4710375,62.6268049 L54.3580847,66.4301199 L53.8400705,67.3639087 C52.4087154,69.940348 49.1609024,70.8673208 46.5844632,69.4393737 L34.3702328,62.6574768 C33.133133,61.9690631 31.674514,61.8020717 30.3147266,62.1905824 L15.6297046,66.3892241 C14.2699172,66.7777347 12.8112982,66.6107433 11.5741984,65.9223296 L7.92765084,63.8979845 C5.35121162,62.4666294 2.10339868,63.3970102 0.672043554,65.9734495 C-0.759311572,68.5498887 0.17106926,71.7977016 2.74750849,73.2290568 L10.2587149,77.4004346 C11.4958147,78.0888482 12.9544337,78.2558396 14.3142211,77.867329 L28.9992431,73.6686873 C30.3590305,73.2801766 31.8176495,73.447168 33.0547493,74.1355817 L45.6779383,81.1458138 L33.2933085,88.5718205 C32.0800646,89.30113 30.6282615,89.5158333 29.2548422,89.1716265 L14.4369087,85.4637351 C13.0634894,85.1195283 11.6116863,85.3376395 10.3984424,86.0635411 L3.03037152,90.483702 C0.505052122,92.0002568 -0.316273081,95.2753337 1.20028175,97.8040611 C2.71683659,100.32938 5.99191344,101.150706 8.52064083,99.6341508 L12.0990286,97.4871182 C13.3122725,96.7578086 14.7640756,96.5431054 16.1374949,96.8873122 L30.9554284,100.595204 C32.3288477,100.93941 33.7806508,100.721299 34.9938947,99.9953976 L46.9763819,92.8079501 C49.5017013,91.2913952 52.7801861,92.1127205 54.2967409,94.6380399 L54.8454271,95.5547887 L57.0844754,99.286536 L57.6331616,100.199877 C59.1497164,102.725196 58.3283912,106.003681 55.8030718,107.520236 L43.8205846,114.707684 C42.6073407,115.436993 41.7314877,116.616157 41.3906889,117.989576 L37.6827975,132.80751 C37.3385907,134.180929 36.4661457,135.360093 35.2529018,136.089403 L31.674514,138.236435 C29.1491946,139.75299 28.3278694,143.028067 29.8444242,145.556794 C31.360979,148.082114 34.6360559,148.903439 37.1647833,147.386884 L44.5328542,142.966723 C45.7460981,142.237414 46.6219511,141.05825 46.9627499,139.68483 L50.6706413,124.866897 C51.0148481,123.493478 51.8872931,122.314314 53.100537,121.585004 L65.4817588,114.158997 L65.723726,128.595236 C65.7475819,130.009551 65.2091198,131.376155 64.2242111,132.391735 L53.6049193,143.368866 C52.6200106,144.384446 52.0815485,145.75105 52.1054044,147.165365 L52.2485399,155.753496 C52.2962517,158.697998 54.7261475,161.04951 57.6706494,160.999208 C60.6151514,160.950678 62.9666634,158.520782 62.9155436,155.57628 L62.8473838,151.404903 C62.8235279,149.990587 63.3619901,148.623984 64.3468987,147.608403 L74.9661905,136.627865 C75.9510992,135.612284 76.4895614,134.245681 76.4657054,132.831366 L76.2339622,118.862021 C76.1862504,115.917519 78.5343544,113.487624 81.4788564,113.439912 L82.5455567,113.422872 L86.8975579,113.351304 L87.9642583,113.334264 C90.9087603,113.286552 93.338656,115.634656 93.3863678,118.579158 L93.618111,132.548503 C93.6419669,133.962818 94.224733,135.312381 95.2437215,136.293882 L106.22426,146.913174 C107.239841,147.898082 107.826015,149.244238 107.849871,150.658553 L107.91803,154.829931 C107.965742,157.774433 110.395638,160.125945 113.34014,160.074825 C116.284642,160.027113 118.636154,157.597217 118.585034,154.652715 L118.441898,146.064585 C118.418043,144.65027 117.835277,143.300706 116.816288,142.319205 L105.835749,131.699914 C104.820169,130.715005 104.233995,129.36885 104.210139,127.954534 L103.968172,113.518296 L116.591361,120.528528 C117.828461,121.216941 118.741801,122.365433 119.130312,123.725221 L123.328954,138.410243 C123.717465,139.77003 124.630805,140.92193 125.867905,141.606936 L133.379112,145.778314 C135.955551,147.209669 139.203364,146.279288 140.634719,143.702849 C142.066074,141.12641 141.135693,137.878597 138.559254,136.447241 L134.912706,134.422896 C133.675607,133.734483 132.762266,132.585991 132.373755,131.226203 L128.175113,116.541181 C127.786603,115.181394 126.873262,114.029494 125.636162,113.344488 L113.421932,106.562591 C110.845492,105.131236 109.91852,101.883423 111.346467,99.306984 L111.864481,98.3731951 L113.977434,94.5698801 L114.495448,93.6360913 C115.926803,91.059652 119.174616,90.1326792 121.751055,91.5606263 L133.965286,98.3425232 C135.202385,99.0309369 136.661004,99.1979283 138.020792,98.8094176 L152.705814,94.6107759 C154.065601,94.2222653 155.52422,94.3892567 156.76132,95.0776704 L160.407868,97.1020155 C162.984307,98.5333706 166.23212,97.6029898 167.663475,95.0265505 C169.09483,92.4501113 168.164449,89.2022984 165.58801,87.7709432 L165.591418,87.7743512 Z M102.536817,93.1930528 L97.3634903,102.507085 L86.7101185,102.6843 L82.3581174,102.755868 L71.7047457,102.933084 L66.2247003,93.7962667 L63.9856519,90.0645194 L58.5056066,80.9277025 L63.678933,71.6136703 L65.7918858,67.8103552 L70.9652122,58.4963229 L81.6151759,58.3191075 L85.9671771,58.2475398 L96.6171408,58.0703244 L102.097186,67.2071413 L104.336235,70.9388886 L109.81628,80.0757054 L104.642953,89.3897377 L102.530001,93.1930528 L102.536817,93.1930528 Z" id="Shape"></path>
                </g>
            </g>
        </g>
    </g>
</svg>