<?xml version="1.0" encoding="UTF-8"?>
<svg width="62px" height="56px" viewBox="0 0 62 56" version="1.1" xmlns="http://www.w3.org/2000/svg" xmlns:xlink="http://www.w3.org/1999/xlink">
    <title>monster03</title>
    <g id="Page-1" stroke="none" stroke-width="1" fill="none" fill-rule="evenodd">
        <g id="homepage" transform="translate(-337.000000, -2431.000000)" fill="#FFFFFF" fill-rule="nonzero">
            <g id="SECTION-RESERVATION" transform="translate(12.000000, 1411.000000)">
                <g id="BUTTON" transform="translate(298.000000, 1003.000000)">
                    <g id="monster03" transform="translate(27.749204, 17.200167)">
                        <g id="Group" transform="translate(24.210278, 26.757376)">
                            <path d="M3.94908552,0.609524376 C1.50908926,-1.24840049 -1.24840049,1.50908926 0.609524376,3.94908552 C3.04952063,5.80701038 5.80701038,3.04952063 3.94908552,0.609524376 L3.94908552,0.609524376 Z" id="Path"></path>
                            <path d="M11.942866,0.609524376 C9.50286977,-1.24840049 6.74538003,1.50908926 8.60330489,3.94908552 C8.60330489,3.94908552 8.60330489,3.94908552 8.60330489,3.94908552 C11.0433011,5.80701038 13.8007909,3.04952063 11.942866,0.609524376 Z" id="Path"></path>
                        </g>
                        <path d="M60.9776068,29.2953796 C60.9729032,28.4216846 60.1921044,27.733782 59.2913636,27.8819456 C58.5881743,27.997184 58.0907678,28.6380505 58.0942955,29.3518229 L58.101351,30.77584 C58.1060546,31.5719255 57.4640122,32.2210233 56.6679266,32.224551 L54.5042673,32.2363101 C54.0033331,32.2386619 53.537676,31.9811394 53.2730981,31.5566388 L48.8705217,24.4859412 C48.3237274,23.6087185 47.058457,23.5746173 46.4658025,24.4212666 L45.0864697,26.3909022 L42.68763,22.2870048 L42.3560257,21.7202202 L39.957186,17.6163228 L42.3501462,17.3811425 C43.3790603,17.2800149 43.9705389,16.1605564 43.4743083,15.2539361 L39.4750663,7.94805815 C39.2351823,7.50944677 39.2398859,6.97676325 39.4868253,6.54167958 L40.5592477,4.66141259 C40.9531748,3.96998232 41.8339253,3.72892245 42.5253556,4.12284956 L43.7624043,4.82839064 C44.3821045,5.18116119 45.1840696,5.06239511 45.6309122,4.50619355 C46.2012246,3.79477295 45.9848587,2.77644198 45.226402,2.34371012 L41.4482295,0.189458 C40.7567992,-0.204469106 39.8760488,0.0354148631 39.4821217,0.72802103 L36.1837171,6.51228204 C35.9356018,6.94736571 35.9308982,7.48004923 36.1719581,7.9186606 L38.8494865,12.8104121 C39.3457171,13.7170324 38.7542385,14.836491 37.7253244,14.9376185 L33.51442,15.35036 L31.9833958,12.0672422 L34.5597967,6.38646054 C34.8549481,5.73736274 34.6621002,4.94950853 34.0670938,4.55558142 C33.3062854,4.05347135 32.3114724,4.36273353 31.9504706,5.15764315 L30.377114,8.62537759 L28.783767,5.21055873 C28.4827361,4.56381274 27.7583806,4.19810727 27.0728299,4.39448288 C26.1956071,4.64612586 25.7840415,5.60095813 26.1532747,6.39351596 L28.807285,12.0837048 L27.310362,15.3821094 L23.0959299,15.0140521 C22.06584,14.9246836 21.4626023,13.8111046 21.9494257,12.8986048 L24.5752144,7.9786316 C24.8103948,7.53649252 24.8009876,7.0049849 24.5481687,6.57225303 L21.1886172,0.823269076 C20.7864588,0.135366517 19.9033565,-0.0951102379 19.2166299,0.30587228 L15.4984283,2.47893883 C14.8822558,2.83876478 14.5847526,3.59369374 14.843451,4.25807827 C15.1738794,5.10825528 16.1639888,5.42927647 16.9189177,4.98948919 L18.1830122,4.25102286 C18.8709147,3.84886444 19.7528411,4.08051709 20.1549995,4.76841965 L21.2474123,6.63692763 C21.5002312,7.0696595 21.5108143,7.60116711 21.274458,8.0433062 L17.3528255,15.3915166 C16.8660021,16.3040164 17.4692398,17.4164195 18.4993298,17.506964 L20.8946418,17.7162745 L18.5393104,21.8460417 L18.2135856,22.416354 L15.8582543,26.5461212 L14.4589311,24.5905965 C13.8568694,23.7498267 12.5915991,23.7968628 12.0553878,24.6811409 L7.72806918,31.7976987 C7.46819488,32.2257269 7.00488956,32.487953 6.50395539,32.4903048 L4.34029606,32.5020639 C3.54421053,32.5067675 2.89511273,31.8647251 2.89158503,31.0686396 L2.88452962,29.6446225 C2.88100191,28.9308501 2.37654003,28.2958631 1.67217485,28.1876801 C0.769082259,28.0489237 -0.00466113308,28.7450576 2.11407948e-05,29.6187526 L0.0235605104,33.9660616 C0.0282641176,34.7621471 0.676186015,35.4041895 1.47227154,35.3994859 L8.1302276,35.3642089 C8.63116177,35.3618571 9.09446708,35.099631 9.35434138,34.6716027 L12.2517634,29.9068486 C12.7891506,29.0237463 14.0544209,28.9755343 14.6553067,29.8163041 L17.1176451,33.2558169 L15.0410025,36.2237931 L8.83224098,36.8329102 C8.12199628,36.9022884 7.53639718,37.4631936 7.49288881,38.1746142 C7.43879733,39.0847622 8.20313351,39.7914792 9.07212495,39.7056384 L12.8620565,39.3340534 L10.6784068,42.4537209 C10.1774726,43.1698451 10.4173566,44.1822966 11.2369602,44.5821032 C11.8778267,44.8937171 12.6539219,44.6585368 13.0631357,44.0741136 L16.640229,38.9636443 L20.245544,38.6096979 L22.0340906,42.4431378 C22.4715261,43.3803315 21.8094934,44.4586335 20.7758757,44.4939105 L15.203277,44.679703 C14.7035187,44.6961656 14.2472688,44.9713267 13.9991535,45.4064103 L10.700749,51.1906713 C10.3068218,51.8821016 10.5467058,52.7628521 11.239312,53.1567792 L14.9810315,55.2898651 C15.6007318,55.6426356 16.4026968,55.5238695 16.8495395,54.967668 C17.4198519,54.2562474 17.203486,53.2379164 16.4450293,52.8051845 L15.1727035,52.0796531 C14.4812733,51.685726 14.2402134,50.8049756 14.6341405,50.1135453 L15.706563,48.2332783 C15.9546782,47.7981946 16.4109281,47.5230336 16.9106864,47.506571 L25.2348953,47.2290581 C26.268513,47.194957 26.9305457,46.1154791 26.4931103,45.1782854 L25.4771311,42.9993393 L30.2313021,42.9746454 L30.8874553,42.9711177 L35.6416264,42.9464237 L34.6479893,45.1359529 C34.221137,46.0778503 34.8949287,47.1490968 35.9285464,47.1726149 L44.2551071,47.361935 C44.7560413,47.3736941 45.214643,47.6429756 45.4674619,48.0757074 L46.5598747,49.9442154 C46.9620331,50.632118 46.7303804,51.5140443 46.0424779,51.9162028 L44.8136605,52.6346788 C44.1974879,52.9945047 43.8999848,53.7482578 44.1586832,54.4138182 C44.4891116,55.2639952 45.4792209,55.5861923 46.2341499,55.1452291 L49.9876285,52.9509964 C50.675531,52.5488379 50.9060078,51.6669116 50.5050253,50.979009 L47.1454738,45.2300251 C46.8926549,44.7972932 46.4340532,44.5280117 45.933119,44.5162527 L40.3581685,44.3892553 C39.3245508,44.3657372 38.6507591,43.2944907 39.0776115,42.3525933 L40.8250015,38.500339 L44.4338442,38.8154807 L48.065029,43.8871452 C48.4801223,44.4668648 49.2585693,44.6949897 49.897084,44.3751445 C50.7131599,43.9671065 50.9424607,42.9523033 50.4332952,42.2408827 L48.2167203,39.1447332 L52.0101796,39.4763375 C52.8803469,39.5527711 53.6376277,38.8378228 53.574129,37.9288507 C53.5235652,37.2174301 52.9320866,36.6635804 52.220666,36.6012576 L46.0060249,36.0591668 L43.897633,33.1135328 L46.3235184,29.6481502 C46.9161729,28.8015009 48.1814433,28.835602 48.7282376,29.7128248 L51.6762235,34.4458296 C51.9408014,34.8703301 52.4064585,35.1278526 52.9073927,35.1255008 L59.5665246,35.0902238 C60.3626101,35.0855201 61.0046525,34.4375982 60.9999746,33.6415127 L60.9764309,29.2942037 L60.9776068,29.2953796 Z M33.1005026,40.0795751 C32.8112307,40.080751 32.5407733,39.997262 32.3138242,39.8514502 L32.2997134,37.1856808 C32.2950098,36.3884193 31.6482638,35.7440252 30.8498265,35.7440252 L30.8498265,35.7440252 C30.7369399,35.7440252 30.627581,35.758136 30.5217499,35.7840058 C30.4159187,35.7604878 30.3065598,35.7475529 30.1936733,35.7475529 L30.1936733,35.7475529 C29.3987637,35.7475529 28.7555454,36.3942989 28.760249,37.1892085 L28.7743598,39.8702646 C28.5497625,40.0184282 28.280481,40.105445 27.9912092,40.1066209 L25.8275499,40.1183959 C25.3266157,40.1207317 24.8609586,39.8632092 24.5963807,39.4387086 L21.8776957,35.0725852 C21.8330114,34.931477 21.765985,34.7938965 21.6754406,34.6668991 L21.4332048,34.3282394 L21.2568195,33.9507749 C21.190969,33.8096667 21.1039523,33.6838452 21.0028247,33.5756622 L18.5334309,29.0649029 C18.2935469,28.6262915 18.2982506,28.093608 18.5451899,27.6585243 L19.6176124,25.7782573 C19.7610724,25.5266143 19.969207,25.3349423 20.209091,25.2114726 L23.0559493,26.835393 C23.6991676,27.2022744 24.4976049,26.7377932 24.4976049,25.9981509 L24.4976049,25.9981509 C24.5540482,25.9005511 24.5963807,25.7982476 24.6269541,25.6935924 C24.7010359,25.6136311 24.7668864,25.5254384 24.8221538,25.4266627 L24.8221538,25.4266627 C25.4159842,24.9809959 25.3595409,24.0731997 24.7139708,23.7051424 L21.9611847,22.1353135 C21.945898,21.866032 22.0046931,21.5896951 22.1481531,21.3380521 L23.2205755,19.4577851 C23.4686908,19.0227014 23.9249407,18.7475404 24.424699,18.7310778 L29.5645658,18.5593961 C29.7092017,18.5911454 29.8608931,18.6017286 30.0161121,18.5864418 L30.4300295,18.5452853 L30.8451229,18.5817382 C31.0003419,18.595849 31.1520333,18.5817382 31.2966692,18.548813 L36.4388878,18.6652273 C36.939822,18.6769863 37.3984237,18.9462678 37.6512426,19.3789997 L38.7436553,21.2475076 C38.8894672,21.4979747 38.95179,21.7731357 38.938855,22.0424173 L36.6305598,23.3911766 C35.9426572,23.7933351 35.7121805,24.6764373 36.113163,25.363164 L36.113163,25.363164 C36.1696063,25.4607638 36.2366327,25.5489565 36.3118904,25.6277419 C36.3436397,25.7312212 36.3871481,25.8323488 36.4447673,25.9299486 L36.4447673,25.9299486 C37.1326699,26.4461695 38.3038681,26.5131959 39.0458621,26.0792882 L40.723874,25.0985861 C40.9649339,25.2197039 41.1742444,25.4090241 41.3212321,25.6583153 L42.4136449,27.5268233 C42.6664638,27.9595552 42.6770469,28.4910628 42.4406906,28.9332019 L40.0195088,33.471007 C39.9195572,33.5803658 39.8337163,33.7061873 39.7690417,33.8484714 L39.5973601,34.2282877 L39.358652,34.5692992 C39.2692835,34.6974725 39.203433,34.8350531 39.1611005,34.9761613 L36.4894516,39.3705063 C36.2295773,39.7985346 35.766272,40.0607607 35.2653378,40.0631125 L33.1016785,40.0748715 L33.1005026,40.0795751 Z" id="Shape"></path>
                    </g>
                </g>
            </g>
        </g>
    </g>
</svg>