<?xml version="1.0" encoding="UTF-8"?>
<svg id="Calque_2" data-name="Calque 2" xmlns="http://www.w3.org/2000/svg" xmlns:xlink="http://www.w3.org/1999/xlink" viewBox="0 0 4610.13 97.42">
  <defs>
    <style>
      .cls-1 {
        fill: none;
      }

      .cls-2 {
        clip-path: url(#clippath);
      }

      .cls-3 {
        clip-path: url(#clippath-1);
      }

      .cls-4 {
        clip-path: url(#clippath-4);
      }

      .cls-5 {
        clip-path: url(#clippath-3);
      }

      .cls-6 {
        clip-path: url(#clippath-2);
      }

      .cls-7 {
        clip-path: url(#clippath-7);
      }

      .cls-8 {
        clip-path: url(#clippath-8);
      }

      .cls-9 {
        clip-path: url(#clippath-6);
      }

      .cls-10 {
        clip-path: url(#clippath-5);
      }

      .cls-11 {
        clip-path: url(#clippath-9);
      }

      .cls-12 {
        clip-path: url(#clippath-10);
      }

      .cls-13 {
        clip-path: url(#clippath-11);
      }
    </style>
    <clipPath id="clippath">
      <path class="cls-1" d="m1614.94,41.12c-4.99-3.8-10.64,1.84-6.84,6.84,4.99,3.8,10.64-1.84,6.84-6.84Z"/>
    </clipPath>
    <clipPath id="clippath-1">
      <path class="cls-1" d="m1631.3,41.12c-4.99-3.8-10.64,1.84-6.84,6.84,4.99,3.8,10.64-1.84,6.84-6.84Z"/>
    </clipPath>
    <clipPath id="clippath-2">
      <path class="cls-1" d="m1646.66,74.56l-11.18.16c-.78.01-1.54-.29-2.1-.83l-6.06-5.89c-.56-.55-1.32-.85-2.1-.83l-4.75.07c-.17,0-.33.02-.49.05-.16-.02-.32-.04-.49-.03l-4.75.07c-.78.01-1.53.33-2.07.89l-5.89,6.06c-.55.56-1.29.88-2.07.89l-11.18.16c-.28,0-.56.05-.81.13.07-.26.11-.53.1-.82l-.16-11.18c-.01-.78.29-1.54.83-2.1l5.89-6.06c.55-.56.85-1.32.83-2.1l-.07-4.75c0-.17-.02-.33-.05-.49.02-.16.04-.32.03-.49l-.07-4.75c-.01-.78-.33-1.53-.89-2.07l-6.06-5.89c-.56-.55-.88-1.29-.89-2.07l-.16-11.18c0-.28-.05-.56-.13-.81.26.07.54.11.82.1l11.18-.16c.78-.01,1.54.29,2.1.83l6.06,5.89c.56.55,1.32.85,2.1.83l4.75-.07c.17,0,.33-.02.49-.05.16.02.32.04.49.03l4.75-.07c.78-.01,1.53-.33,2.07-.89l5.89-6.06c.55-.56,1.29-.88,2.07-.89l11.18-.16c.28,0,.56-.05.81-.13-.07.26-.11.53-.1.82l.16,11.18c.01.78-.29,1.54-.83,2.1l-5.89,6.06c-.55.56-.85,1.32-.83,2.1l.07,4.75c0,.17.02.33.05.49-.02.16-.04.32-.03.49l.07,4.75c.01.78.33,1.53.89,2.07l6.06,5.89c.56.55.88,1.29.89,2.07l.16,11.18c0,.28.05.56.13.81-.26-.07-.53-.11-.82-.1Zm12.49-3.83l-3,.04c-1.63.02-2.97-1.28-2.99-2.91l-.11-7.73c-.01-.78-.33-1.53-.89-2.07l-6.06-5.89c-.56-.55-.88-1.29-.89-2.07l-.03-2.31c0-.17-.02-.33-.05-.49.02-.16.04-.32.03-.49l-.03-2.31c-.01-.78.29-1.54.83-2.1l5.89-6.06c.55-.56.85-1.32.83-2.1l-.11-7.73c-.02-1.63,1.28-2.97,2.91-2.99l3-.04c1.63-.02,2.93-1.36,2.91-2.99-.02-1.63-1.36-2.93-2.99-2.91l-8.9.13c-.28,0-.56.05-.81.13.07-.26.11-.53.1-.82l-.13-8.9c-.03-1.63-1.37-2.93-3-2.91-1.63.02-2.93,1.36-2.91,2.99l.04,3c.02,1.63-1.28,2.97-2.91,2.99l-7.73.11c-.78.01-1.53.33-2.07.89l-5.89,6.06c-.55.56-1.29.88-2.07.89l-2.31.03c-.17,0-.33.02-.49.05-.16-.02-.32-.04-.49-.03l-2.31.03c-.78.01-1.54-.29-2.1-.83l-6.06-5.89c-.56-.55-1.32-.85-2.1-.83l-7.73.11c-1.63.02-2.97-1.28-2.99-2.91l-.04-3c-.02-1.63-1.36-2.93-2.99-2.91-1.63.02-2.93,1.36-2.91,2.99l.13,8.9c0,.28.05.56.13.81-.26-.07-.54-.11-.82-.1l-8.9.13c-1.63.03-2.93,1.37-2.91,3,.02,1.63,1.36,2.93,2.99,2.91l3-.04c1.63-.02,2.97,1.28,2.99,2.91l.11,7.73c.01.78.33,1.53.89,2.07l6.06,5.89c.56.55.88,1.29.89,2.07l.03,2.31c0,.17.02.33.05.49-.02.16-.04.32-.03.49l.03,2.31c.01.78-.29,1.54-.83,2.1l-5.89,6.06c-.55.56-.85,1.32-.83,2.1l.11,7.73c.02,1.63-1.28,2.97-2.91,2.99l-3,.04c-1.63.02-2.93,1.36-2.91,2.99.02,1.63,1.36,2.93,2.99,2.91l8.9-.13c.28,0,.56-.05.81-.13-.07.26-.11.53-.1.82l.13,8.9c.02,1.63,1.36,2.93,2.99,2.91,1.63-.02,2.93-1.36,2.91-2.99l-.04-3c-.02-1.63,1.28-2.97,2.91-2.99l7.73-.11c.78-.01,1.53-.33,2.07-.89l5.89-6.06c.55-.56,1.29-.88,2.07-.89l2.31-.03c.17,0,.33-.02.49-.05.16.02.32.04.49.03l2.31-.03c.78-.01,1.54.29,2.1.83l6.06,5.89c.56.55,1.32.85,2.1.83l7.73-.11c1.63-.02,2.97,1.28,2.99,2.91l.04,3c.02,1.63,1.36,2.93,2.99,2.91,1.63-.02,2.93-1.36,2.91-2.99l-.13-8.9c0-.28-.05-.56-.13-.81.26.07.53.11.82.1l8.9-.13c1.63-.02,2.93-1.36,2.91-2.99-.02-1.63-1.36-2.93-2.99-2.91h0Z"/>
    </clipPath>
    <clipPath id="clippath-3">
      <path class="cls-1" d="m3935.14,41.12c-4.99-3.8-10.64,1.84-6.83,6.84,4.99,3.8,10.64-1.84,6.83-6.84Z"/>
    </clipPath>
    <clipPath id="clippath-4">
      <path class="cls-1" d="m3951.51,41.12c-5-3.8-10.64,1.84-6.83,6.84,4.99,3.8,10.64-1.84,6.83-6.84Z"/>
    </clipPath>
    <clipPath id="clippath-5">
      <path class="cls-1" d="m3966.86,74.56l-11.18.16c-.78.01-1.54-.29-2.1-.83l-6.06-5.89c-.56-.55-1.32-.85-2.1-.83l-4.75.07c-.17,0-.33.02-.49.05-.16-.02-.32-.04-.49-.03l-4.75.07c-.78.01-1.53.33-2.07.89l-5.89,6.06c-.55.56-1.29.88-2.07.89l-11.18.16c-.28,0-.56.05-.81.13.07-.26.11-.53.1-.82l-.16-11.18c-.01-.78.29-1.54.83-2.1l5.89-6.06c.55-.56.85-1.32.83-2.1l-.07-4.75c0-.17-.02-.33-.05-.49.03-.16.04-.32.03-.49l-.07-4.75c-.01-.78-.33-1.53-.9-2.07l-6.06-5.89c-.56-.55-.88-1.29-.89-2.07l-.16-11.18c0-.28-.05-.56-.13-.81.26.07.53.11.81.1l11.18-.16c.78-.01,1.54.29,2.1.83l6.06,5.89c.56.55,1.31.85,2.1.83l4.75-.07c.16,0,.33-.02.48-.05.16.02.32.04.49.03l4.75-.07c.78-.01,1.53-.33,2.08-.89l5.89-6.06c.55-.56,1.29-.88,2.08-.89l11.18-.16c.28,0,.56-.05.81-.13-.07.26-.11.53-.1.82l.16,11.18c0,.78-.29,1.54-.84,2.1l-5.89,6.06c-.54.56-.84,1.32-.83,2.1l.07,4.75c0,.17.02.33.05.49-.02.16-.03.32-.03.49l.07,4.75c0,.78.33,1.53.89,2.07l6.06,5.89c.56.55.88,1.29.89,2.07l.16,11.18c0,.28.05.56.13.81-.26-.07-.53-.11-.82-.1Zm12.49-3.83l-3,.04c-1.63.02-2.97-1.28-2.99-2.91l-.11-7.73c0-.78-.33-1.53-.89-2.07l-6.06-5.89c-.56-.55-.88-1.29-.89-2.07l-.03-2.31c0-.17-.02-.33-.05-.49.02-.16.03-.32.03-.49l-.03-2.31c-.01-.78.29-1.54.83-2.1l5.89-6.06c.54-.56.85-1.32.83-2.1l-.11-7.73c-.03-1.63,1.28-2.97,2.91-2.99l3-.04c1.63-.02,2.93-1.36,2.91-2.99-.02-1.63-1.36-2.93-2.99-2.91l-8.9.13c-.29,0-.56.05-.82.13.07-.26.11-.53.11-.82l-.13-8.9c-.03-1.63-1.36-2.93-3-2.91-1.63.02-2.93,1.36-2.91,2.99l.04,3c.02,1.63-1.28,2.97-2.91,2.99l-7.72.11c-.78.01-1.53.33-2.07.89l-5.89,6.06c-.55.56-1.29.88-2.08.89l-2.3.03c-.17,0-.33.02-.49.05-.16-.02-.32-.04-.49-.03l-2.31.03c-.78.01-1.54-.29-2.1-.83l-6.06-5.89c-.56-.55-1.32-.85-2.1-.83l-7.72.11c-1.63.02-2.97-1.28-2.99-2.91l-.04-3c-.03-1.63-1.36-2.93-2.99-2.91-1.63.02-2.93,1.36-2.91,2.99l.13,8.9c0,.28.05.56.13.81-.26-.07-.53-.11-.82-.1l-8.9.13c-1.63.03-2.93,1.37-2.91,3,.02,1.63,1.36,2.93,2.99,2.91l3-.04c1.63-.02,2.97,1.28,2.99,2.91l.11,7.73c.01.78.33,1.53.9,2.07l6.06,5.89c.56.55.88,1.29.89,2.07l.03,2.31c0,.17.02.33.05.49-.02.16-.04.32-.03.49l.03,2.31c.01.78-.29,1.54-.83,2.1l-5.89,6.06c-.55.56-.85,1.32-.83,2.1l.11,7.73c.02,1.63-1.28,2.97-2.91,2.99l-3,.04c-1.63.02-2.93,1.36-2.91,2.99.03,1.63,1.36,2.93,2.99,2.91l8.9-.13c.28,0,.56-.05.81-.13-.07.26-.11.53-.1.82l.13,8.9c.02,1.63,1.36,2.93,2.99,2.91,1.63-.02,2.93-1.36,2.91-2.99l-.04-3c-.03-1.63,1.28-2.97,2.91-2.99l7.72-.11c.78-.01,1.53-.33,2.07-.89l5.89-6.06c.54-.56,1.29-.88,2.07-.89l2.31-.03c.16,0,.33-.02.49-.05.16.02.32.04.49.03l2.31-.03c.78-.01,1.53.29,2.1.83l6.06,5.89c.56.55,1.31.85,2.1.83l7.72-.11c1.63-.02,2.97,1.28,2.99,2.91l.04,3c.02,1.63,1.36,2.93,2.99,2.91,1.63-.02,2.93-1.36,2.91-2.99l-.13-8.9c0-.28-.05-.56-.13-.81.26.07.54.11.82.1l8.9-.13c1.63-.02,2.93-1.36,2.91-2.99-.02-1.63-1.36-2.93-2.99-2.91h0Z"/>
    </clipPath>
    <clipPath id="clippath-6">
      <path class="cls-1" d="m2239.68,48.15c-3.73-2.84-7.95,1.38-5.11,5.11,3.73,2.84,7.95-1.38,5.11-5.11Z"/>
    </clipPath>
    <clipPath id="clippath-7">
      <path class="cls-1" d="m2251.91,48.15c-3.73-2.84-7.95,1.38-5.11,5.11,3.73,2.84,7.95-1.38,5.11-5.11Z"/>
    </clipPath>
    <clipPath id="clippath-8">
      <path class="cls-1" d="m2247.24,67.6c-.44,0-.86-.13-1.2-.35l-.02-4.08c0-1.22-1-2.21-2.22-2.21-.17,0-.34.02-.5.06-.16-.04-.33-.06-.5-.06-1.22,0-2.2.99-2.19,2.21l.02,4.1c-.34.23-.76.36-1.2.36l-3.31.02c-.77,0-1.48-.39-1.88-1.04l-4.16-6.68c-.07-.22-.17-.43-.31-.62l-.37-.52-.27-.58c-.1-.22-.23-.41-.39-.57l-3.78-6.9c-.37-.67-.36-1.49.02-2.15l1.64-2.88c.22-.38.54-.68.9-.87l4.35,2.48c.98.56,2.21-.15,2.21-1.28.09-.15.15-.31.2-.47.11-.12.21-.26.3-.41.91-.68.82-2.07-.17-2.63l-4.21-2.4c-.02-.41.07-.83.29-1.22l1.64-2.88c.38-.67,1.08-1.09,1.84-1.11l7.86-.26c.22.05.45.06.69.04l.63-.06.63.06c.24.02.47,0,.69-.05l7.87.18c.77.02,1.47.43,1.85,1.09l1.67,2.86c.22.38.32.8.3,1.22l-3.53,2.06c-1.05.62-1.41,1.97-.79,3.02.09.15.19.28.3.4.05.16.12.31.2.46,1.05.79,2.84.89,3.98.23l2.57-1.5c.37.19.69.47.91.86l1.67,2.86c.39.66.4,1.48.04,2.15l-3.7,6.94c-.15.17-.28.36-.38.58l-.26.58-.37.52c-.14.2-.24.41-.3.62l-4.09,6.72c-.4.65-1.11,1.06-1.87,1.06l-3.31.02h0Zm42.64-16.5c0-1.34-1.2-2.39-2.58-2.16-1.08.18-1.84,1.16-1.83,2.25v2.18c.02,1.22-.96,2.21-2.18,2.22l-3.31.02c-.77,0-1.48-.39-1.88-1.04l-6.73-10.82c-.84-1.34-2.77-1.39-3.68-.1l-2.11,3.01-3.67-6.28-.51-.87-3.67-6.28,3.66-.36c1.57-.15,2.48-1.87,1.72-3.25l-6.12-11.18c-.37-.67-.36-1.49.02-2.15l1.64-2.88c.6-1.06,1.95-1.43,3.01-.82l1.89,1.08c.95.54,2.17.36,2.86-.49.87-1.09.54-2.65-.62-3.31l-5.78-3.3c-1.06-.6-2.41-.24-3.01.82l-5.05,8.85c-.38.67-.39,1.48-.02,2.15l4.1,7.48c.76,1.39-.15,3.1-1.72,3.25l-6.44.63-2.34-5.02,3.94-8.69c.45-.99.16-2.2-.75-2.8-1.16-.77-2.69-.3-3.24.92l-2.41,5.3-2.44-5.22c-.46-.99-1.57-1.55-2.62-1.25-1.34.38-1.97,1.85-1.41,3.06l4.06,8.7-2.29,5.05-6.45-.56c-1.58-.14-2.5-1.84-1.75-3.24l4.02-7.53c.36-.68.35-1.49-.04-2.15l-5.14-8.79c-.62-1.05-1.97-1.4-3.02-.79l-5.69,3.32c-.94.55-1.4,1.71-1,2.72.51,1.3,2.02,1.79,3.18,1.12l1.93-1.13c1.05-.62,2.4-.26,3.02.79l1.67,2.86c.39.66.4,1.48.04,2.15l-6,11.24c-.74,1.4.18,3.1,1.75,3.24l3.66.32-3.6,6.32-.5.87-3.6,6.32-2.14-2.99c-.92-1.29-2.86-1.21-3.68.14l-6.62,10.89c-.4.65-1.11,1.06-1.87,1.06l-3.31.02c-1.22,0-2.21-.97-2.22-2.19v-2.18c-.02-1.09-.79-2.06-1.87-2.23-1.38-.21-2.57.85-2.56,2.19l.04,6.65c0,1.22,1,2.2,2.22,2.19l10.19-.05c.77,0,1.48-.4,1.87-1.06l4.43-7.29c.82-1.35,2.76-1.42,3.68-.14l3.77,5.26-3.18,4.54-9.5.93c-1.09.11-1.98.96-2.05,2.05-.08,1.39,1.09,2.47,2.42,2.34l5.8-.57-3.34,4.77c-.77,1.1-.4,2.64.85,3.26.98.48,2.17.12,2.79-.78l5.47-7.82,5.52-.54,2.74,5.86c.67,1.43-.34,3.08-1.92,3.14l-8.52.28c-.76.03-1.46.45-1.84,1.11l-5.05,8.85c-.6,1.06-.24,2.41.82,3.01l5.72,3.26c.95.54,2.17.36,2.86-.49.87-1.09.54-2.65-.62-3.31l-1.95-1.11c-1.06-.6-1.43-1.95-.82-3.01l1.64-2.88c.38-.67,1.08-1.09,1.84-1.11l12.73-.42c1.58-.05,2.59-1.7,1.92-3.14l-1.55-3.33,7.27-.04h1s7.27-.04,7.27-.04l-1.52,3.35c-.65,1.44.38,3.08,1.96,3.12l12.74.29c.77.02,1.47.43,1.85,1.09l1.67,2.86c.62,1.05.26,2.4-.79,3.02l-1.88,1.1c-.94.55-1.4,1.7-1,2.72.51,1.3,2.02,1.79,3.18,1.12l5.74-3.36c1.05-.62,1.4-1.96.79-3.02l-5.14-8.79c-.39-.66-1.09-1.07-1.85-1.09l-8.53-.19c-1.58-.04-2.61-1.67-1.96-3.12l2.67-5.89,5.52.48,5.55,7.76c.63.89,1.83,1.24,2.8.75,1.25-.62,1.6-2.18.82-3.26l-3.39-4.74,5.8.51c1.33.12,2.49-.98,2.39-2.37-.08-1.09-.98-1.94-2.07-2.03l-9.51-.83-3.23-4.51,3.71-5.3c.91-1.3,2.84-1.24,3.68.1l4.51,7.24c.4.65,1.12,1.04,1.88,1.04l10.19-.05c1.22,0,2.2-1,2.19-2.22l-.04-6.65h0Z"/>
    </clipPath>
    <clipPath id="clippath-9">
      <path class="cls-1" d="m4559.89,41.86c-3.73-2.84-7.95,1.38-5.11,5.11,3.73,2.84,7.95-1.38,5.11-5.11Z"/>
    </clipPath>
    <clipPath id="clippath-10">
      <path class="cls-1" d="m4572.12,41.86c-3.73-2.84-7.95,1.38-5.11,5.11,3.74,2.84,7.95-1.38,5.11-5.11Z"/>
    </clipPath>
    <clipPath id="clippath-11">
      <path class="cls-1" d="m4567.45,61.31c-.44,0-.86-.13-1.2-.35l-.02-4.08c0-1.22-1-2.21-2.22-2.21-.17,0-.34.02-.5.06-.16-.04-.33-.06-.5-.06-1.22,0-2.2.99-2.19,2.21l.02,4.1c-.34.23-.75.36-1.2.36l-3.31.02c-.77,0-1.48-.39-1.88-1.04l-4.16-6.68c-.07-.22-.17-.43-.31-.62l-.37-.52-.27-.58c-.1-.22-.23-.41-.39-.57l-3.78-6.9c-.37-.67-.36-1.49.02-2.15l1.64-2.88c.22-.38.54-.68.91-.87l4.36,2.48c.98.56,2.2-.15,2.2-1.28.08-.15.15-.31.2-.47.11-.12.21-.26.3-.41.91-.68.82-2.07-.17-2.63l-4.21-2.4c-.03-.41.07-.83.29-1.22l1.64-2.88c.38-.67,1.08-1.09,1.84-1.11l7.86-.26c.22.05.46.06.69.04l.64-.06.64.06c.24.02.47,0,.69-.05l7.87.18c.77.02,1.47.43,1.85,1.09l1.67,2.86c.22.38.32.8.3,1.22l-3.53,2.06c-1.05.62-1.41,1.97-.79,3.02.08.15.19.28.3.4.05.16.11.31.2.46,1.05.79,2.84.89,3.98.23l2.57-1.5c.37.19.69.47.91.86l1.67,2.86c.39.66.4,1.48.04,2.15l-3.7,6.94c-.15.17-.29.36-.38.58l-.26.58-.36.52c-.14.2-.24.41-.3.62l-4.09,6.72c-.4.65-1.11,1.06-1.87,1.06l-3.31.02h0Zm42.64-16.5c0-1.34-1.2-2.39-2.58-2.16-1.07.18-1.84,1.16-1.83,2.25v2.18c.02,1.22-.96,2.21-2.18,2.22l-3.31.02c-.77,0-1.48-.39-1.89-1.04l-6.73-10.82c-.84-1.34-2.77-1.39-3.68-.1l-2.11,3.01-3.67-6.28-.51-.87-3.67-6.28,3.66-.36c1.57-.15,2.48-1.87,1.72-3.25l-6.12-11.18c-.37-.67-.36-1.49.02-2.15l1.64-2.88c.6-1.06,1.95-1.43,3.01-.82l1.89,1.08c.95.54,2.18.36,2.86-.49.87-1.09.54-2.65-.62-3.31l-5.78-3.3c-1.06-.6-2.41-.24-3.01.82l-5.05,8.85c-.38.67-.39,1.48-.02,2.15l4.1,7.48c.76,1.39-.14,3.1-1.72,3.25l-6.44.63-2.34-5.02,3.94-8.69c.45-.99.16-2.2-.75-2.8-1.16-.77-2.68-.3-3.24.92l-2.41,5.3-2.44-5.22c-.46-.99-1.57-1.55-2.62-1.25-1.34.38-1.97,1.85-1.41,3.06l4.06,8.7-2.29,5.05-6.45-.56c-1.58-.14-2.5-1.84-1.75-3.24l4.02-7.53c.36-.68.35-1.49-.04-2.15l-5.14-8.79c-.62-1.05-1.96-1.4-3.02-.79l-5.69,3.32c-.94.55-1.4,1.71-1,2.72.51,1.3,2.02,1.79,3.18,1.12l1.93-1.13c1.05-.62,2.4-.26,3.02.79l1.67,2.86c.39.66.4,1.48.04,2.15l-6,11.24c-.74,1.4.18,3.1,1.75,3.24l3.67.32-3.6,6.32-.5.87-3.6,6.32-2.14-2.99c-.92-1.29-2.85-1.21-3.68.14l-6.62,10.89c-.4.65-1.11,1.06-1.87,1.06l-3.31.02c-1.22,0-2.21-.97-2.22-2.19v-2.18c-.02-1.09-.79-2.06-1.86-2.23-1.38-.21-2.57.85-2.56,2.19l.03,6.65c0,1.22,1,2.2,2.22,2.19l10.19-.05c.77,0,1.47-.4,1.87-1.06l4.43-7.29c.82-1.35,2.76-1.42,3.68-.14l3.77,5.26-3.18,4.54-9.5.93c-1.09.11-1.98.96-2.05,2.05-.08,1.39,1.08,2.47,2.41,2.34l5.8-.57-3.34,4.77c-.77,1.1-.4,2.64.86,3.26.98.48,2.17.12,2.79-.78l5.47-7.82,5.51-.54,2.74,5.86c.67,1.43-.34,3.08-1.92,3.14l-8.52.28c-.77.03-1.46.45-1.84,1.11l-5.05,8.85c-.6,1.06-.24,2.41.82,3.01l5.72,3.26c.95.54,2.18.36,2.86-.49.87-1.09.54-2.65-.62-3.31l-1.95-1.11c-1.06-.6-1.43-1.95-.82-3.01l1.64-2.88c.38-.67,1.08-1.09,1.84-1.11l12.74-.42c1.58-.05,2.59-1.7,1.92-3.14l-1.55-3.33,7.27-.04h1s7.27-.04,7.27-.04l-1.52,3.35c-.65,1.44.38,3.08,1.96,3.12l12.74.29c.76.02,1.46.43,1.85,1.09l1.67,2.86c.62,1.05.26,2.4-.79,3.02l-1.88,1.1c-.94.55-1.4,1.7-1,2.72.5,1.3,2.02,1.79,3.17,1.12l5.74-3.36c1.05-.62,1.41-1.96.79-3.02l-5.14-8.79c-.39-.66-1.09-1.07-1.85-1.09l-8.53-.19c-1.58-.04-2.61-1.67-1.96-3.12l2.68-5.89,5.52.48,5.55,7.76c.64.89,1.83,1.24,2.8.75,1.25-.62,1.6-2.18.82-3.26l-3.39-4.74,5.8.51c1.33.12,2.49-.98,2.39-2.37-.08-1.09-.98-1.94-2.07-2.03l-9.51-.83-3.22-4.51,3.71-5.3c.91-1.3,2.84-1.24,3.68.1l4.51,7.24c.41.65,1.12,1.04,1.89,1.04l10.19-.05c1.22,0,2.2-1,2.19-2.22l-.03-6.65h0Z"/>
    </clipPath>
  </defs>
  <g id="Calque_1-2" data-name="Calque 1">
    <g>
      <path d="m1755.26,74.13v16.13h-54.12V9.02h54.12v16.13h-36.79v16.13h29.03v16.13h-29.03v16.72h36.79Z"/>
      <path d="m1777.84,9.02v81.23h-17.32V9.02h17.32Z"/>
      <path d="m1801.02,57.64v32.61h-17.32V9.02h17.32v32.49h10.27l20.55-32.49h20.91l-27.12,40.62,27.12,40.62h-20.91l-20.55-32.61h-10.27Z"/>
      <path d="m1844.51,49.64c0-23.89,14.81-41.81,39.66-41.81s39.66,17.92,39.66,41.81-14.81,41.81-39.66,41.81-39.66-17.92-39.66-41.81Zm62,0c0-18.76-9.44-25.68-22.34-25.68s-22.34,6.93-22.34,25.68,9.44,25.68,22.34,25.68,22.34-6.93,22.34-25.68Z"/>
      <path d="m1943.42,40.92v49.34h-17.32V9.02h17.32l33.33,49.22h1.91V9.02h17.32v81.23h-17.32l-33.33-49.34h-1.91Z"/>
      <path d="m2019.17,9.02v81.23h-17.32V9.02h17.32Z"/>
      <path d="m2022.27,49.64c0-21.5,10.04-41.81,37.03-41.81,23.06,0,34.41,14.22,35.12,32.14h-17.32c-2.03-11.47-6.09-16.01-17.8-16.01-12.78,0-19.71,4.9-19.71,25.68s6.93,25.68,19.71,25.68c11.71,0,15.77-4.66,17.8-16.01h17.32c-.72,17.92-12.07,32.14-35.12,32.14-27,0-37.03-20.31-37.03-41.81Z"/>
      <path d="m2166.94,90.25h-18.52l-4.3-14.69h-29.75l-4.3,14.69h-18.52l24.37-81.23h26.64l24.37,81.23Zm-38.59-63.43l-9.44,32.61h20.67l-9.32-32.61h-1.91Z"/>
    </g>
    <g>
      <path d="m4074.87,67.84v16.13h-54.12V2.73h54.12v16.13h-36.79v16.13h29.03v16.13h-29.03v16.72h36.79Z"/>
      <path d="m4097.45,2.73v81.23h-17.32V2.73h17.32Z"/>
      <path d="m4120.63,51.35v32.61h-17.32V2.73h17.32v32.49h10.27l20.55-32.49h20.91l-27.12,40.62,27.12,40.62h-20.91l-20.55-32.61h-10.27Z"/>
      <path d="m4164.12,43.35c0-23.89,14.81-41.81,39.66-41.81s39.66,17.92,39.66,41.81-14.81,41.81-39.66,41.81-39.66-17.92-39.66-41.81Zm62,0c0-18.76-9.44-25.68-22.34-25.68s-22.34,6.93-22.34,25.68,9.44,25.68,22.34,25.68,22.34-6.93,22.34-25.68Z"/>
      <path d="m4263.03,34.63v49.34h-17.32V2.73h17.32l33.33,49.22h1.91V2.73h17.32v81.23h-17.32l-33.33-49.34h-1.91Z"/>
      <path d="m4338.78,2.73v81.23h-17.32V2.73h17.32Z"/>
      <path d="m4341.88,43.35c0-21.5,10.04-41.81,37.03-41.81,23.06,0,34.41,14.22,35.12,32.14h-17.32c-2.03-11.47-6.09-16.01-17.8-16.01-12.78,0-19.71,4.9-19.71,25.68s6.93,25.68,19.71,25.68c11.71,0,15.77-4.66,17.8-16.01h17.32c-.72,17.92-12.07,32.14-35.12,32.14-27,0-37.03-20.31-37.03-41.81Z"/>
      <path d="m4486.55,83.96h-18.52l-4.3-14.69h-29.75l-4.3,14.69h-18.52l24.37-81.23h26.64l24.37,81.23Zm-38.59-63.43l-9.44,32.61h20.67l-9.32-32.61h-1.91Z"/>
    </g>
    <g>
      <path d="m4074.87,67.84v16.13h-54.12V2.73h54.12v16.13h-36.79v16.13h29.03v16.13h-29.03v16.72h36.79Z"/>
      <path d="m4097.45,2.73v81.23h-17.32V2.73h17.32Z"/>
      <path d="m4120.63,51.35v32.61h-17.32V2.73h17.32v32.49h10.27l20.55-32.49h20.91l-27.12,40.62,27.12,40.62h-20.91l-20.55-32.61h-10.27Z"/>
      <path d="m4164.12,43.35c0-23.89,14.81-41.81,39.66-41.81s39.66,17.92,39.66,41.81-14.81,41.81-39.66,41.81-39.66-17.92-39.66-41.81Zm62,0c0-18.76-9.44-25.68-22.34-25.68s-22.34,6.93-22.34,25.68,9.44,25.68,22.34,25.68,22.34-6.93,22.34-25.68Z"/>
      <path d="m4263.03,34.63v49.34h-17.32V2.73h17.32l33.33,49.22h1.91V2.73h17.32v81.23h-17.32l-33.33-49.34h-1.91Z"/>
      <path d="m4338.78,2.73v81.23h-17.32V2.73h17.32Z"/>
      <path d="m4487.75,83.96h-18.52l-4.3-14.69h-29.75l-4.3,14.69h-18.52l24.37-81.23h26.64l24.37,81.23Zm-38.59-63.43l-9.44,32.61h20.67l-9.32-32.61h-1.91Z"/>
    </g>
    <g>
      <path d="m0,90.25V6.63h58.06c-13.38,3.34-35.48,16.61-35.48,32.25,0,6.33,3.58,11.23,10.27,11.23,10.39,0,15.89-11.71,15.89-20.79v27.71c-4.06,3.23-8.84,4.9-13.98,4.9-11.47,0-17.2-8.48-17.2-19.23,0-9.8,4.66-17.8,11.95-24.13H11.95v71.68H0Z"/>
      <path d="m59.02,90.25V6.63h42.89v11.95h-30.94v23.89h30.94v11.95h-30.94v23.89h30.94v11.95h-42.89Z"/>
      <path d="m108.24,84.4v-21.86c1.2,10.27,11.59,17.08,21.38,17.08,7.05,0,14.46-3.94,14.46-11.83,0-16.84-35.84-12.19-35.84-38.35,0-15.17,11.83-24.13,26.28-24.13,6.69,0,13.26,2.03,18.64,6.09v21.98c-1.08-9.68-8.96-16.13-18.52-16.13-7.05,0-14.46,3.34-14.46,11.47,0,17.56,35.84,14.22,35.84,39.42,0,15.05-12.19,23.41-26.28,23.41-7.65,0-15.41-2.39-21.5-7.17Z"/>
      <path d="m156.98,6.63h43.01v11.95h-15.53v71.68h-11.95V18.58h-15.53V6.63Z"/>
      <path d="m205.72,6.63h11.95v83.62h-11.95V6.63Z"/>
      <path d="m223.4,6.63h12.07l11.95,83.62,11.95-83.62h12.07l-11.95,83.62h-24.13l-11.95-83.62Z"/>
      <path d="m280.15,6.63h24.13l11.95,83.62h-12.07l-11.95-83.62-11.95,83.62h-12.07l11.95-83.62Z"/>
      <path d="m321.96,6.63h11.95v71.68h30.94v11.95h-42.89V6.63Z"/>
      <path d="m399.02,29.69c0-13.86,10.75-23.65,24.37-23.65h20.55c23.53,0,41.09,19.11,41.09,42.29s-17.56,41.93-41.09,41.93h-44.92V29.69Zm42.53,4.9c-5.61,6.57-14.33,16.84-23.89,16.84-6.33,0-11.83-3.58-15.05-8.84v44.32l38.94-52.32Zm-18.4,7.29c13.38,0,22.7-13.02,29.75-22.58-2.87-.84-5.85-1.31-8.84-1.31h-20.79c-6.93,0-12.3,5.02-12.3,12.07s5.26,11.83,12.18,11.83Zm-10.03,36.44h30.94c16.96,0,29.03-13.14,29.03-29.87,0-11.71-6.09-22.82-16.96-27.83l-43.01,57.7Z"/>
      <path d="m492.56,90.25V6.63h42.89v11.95h-30.94v23.89h30.94v11.95h-30.94v23.89h30.94v11.95h-42.89Z"/>
      <path d="m541.78,84.4v-21.86c1.2,10.27,11.59,17.08,21.38,17.08,7.05,0,14.46-3.94,14.46-11.83,0-16.84-35.84-12.19-35.84-38.35,0-15.17,11.83-24.13,26.28-24.13,6.69,0,13.26,2.03,18.64,6.09v21.98c-1.08-9.68-8.96-16.13-18.52-16.13-7.05,0-14.46,3.34-14.46,11.47,0,17.56,35.84,14.22,35.84,39.42,0,15.05-12.19,23.41-26.28,23.41-7.65,0-15.41-2.39-21.5-7.17Z"/>
      <path d="m648.58,27.54c0-5.14-1.91-16.49-4.54-20.91h12.78l32.61,83.62h-12.78l-12.3-31.42c.96,12.19-1.79,31.42-17.68,31.42h-18.75c-2.51-3.46-3.58-7.65-3.58-11.83,0-20.19,24.25-26.28,24.25-50.89Zm-12.3,48.14c0,6.45,3.7,10.99,10.39,10.99,11.95,0,14.69-13.98,14.69-23.29,0-14.22-5.14-25.45-10.15-38.35,1.55,23.18-14.93,35.6-14.93,50.65Z"/>
      <path d="m693.98,6.63h46.47c13.5,0,24.37,10.27,24.37,23.89,0,14.81-9.2,20.43-22.94,20.43-4.06,0-8-.48-11.95-1.31v.36c20.67,4.66,28.07,23.53,37.51,40.26h-13.74l-20.79-35.84h-27v35.84h-11.95V6.63Zm11.95,35.84h34.52c6.81,0,12.42-5.02,12.42-11.95s-5.61-11.95-12.42-11.95h-34.52v23.89Z"/>
      <path d="m769.61,6.63h43.01v11.95h-15.53v71.68h-11.95V18.58h-15.53V6.63Z"/>
      <path d="m814.17,84.4v-21.86c1.2,10.27,11.59,17.08,21.38,17.08,7.05,0,14.46-3.94,14.46-11.83,0-16.84-35.84-12.19-35.84-38.35,0-15.17,11.83-24.13,26.28-24.13,6.69,0,13.26,2.03,18.64,6.09v21.98c-1.08-9.68-8.96-16.13-18.52-16.13-7.05,0-14.46,3.34-14.46,11.47,0,17.56,35.84,14.22,35.84,39.42,0,15.05-12.19,23.41-26.28,23.41-7.65,0-15.41-2.39-21.5-7.17Z"/>
      <path d="m944.86,46.89l.36-.12c-2.03-6.93-4.9-16.13-4.9-23.29,0-10.75,5.14-18.99,16.6-18.99,5.38,0,10.39,1.91,14.34,5.73v80.04h-70.36V6.63h25.45c7.17,13.26,14.22,25.68,18.52,40.26Zm10.75,39.78l-42.77-80.04v80.04h42.77Zm12.07-3.11v-49.93c0-7.65-3.82-17.32-12.78-17.32-7.29,0-10.39,5.97-10.39,12.54,0,14.57,15.89,41.57,23.18,54.71Z"/>
      <path d="m992.53,6.63v61.16c0,7.05,5.14,12.3,11.95,12.3s11.95-5.26,11.95-12.3V6.63h11.95v61.04c0,13.74-10.39,24.37-23.77,24.37s-24.01-10.63-24.01-24.37V6.63h11.95Z"/>
      <path d="m1038.88,6.63h24.37l23.89,83.62,23.89-83.62h24.37v83.62h-11.95V6.63l-23.89,83.62h-24.85l-23.89-83.62v83.62h-11.95V6.63Z"/>
      <path d="m1147.12,90.25V6.63h42.89v11.95h-30.94v23.89h30.94v11.95h-30.94v23.89h30.94v11.95h-42.89Z"/>
      <path d="m1200.52,6.63h46.47c13.5,0,24.37,10.27,24.37,23.89,0,14.81-9.2,20.43-22.94,20.43-4.06,0-8-.48-11.95-1.31v.36c20.67,4.66,28.07,23.53,37.51,40.26h-13.74l-20.79-35.84h-27v35.84h-11.95V6.63Zm11.95,35.84h34.52c6.81,0,12.42-5.02,12.42-11.95s-5.61-11.95-12.42-11.95h-34.52v23.89Z"/>
      <path d="m1282.12,6.63h11.95v83.62h-11.95V6.63Z"/>
      <path d="m1345.2,4.84c25.92,0,43.6,19.23,43.6,44.68l-16.84,16.84,15.89,14.69v16.37l-24.37-22.58-16.72,16.72h-1.55c-24.73,0-43.6-18.52-43.6-43.36s18.88-43.36,43.6-43.36Zm-31.66,43.6c0,18.04,13.62,31.66,31.66,31.66,6.45,0,12.78-1.91,18.16-5.38l-19.47-18.04v-16.25l27.83,25.68c3.34-5.26,5.14-11.47,5.14-17.68,0-18.04-13.62-31.66-31.66-31.66s-31.66,13.62-31.66,31.66Z"/>
      <path d="m1407.08,6.63v61.16c0,7.05,5.14,12.3,11.95,12.3s11.95-5.26,11.95-12.3V6.63h11.95v61.04c0,13.74-10.39,24.37-23.77,24.37s-24.01-10.63-24.01-24.37V6.63h11.95Z"/>
      <path d="m1453.44,90.25V6.63h42.89v11.95h-30.94v23.89h30.94v11.95h-30.94v23.89h30.94v11.95h-42.89Z"/>
      <path d="m1502.66,84.4v-21.86c1.2,10.27,11.59,17.08,21.38,17.08,7.05,0,14.46-3.94,14.46-11.83,0-16.84-35.84-12.19-35.84-38.35,0-15.17,11.83-24.13,26.28-24.13,6.69,0,13.26,2.03,18.64,6.09v21.98c-1.08-9.68-8.96-16.13-18.52-16.13-7.05,0-14.46,3.34-14.46,11.47,0,17.56,35.84,14.22,35.84,39.42,0,15.05-12.19,23.41-26.28,23.41-7.65,0-15.41-2.39-21.5-7.17Z"/>
    </g>
    <g>
      <path d="m2320.21,90.25V6.63h58.06c-13.38,3.34-35.48,16.61-35.48,32.25,0,6.33,3.58,11.23,10.27,11.23,10.39,0,15.89-11.71,15.89-20.79v27.71c-4.06,3.23-8.84,4.9-13.98,4.9-11.47,0-17.2-8.48-17.2-19.23,0-9.8,4.66-17.8,11.95-24.13h-17.56v71.68h-11.95Z"/>
      <path d="m2379.22,90.25V6.63h42.89v11.95h-30.94v23.89h30.94v11.95h-30.94v23.89h30.94v11.95h-42.89Z"/>
      <path d="m2428.44,84.4v-21.86c1.2,10.27,11.59,17.08,21.38,17.08,7.05,0,14.46-3.94,14.46-11.83,0-16.84-35.84-12.19-35.84-38.35,0-15.17,11.83-24.13,26.28-24.13,6.69,0,13.26,2.03,18.64,6.09v21.98c-1.08-9.68-8.96-16.13-18.52-16.13-7.05,0-14.46,3.34-14.46,11.47,0,17.56,35.84,14.22,35.84,39.42,0,15.05-12.19,23.41-26.28,23.41-7.65,0-15.41-2.39-21.5-7.17Z"/>
      <path d="m2477.19,6.63h43.01v11.95h-15.53v71.68h-11.95V18.58h-15.53V6.63Z"/>
      <path d="m2525.93,6.63h11.95v83.62h-11.95V6.63Z"/>
      <path d="m2543.61,6.63h12.07l11.95,83.62,11.95-83.62h12.07l-11.95,83.62h-24.13l-11.95-83.62Z"/>
      <path d="m2600.35,6.63h24.13l11.95,83.62h-12.07l-11.95-83.62-11.95,83.62h-12.07l11.95-83.62Z"/>
      <path d="m2642.17,6.63h11.95v71.68h30.94v11.95h-42.89V6.63Z"/>
      <path d="m2719.23,29.69c0-13.86,10.75-23.65,24.37-23.65h20.55c23.53,0,41.09,19.11,41.09,42.29s-17.56,41.93-41.09,41.93h-44.92V29.69Zm42.53,4.9c-5.61,6.57-14.33,16.84-23.89,16.84-6.33,0-11.83-3.58-15.05-8.84v44.32l38.94-52.32Zm-18.4,7.29c13.38,0,22.7-13.02,29.75-22.58-2.87-.84-5.85-1.31-8.84-1.31h-20.79c-6.93,0-12.3,5.02-12.3,12.07s5.26,11.83,12.18,11.83Zm-10.03,36.44h30.94c16.96,0,29.03-13.14,29.03-29.87,0-11.71-6.09-22.82-16.96-27.83l-43.01,57.7Z"/>
      <path d="m2812.77,90.25V6.63h42.89v11.95h-30.94v23.89h30.94v11.95h-30.94v23.89h30.94v11.95h-42.89Z"/>
      <path d="m2861.99,84.4v-21.86c1.2,10.27,11.59,17.08,21.38,17.08,7.05,0,14.46-3.94,14.46-11.83,0-16.84-35.84-12.19-35.84-38.35,0-15.17,11.83-24.13,26.28-24.13,6.69,0,13.26,2.03,18.64,6.09v21.98c-1.08-9.68-8.96-16.13-18.52-16.13-7.05,0-14.46,3.34-14.46,11.47,0,17.56,35.84,14.22,35.84,39.42,0,15.05-12.19,23.41-26.28,23.41-7.65,0-15.41-2.39-21.5-7.17Z"/>
      <path d="m2968.79,27.54c0-5.14-1.91-16.49-4.54-20.91h12.78l32.61,83.62h-12.78l-12.3-31.42c.96,12.19-1.79,31.42-17.68,31.42h-18.75c-2.51-3.46-3.58-7.65-3.58-11.83,0-20.19,24.25-26.28,24.25-50.89Zm-12.3,48.14c0,6.45,3.7,10.99,10.39,10.99,11.95,0,14.69-13.98,14.69-23.29,0-14.22-5.14-25.45-10.15-38.35,1.55,23.18-14.93,35.6-14.93,50.65Z"/>
      <path d="m3014.19,6.63h46.47c13.5,0,24.37,10.27,24.37,23.89,0,14.81-9.2,20.43-22.94,20.43-4.06,0-8-.48-11.95-1.31v.36c20.67,4.66,28.07,23.53,37.51,40.26h-13.74l-20.79-35.84h-27v35.84h-11.95V6.63Zm11.95,35.84h34.52c6.81,0,12.42-5.02,12.42-11.95s-5.61-11.95-12.42-11.95h-34.52v23.89Z"/>
      <path d="m3089.81,6.63h43.01v11.95h-15.53v71.68h-11.95V18.58h-15.53V6.63Z"/>
      <path d="m3134.37,84.4v-21.86c1.2,10.27,11.59,17.08,21.38,17.08,7.05,0,14.46-3.94,14.46-11.83,0-16.84-35.84-12.19-35.84-38.35,0-15.17,11.83-24.13,26.28-24.13,6.69,0,13.26,2.03,18.64,6.09v21.98c-1.08-9.68-8.96-16.13-18.52-16.13-7.05,0-14.46,3.34-14.46,11.47,0,17.56,35.84,14.22,35.84,39.42,0,15.05-12.19,23.41-26.28,23.41-7.65,0-15.41-2.39-21.5-7.17Z"/>
      <path d="m3265.07,46.89l.36-.12c-2.03-6.93-4.9-16.13-4.9-23.29,0-10.75,5.14-18.99,16.6-18.99,5.38,0,10.39,1.91,14.34,5.73v80.04h-70.36V6.63h25.45c7.17,13.26,14.22,25.68,18.52,40.26Zm10.75,39.78l-42.77-80.04v80.04h42.77Zm12.07-3.11v-49.93c0-7.65-3.82-17.32-12.78-17.32-7.29,0-10.39,5.97-10.39,12.54,0,14.57,15.89,41.57,23.18,54.71Z"/>
      <path d="m3312.74,6.63v61.16c0,7.05,5.14,12.3,11.95,12.3s11.95-5.26,11.95-12.3V6.63h11.95v61.04c0,13.74-10.39,24.37-23.77,24.37s-24.01-10.63-24.01-24.37V6.63h11.95Z"/>
      <path d="m3359.09,6.63h24.37l23.89,83.62,23.89-83.62h24.37v83.62h-11.95V6.63l-23.89,83.62h-24.85l-23.89-83.62v83.62h-11.95V6.63Z"/>
      <path d="m3467.33,90.25V6.63h42.89v11.95h-30.94v23.89h30.94v11.95h-30.94v23.89h30.94v11.95h-42.89Z"/>
      <path d="m3520.73,6.63h46.47c13.5,0,24.37,10.27,24.37,23.89,0,14.81-9.2,20.43-22.94,20.43-4.06,0-8-.48-11.95-1.31v.36c20.67,4.66,28.07,23.53,37.51,40.26h-13.74l-20.79-35.84h-27v35.84h-11.95V6.63Zm11.95,35.84h34.52c6.81,0,12.42-5.02,12.42-11.95s-5.61-11.95-12.42-11.95h-34.52v23.89Z"/>
      <path d="m3602.33,6.63h11.95v83.62h-11.95V6.63Z"/>
      <path d="m3665.4,4.84c25.92,0,43.6,19.23,43.6,44.68l-16.84,16.84,15.89,14.69v16.37l-24.37-22.58-16.72,16.72h-1.55c-24.73,0-43.6-18.52-43.6-43.36s18.88-43.36,43.6-43.36Zm-31.66,43.6c0,18.04,13.62,31.66,31.66,31.66,6.45,0,12.78-1.91,18.16-5.38l-19.47-18.04v-16.25l27.83,25.68c3.34-5.26,5.14-11.47,5.14-17.68,0-18.04-13.62-31.66-31.66-31.66s-31.66,13.62-31.66,31.66Z"/>
      <path d="m3727.29,6.63v61.16c0,7.05,5.14,12.3,11.95,12.3s11.95-5.26,11.95-12.3V6.63h11.95v61.04c0,13.74-10.39,24.37-23.77,24.37s-24.01-10.63-24.01-24.37V6.63h11.95Z"/>
      <path d="m3773.64,90.25V6.63h42.89v11.95h-30.94v23.89h30.94v11.95h-30.94v23.89h30.94v11.95h-42.89Z"/>
      <path d="m3822.86,84.4v-21.86c1.2,10.27,11.59,17.08,21.38,17.08,7.05,0,14.46-3.94,14.46-11.83,0-16.84-35.84-12.19-35.84-38.35,0-15.17,11.83-24.13,26.28-24.13,6.69,0,13.26,2.03,18.64,6.09v21.98c-1.08-9.68-8.96-16.13-18.52-16.13-7.05,0-14.46,3.34-14.46,11.47,0,17.56,35.84,14.22,35.84,39.42,0,15.05-12.19,23.41-26.28,23.41-7.65,0-15.41-2.39-21.5-7.17Z"/>
    </g>
    <g class="cls-2">
      <rect x="1601.16" y="34.17" width="20.73" height="20.73"/>
    </g>
    <g class="cls-3">
      <rect x="1617.52" y="34.17" width="20.73" height="20.73"/>
    </g>
    <g class="cls-6">
      <rect x="1574.09" y="2.06" width="91.22" height="91.22"/>
    </g>
    <g class="cls-5">
      <rect x="3921.36" y="34.17" width="20.73" height="20.73"/>
    </g>
    <g class="cls-4">
      <rect x="3937.72" y="34.17" width="20.73" height="20.73"/>
    </g>
    <g class="cls-10">
      <rect x="3894.3" y="2.06" width="91.22" height="91.22"/>
    </g>
    <g class="cls-9">
      <rect x="2228.59" y="42.17" width="17.08" height="17.08"/>
    </g>
    <g class="cls-7">
      <rect x="2240.82" y="42.17" width="17.08" height="17.08"/>
    </g>
    <g class="cls-8">
      <rect x="2193.45" y="2.83" width="99.62" height="91.72"/>
    </g>
    <g class="cls-11">
      <rect x="4548.8" y="35.88" width="17.08" height="17.08"/>
    </g>
    <g class="cls-12">
      <rect x="4561.02" y="35.88" width="17.08" height="17.08"/>
    </g>
    <g class="cls-13">
      <rect x="4513.66" y="-3.46" width="99.61" height="91.72"/>
    </g>
  </g>
</svg>