<?xml version="1.0" encoding="UTF-8"?>
<svg id="Calque_2" data-name="Calque 2" xmlns="http://www.w3.org/2000/svg" viewBox="0 0 511.22 500">
  <defs>
    <style>
      .cls-1 {
        fill: #fff;
      }
    </style>
  </defs>
  <g id="Calque_1-2" data-name="Calque 1">
    <path class="cls-1" d="m510.94,263.78l-2.28-9.56c-1.29-5.38-6.69-8.7-12.07-7.42l-19.53,4.66c-8.02,1.92-16.08-3.03-18-11.06l-7.97-33.36c-.04-.17-.09-.33-.14-.5-.03-.17-.06-.34-.1-.51l-7.97-33.36c-1.92-8.02,3.03-16.08,11.06-18l19.53-4.66c5.38-1.29,8.7-6.69,7.42-12.07l-2.28-9.56c-1.29-5.38-6.69-8.7-12.07-7.42l-49.02,11.71c-7.78,1.86-12.58,9.67-10.72,17.45l2.41,10.09c.94,3.95-3.36,7.06-6.82,4.94h0c-1.03-.63-1.77-1.65-2.05-2.82l-2.78-11.62c.53-3.81-.74-7.65-3.37-10.41-2.17-3.14-5.68-5.16-9.51-5.42l-10.68-5.01c-1.11-.52-2.03-1.43-2.46-2.58-1.44-3.84,2.51-7.46,6.2-5.73l9.39,4.41c7.24,3.4,15.86.28,19.26-6.96l21.41-45.62c2.35-5.01.2-10.98-4.81-13.33l-8.9-4.17c-5.01-2.35-10.98-.2-13.33,4.81l-8.53,18.18c-3.5,7.47-12.4,10.68-19.86,7.18l-31.05-14.57c-.16-.07-.32-.13-.48-.2-.15-.08-.3-.16-.46-.24l-31.05-14.57c-7.47-3.5-10.68-12.4-7.18-19.86l8.53-18.18c2.35-5.01.2-10.98-4.81-13.33l-8.9-4.17c-5.01-2.35-10.98-.2-13.33,4.81l-21.41,45.62c-3.4,7.24-.28,15.86,6.96,19.26l9.39,4.41c3.67,1.72,3.43,7.03-.39,8.41h0c-1.14.41-2.39.35-3.48-.16l-10.81-5.07c-2.65-2.79-6.44-4.19-10.25-3.86-3.81-.26-7.57,1.22-10.17,4.06l-10.58,5.23c-1.1.54-2.38.69-3.55.31-3.9-1.27-4.27-6.61-.61-8.42l9.3-4.59c7.17-3.54,10.11-12.23,6.57-19.39l-22.32-45.18c-2.45-4.96-8.46-7-13.42-4.54l-8.81,4.35c-4.96,2.45-7,8.46-4.55,13.42l8.89,18c3.65,7.4.62,16.35-6.78,20.01l-30.75,15.19c-.16.08-.3.16-.45.25-.16.07-.31.13-.47.21l-30.75,15.19c-7.39,3.65-16.35.62-20.01-6.77l-8.89-18c-2.45-4.96-8.46-7-13.42-4.54l-8.81,4.35c-4.96,2.45-7,8.46-4.54,13.42l22.32,45.18c3.54,7.17,12.23,10.11,19.39,6.57l9.3-4.59c3.64-1.8,7.63,1.7,6.33,5.55h0c-.39,1.14-1.21,2.09-2.3,2.62l-10.71,5.29c-3.83.33-7.29,2.42-9.4,5.61-2.58,2.82-3.77,6.68-3.16,10.48l-2.51,11.53c-.26,1.2-.94,2.29-1.97,2.97-3.42,2.26-7.83-.78-6.97-4.77l2.21-10.13c1.7-7.81-3.25-15.53-11.07-17.23l-49.24-10.72c-5.41-1.18-10.74,2.25-11.92,7.66l-2.09,9.6c-1.18,5.41,2.25,10.74,7.66,11.92l19.62,4.27c8.06,1.75,13.17,9.71,11.42,17.77l-7.29,33.51c-.04.17-.06.34-.09.51-.04.17-.09.33-.13.5l-7.29,33.51c-1.75,8.06-9.71,13.17-17.77,11.42l-19.62-4.27c-5.41-1.18-10.74,2.25-11.92,7.66l-2.09,9.6c-1.18,5.41,2.25,10.74,7.66,11.92l49.24,10.72c7.81,1.7,15.53-3.25,17.23-11.07l2.21-10.13c.86-3.97,6.09-4.91,8.28-1.49h0c.65,1.02.88,2.25.62,3.43l-2.54,11.67c-2.13,3.2-2.65,7.21-1.48,10.85.59,3.77,2.88,7.12,6.22,9.01l7.45,9.15c.78.95,1.21,2.17,1.1,3.39-.37,4.08-5.5,5.64-8.07,2.47l-6.55-8.04c-5.05-6.2-14.17-7.14-20.37-2.09l-39.08,31.82c-4.29,3.49-4.94,9.8-1.44,14.1l6.2,7.62c3.49,4.29,9.8,4.94,14.1,1.44l15.57-12.68c6.4-5.21,15.8-4.24,21.01,2.15l21.65,26.6c.11.14.23.26.34.39.1.14.2.28.31.41l21.65,26.6c5.21,6.4,4.24,15.8-2.15,21.01l-15.57,12.68c-4.29,3.49-4.94,9.8-1.44,14.1l6.2,7.62c3.49,4.29,9.8,4.94,14.1,1.44l39.08-31.82c6.2-5.05,7.14-14.17,2.09-20.37l-6.55-8.04c-2.56-3.15-.04-7.82,4-7.41h0c1.2.12,2.31.72,3.07,1.66l7.54,9.26c1.18,3.66,3.99,6.58,7.56,7.92,3.32,1.88,7.35,2.18,10.92.75l11.8-.12c1.23-.01,2.45.41,3.33,1.26,2.96,2.83.98,7.81-3.1,7.85l-10.37.1c-8,.08-14.41,6.63-14.33,14.62l.51,50.4c.06,5.53,4.59,9.97,10.12,9.92l9.83-.1c5.53-.06,9.97-4.59,9.92-10.12l-.2-20.08c-.08-8.25,6.54-15,14.78-15.08l34.29-.35c.17,0,.34-.02.52-.02.17,0,.34.02.52.01l34.29-.35c8.25-.08,15,6.54,15.08,14.78l.2,20.08c.06,5.53,4.59,9.97,10.12,9.92l9.83-.1c5.53-.06,9.97-4.59,9.92-10.12l-.51-50.4c-.08-8-6.63-14.41-14.62-14.33l-10.37.1c-4.06.04-6.14-4.85-3.3-7.74h0c.85-.86,2-1.35,3.21-1.37l11.95-.12c3.59,1.36,7.62.98,10.9-.97,3.54-1.42,6.3-4.39,7.4-8.07l7.27-9.3c.76-.97,1.84-1.66,3.06-1.82,4.06-.55,6.72,4.1,4.21,7.32l-6.38,8.17c-4.92,6.3-3.8,15.4,2.5,20.32l39.72,31.02c4.36,3.41,10.66,2.63,14.06-1.73l6.05-7.74c3.41-4.36,2.63-10.66-1.73-14.06l-15.82-12.36c-6.5-5.08-7.65-14.46-2.58-20.96l21.11-27.03c.11-.14.2-.28.3-.42.11-.13.23-.26.33-.4l21.11-27.03c5.08-6.5,14.46-7.65,20.96-2.58l15.82,12.36c4.36,3.41,10.66,2.63,14.06-1.73l6.05-7.74c3.41-4.36,2.63-10.66-1.73-14.06l-39.72-31.02c-6.3-4.92-15.4-3.8-20.32,2.5l-6.38,8.17c-2.5,3.2-7.62,1.78-8.11-2.25h0c-.15-1.2.19-2.41.93-3.36l7.35-9.41c3.31-1.96,5.52-5.35,6.04-9.13,1.1-3.66.5-7.66-1.7-10.82l-2.74-11.48c-.29-1.2-.15-2.48.48-3.53,2.1-3.52,7.4-2.69,8.34,1.27l2.41,10.09c1.86,7.78,9.67,12.58,17.45,10.72l49.02-11.71c5.38-1.29,8.7-6.69,7.42-12.07Zm-121.24,32.34c-3.29,4.22-4.78,9.57-4.13,14.88l3.9,31.71c1.14,9.31-5.47,17.78-14.78,18.92l-31.71,3.9c-5.31.65-10.14,3.39-13.44,7.6l-9.11,11.66-14.79.15c-5.35.05-10.46,2.23-14.21,6.05l-22.36,22.82c-6.56,6.7-17.31,6.8-24.01.24l-22.82-22.36c-3.82-3.75-8.97-5.82-14.32-5.77l-14.79.15-9.34-11.47c-3.38-4.15-8.27-6.79-13.59-7.33l-31.78-3.26c-9.33-.96-16.11-9.29-15.16-18.62l3.26-31.78c.55-5.32-1.05-10.64-4.42-14.79l-9.34-11.47,3.15-14.45c1.14-5.23.15-10.69-2.74-15.2l-17.27-26.88c-5.07-7.89-2.78-18.39,5.11-23.46l26.88-17.27c4.5-2.89,7.67-7.45,8.81-12.68l3.15-14.46,13.26-6.55c4.8-2.37,8.46-6.55,10.17-11.62l10.25-30.26c3.01-8.88,12.64-13.64,21.52-10.63l30.26,10.25c5.07,1.72,10.61,1.35,15.41-1.02l13.26-6.55,13.39,6.28c4.84,2.27,10.39,2.53,15.43.71l30.05-10.85c8.82-3.19,18.55,1.38,21.73,10.2l10.85,30.05c1.82,5.03,5.56,9.14,10.4,11.41l13.39,6.28,3.44,14.39c1.24,5.2,4.5,9.7,9.06,12.5l27.22,16.72c7.99,4.91,10.49,15.36,5.58,23.35l-16.72,27.22c-2.8,4.56-3.68,10.04-2.43,15.25l3.44,14.39-9.11,11.66Z"/>
  </g>
</svg>