<?xml version="1.0" encoding="UTF-8"?>
<svg id="Calque_2" data-name="Calque 2" xmlns="http://www.w3.org/2000/svg" viewBox="0 0 535.59 500">
  <defs>
    <style>
      .cls-1 {
        fill: #fff;
      }
    </style>
  </defs>
  <g id="Calque_1-2" data-name="Calque 1">
    <path class="cls-1" d="m533.32,233.55l-55.71-94.55-4.04-6.85-55.71-94.55c-4.59-7.78-14.61-10.37-22.39-5.79l-60.93,35.9c-7.78,4.59-17.81,1.99-22.39-5.79l-31.75-53.88c-3.17-5.38-8.94-8.27-14.76-8.04-5.83-.13-11.55,2.86-14.62,8.3l-30.79,54.44c-4.45,7.86-14.42,10.63-22.28,6.18l-61.56-34.81c-7.86-4.45-17.84-1.68-22.28,6.18l-54.02,95.52-3.91,6.92L2.12,238.28c-4.45,7.86-1.68,17.84,6.18,22.28l61.56,34.81c7.86,4.45,10.63,14.42,6.18,22.28l-30.79,54.44c-3.07,5.43-2.7,11.88.42,16.81,2.8,5.12,8.26,8.57,14.5,8.51l62.54-.56c9.03-.08,16.42,7.18,16.5,16.21l.63,70.72c.08,9.03,7.47,16.29,16.5,16.21l109.74-.98,7.95-.07,109.74-.98c9.03-.08,16.29-7.47,16.21-16.5l-.63-70.72c-.08-9.03,7.18-16.42,16.21-16.5l62.54-.56c6.24-.06,11.64-3.6,14.35-8.77,3.03-4.98,3.29-11.43.12-16.81l-31.75-53.88c-4.59-7.78-1.99-17.81,5.79-22.39l60.93-35.9c7.78-4.59,10.37-14.61,5.79-22.39Zm-50.57,10.82l-60.93,35.9c-7.78,4.59-10.37,14.61-5.79,22.39l34.52,58.58-67.99.6c-9.03.08-16.29,7.47-16.21,16.5l.63,70.72c.08,9.03-7.18,16.42-16.21,16.5l-6.03.05c-14.57.13-22.02-17.42-11.81-27.81l1.78-1.81c6.33-6.44,6.24-16.8-.21-23.13h0c-6.44-6.33-16.8-6.24-23.13.21l-41.71,42.46-42.46-41.71c-6.44-6.33-16.8-6.24-23.13.21h0c-6.33,6.44-6.24,16.8.21,23.13l1.81,1.78c10.39,10.21,3.25,27.89-11.31,28.02l-6.03.05c-9.03.08-16.42-7.18-16.5-16.21l-.63-70.72c-.08-9.03-7.47-16.29-16.5-16.21l-67.99.61,33.47-59.18c4.45-7.86,1.68-17.84-6.18-22.28l-61.56-34.81c-7.86-4.45-10.63-14.42-6.18-22.28l2.97-5.25c7.17-12.68,26.1-10.36,29.99,3.68l.68,2.44c2.41,8.7,11.43,13.8,20.13,11.38h0c8.7-2.42,13.8-11.43,11.38-20.13l-15.92-57.35,57.35-15.92c8.7-2.41,13.8-11.43,11.38-20.13h0c-2.41-8.7-11.43-13.8-20.13-11.39l-2.44.68c-14.04,3.9-25.78-11.13-18.61-23.81l2.97-5.25c4.45-7.86,14.42-10.63,22.28-6.18l61.56,34.81c7.86,4.45,17.84,1.68,22.28-6.18l33.47-59.18,34.52,58.58c4.59,7.78,14.61,10.37,22.39,5.79l60.93-35.9c7.78-4.59,17.81-1.99,22.39,5.79l3.06,5.19c7.4,12.55-4.08,27.78-18.18,24.14l-2.46-.63c-8.74-2.26-17.67,3-19.93,11.74h0c-2.26,8.74,3,17.66,11.74,19.92l57.63,14.89-14.89,57.63c-2.26,8.74,3,17.66,11.74,19.92h0c8.74,2.26,17.66-3,19.92-11.74l.63-2.46c3.65-14.11,22.53-16.76,29.92-4.21l3.06,5.19c4.59,7.78,1.99,17.81-5.79,22.39Z"/>
  </g>
</svg>