<?xml version="1.0" encoding="UTF-8"?>
<svg id="Calque_2" data-name="Calque 2" xmlns="http://www.w3.org/2000/svg" viewBox="0 0 523.31 500">
  <defs>
    <style>
      .cls-1 {
        fill: #fff;
      }
    </style>
  </defs>
  <g id="Calque_1-2" data-name="Calque 1">
    <path class="cls-1" d="m523.11,236.46c-1.52-10.58-11.33-17.93-21.9-16.42l-56.94,8.17c-5.08.73-9.67,3.44-12.75,7.55l-13.83,18.47c-6.41,8.55-18.53,10.29-27.09,3.89l-39.18-29.36c-2.06-1.54-2.94-4.21-2.19-6.68l14.18-46.86c3.1-10.23,13.9-16.01,24.13-12.92l22.08,6.69c4.91,1.49,10.21.96,14.74-1.46l50.73-27.14c9.42-5.05,12.97-16.78,7.93-26.2-3.49-6.52-10.18-10.23-17.08-10.23-3.08,0-6.21.74-9.12,2.3l-36.58,19.58c-4.53,2.43-9.83,2.95-14.74,1.46l-40.59-12.28c-1.31-.4-2.45-1.22-3.23-2.34l-24.42-34.67c-2.96-4.2-4.12-9.4-3.24-14.45l7.09-40.89c1.82-10.53-5.23-20.55-15.76-22.37-1.12-.2-2.24-.29-3.33-.29-9.24,0-17.41,6.64-19.04,16.04l-9.84,56.69c-.88,5.05.29,10.25,3.25,14.45l13.29,18.86c6.15,8.74,4.06,20.81-4.68,26.97l-40.03,28.19c-2.11,1.48-4.91,1.49-7.03.02l-40.18-27.97c-8.77-6.11-10.93-18.17-4.82-26.94l13.18-18.94c2.93-4.21,4.07-9.42,3.17-14.47l-10.14-56.63c-1.89-10.52-11.94-17.52-22.46-15.63-9.37,1.68-15.95,9.84-15.95,19.03,0,1.13.1,2.28.31,3.43l7.32,40.85c.91,5.05-.23,10.25-3.17,14.46l-24.23,34.81c-.78,1.12-1.92,1.95-3.22,2.35l-40.52,12.51c-4.9,1.52-10.21,1.02-14.74-1.38l-36.7-19.38c-9.45-4.99-21.16-1.37-26.14,8.08h0c-4.99,9.45-1.37,21.16,8.08,26.14l50.87,26.87c4.54,2.4,9.84,2.89,14.74,1.38l22.05-6.81c10.21-3.15,21.05,2.57,24.2,12.78l14.44,46.78c.76,2.46-.1,5.13-2.15,6.69l-39.02,29.57c-8.52,6.45-20.66,4.78-27.12-3.74l-13.94-18.39c-3.1-4.09-7.7-6.78-12.78-7.48l-56.99-7.85c-10.59-1.45-20.36,5.95-21.82,16.53-.12.9-.18,1.78-.18,2.66,0,9.53,7.02,17.82,16.71,19.16l41.11,5.66c5.08.7,9.68,3.39,12.78,7.48l25.62,33.8c.83,1.09,1.26,2.42,1.24,3.79l-.63,42.41c-.07,5.13-2.18,10.02-5.86,13.6l-29.77,28.91c-7.67,7.45-7.85,19.7-.4,27.36h0c7.45,7.67,19.7,7.85,27.36.41l41.28-40.08c3.68-3.57,5.8-8.47,5.87-13.6l.34-23.07c.16-10.69,8.95-19.22,19.64-19.06l48.95.72c2.58.04,4.85,1.68,5.7,4.12l16.07,46.25c3.51,10.1-1.83,21.12-11.93,24.63l-21.8,7.57c-4.84,1.68-8.83,5.22-11.06,9.84l-25.08,51.78c-4.66,9.62-.64,21.19,8.98,25.85,2.72,1.32,5.59,1.94,8.42,1.94,7.19,0,14.09-4.02,17.43-10.92l18.09-37.35c2.24-4.62,6.22-8.16,11.07-9.85l40.06-13.92c1.29-.45,2.7-.45,3.99-.01l40.13,13.7c4.86,1.66,8.86,5.18,11.12,9.78l18.29,37.25c4.72,9.59,16.31,13.55,25.9,8.84,6.85-3.36,10.83-10.23,10.83-17.38,0-2.87-.64-5.78-1.99-8.52l-25.36-51.64c-2.26-4.61-6.26-8.13-11.12-9.78l-21.84-7.45c-10.12-3.45-15.52-14.45-12.07-24.57l15.82-46.33c.83-2.44,3.1-4.09,5.68-4.15l48.94-.99c10.69-.22,19.53,8.27,19.74,18.96l.46,23.07c.11,5.13,2.24,10.01,5.95,13.57l41.49,39.85c7.71,7.41,19.96,7.15,27.36-.55,3.61-3.75,5.39-8.58,5.39-13.41,0-5.08-1.99-10.16-5.95-13.96l-29.93-28.74c-3.7-3.56-5.84-8.44-5.95-13.57l-.85-42.4c-.03-1.37.4-2.7,1.22-3.8l25.42-33.93c3.08-4.11,7.66-6.83,12.75-7.56l41.08-5.89c10.58-1.52,17.92-11.32,16.41-21.9Zm-187.17,55.25c-12.42,22.08-34.4,38.05-60.32,42.33-2.23.37-4.05,1.96-4.78,4.09l-3.1,9.1c-1.88,5.52-9.68,5.54-11.59.03l-3.15-9.07c-.74-2.13-2.58-3.72-4.81-4.07-25.98-4.12-48.05-20-60.6-42.01-1.08-1.89-3.06-3.09-5.24-3.12l-7-.1c-5.83-.09-8.26-7.49-3.61-11.01l4.43-3.35c1.89-1.43,2.8-3.83,2.29-6.15-1.3-5.92-1.99-12.07-1.99-18.38,0-23.33,9.38-44.47,24.58-59.85,1.6-1.62,2.21-3.98,1.54-6.15l-.31-.99c-1.72-5.57,4.57-10.17,9.36-6.84l.22.15c1.99,1.38,4.58,1.44,6.67.22,12.65-7.44,27.39-11.71,43.12-11.71s30.18,4.18,42.75,11.49c2.09,1.22,4.69,1.14,6.67-.25l.26-.18c4.76-3.35,11.08,1.21,9.39,6.78l-.32,1.05c-.66,2.18-.04,4.53,1.57,6.14,15.37,15.41,24.87,36.67,24.87,60.14,0,6.13-.65,12.11-1.88,17.88-.5,2.32.43,4.72,2.33,6.14l4.49,3.37c4.66,3.49,2.28,10.91-3.55,11.03l-7.06.14c-2.18.04-4.16,1.25-5.22,3.15Z"/>
  </g>
</svg>